<?xml version="1.0" encoding="UTF-8"?>
<svg id="_Слой_1" data-name="Слой_1" xmlns="http://www.w3.org/2000/svg" version="1.1" xmlns:xodm="http://www.corel.com/coreldraw/odm/2003" viewBox="0 0 1190 841">
  <!-- Generator: Adobe Illustrator 29.4.0, SVG Export Plug-In . SVG Version: 2.1.0 Build 152)  -->
  <defs>
    <style>
      .st0 {
        fill: #ed3237;
      }

      .st1 {
        fill: #282829;
      }
    </style>
  </defs>
  <g id="_Слой_x5F_1" data-name="Слой_x5F_1">
    <path class="st0" d="M585.19,25.51h14.63c14.36,1.56,28.85,3.16,42.63,7.67,9.75,2.72,18.96,6.99,27.8,11.83,6.57,3.89,13.16,7.98,18.38,13.64,4.46,4.84,9.92,9.01,12.69,15.16,3.46,6.6,4.48,14.07,5.16,21.39.28,12.95,1.75,25.83,3.04,38.7,2.11,18.88,3.02,37.88,5.77,56.69.2.92.34,1.99,1.32,2.42,3.04,1.86,6.54,3.17,8.81,6.05,3.95,4.91,4.98,11.47,4.81,17.59-.54,11.54-2.03,23.08-5.16,34.21-2.03,6.91-5.2,13.62-9.95,19.08-2.3,2.66-5.44,4.38-8.08,6.63-1.8,1.25-1.44,3.69-1.8,5.59-.4,6.41-1.99,12.67-2.58,19.06-.3,1.63,1.43,2.5,2.5,3.38,3.84,2.66,7.66,5.43,10.92,8.84,14.46,14.6,29.96,28.16,46.34,40.55,12.49,8.03,24.73,16.47,37.35,24.31,6.34,4.31,12.91,8.25,19.2,12.65,6.05,4.2,12.59,7.77,18.02,12.79-5.69,7.71-12.54,14.46-18.56,21.91-6.13,7-11.75,14.47-18.09,21.28-6.36,7.36-12.33,15.05-18.66,22.41-4.29,5.05-8.82,9.87-12.96,15.01-6.23,7.17-11.78,14.92-18.62,21.54-3.42,3.74-6.84,7.64-11.52,9.84-14.63,7.45-29.83,13.71-44.56,20.96-8.47,4.09-17.1,7.9-25.46,12.2-11.45,5.63-23.36,10.26-34.61,16.25-6.19,2.91-12.52,5.43-18.55,8.65-17.76,8.49-35.62,16.81-53.44,25.18-3.78,1.78-7.48,3.8-11.6,4.73,3.28-5.08,8.62-8.23,12.9-12.36,11.99-10.99,24.54-21.34,36.47-32.42,4.53-3.9,8.56-8.4,13.27-12.11,6.63-5.39,13.03-11.05,19.54-16.59,8.42-6.57,16.39-13.69,24.41-20.73,8.36-8.35,17.82-15.5,26.71-23.29,11.59-9.98,22.93-20.21,34.24-30.49,7.95-5.91,15.44-12.33,22.59-19.18-1.56-2.45-3.18-4.85-5.11-7.02-8.07-9.45-15.49-19.45-23.4-29.05-1.96-2.69-4.13-5.24-6.71-7.36,1.46,6.09,4.84,11.47,7.38,17.13,2.81,6.21,5.79,12.37,8.63,18.58.85,2.29,2.27,4.67,1.72,7.19-1.86,1.76-4.13,3.02-6.19,4.54-10.57,7.69-20.25,16.54-30.78,24.3-6.84,5.45-13.78,10.79-20.72,16.09-6.33,4.62-12.25,9.75-18.69,14.23-6.47,4.96-13.15,9.66-19.33,14.98-4.62,3.95-9.62,7.42-14.42,11.13-6.44,5.05-13.46,9.3-19.72,14.59-6.94,5.03-12.99,11.18-20.01,16.12-3.86,2.73-7.89,5.25-11.55,8.25-2.88,2.34-5.72,4.76-9.05,6.45,1.79-5.15,5.6-9.2,8.37-13.79,4.98-6.81,9.85-13.7,14.53-20.72,5.89-7.83,11.11-16.12,16.96-23.99,4.88-6.71,9.35-13.71,14.05-20.53,5.76-7.73,11.24-15.63,16.43-23.75,4.43-6.02,8.32-12.41,12.73-18.45,1.32-1.85,2.41-3.88,3.38-5.94-18.42,2.7-37.2,5.63-55.8,2.92-9.43-1.52-19.03-3.85-27.12-9.16-6.98-4.6-13.07-10.59-17.87-17.42-4.59-7.37-8.77-15.09-11.31-23.44-2.55-8.55-4.38-17.31-6.72-25.91-3.51,4.56-4.03,10.55-6.42,15.68-3.16,6.89-4.99,14.27-7.89,21.28-5.79,16.48-11.69,32.92-17.27,49.45-8.73,22.94-15.81,46.46-24.54,69.38-1.26,3.58-1.87,7.47-4.24,10.53-1.55-13.9-1.92-27.9-3.05-41.84-1.79-18.4-2.9-36.84-4.43-55.26-.1-7.27-1.6-14.53-.95-21.82,3.46-4,8.29-6.53,12.26-9.98,6.67-5.57,14.52-9.91,20.14-16.65-4.65,1.45-8.77,4.11-13.07,6.33-10.43,5.47-20.62,11.48-31.39,16.37-.14,2.51-.24,5.01-.5,7.51-.78,6.13-.24,12.34-1.09,18.47-.47,9.19-.92,18.4-1.69,27.58.16,8.24-1.12,16.41-1.02,24.65-.5,7.8-.91,15.59-1.46,23.38-.14,3.75-.03,7.57-1.08,11.21-5.48-6.37-8.36-14.35-12.26-21.66-8.86-16.86-18.62-33.23-27.22-50.24-5.31-9.6-10.81-19.1-15.78-28.89v-24.2c7.98-4.46,16.26-8.39,24.62-12.05,14.89-6.62,29.52-13.71,44.26-20.6,17.47-8.99,36.09-15.53,53.23-25.18-.31-2.71-1.29-5.28-2.47-7.72-5.25-11.22-8.13-23.34-10.88-35.36-.32-1.04-.4-2.46-1.64-2.83-2.76-1.32-5.82-2.08-8.23-4.04-5.16-4.2-9.38-9.45-12.77-15.15-6.33-10.31-10.36-21.87-13.2-33.59-1.19-4.66-1.56-9.58-.81-14.35,1.55-6.15,4.97-11.96,10.09-15.8,2.54-2.18,5.72-4.24,6.47-7.73,1.68-6.96,1.15-14.16,1.46-21.24,1.05-12.26.51-24.58.71-36.88-.13-8.75.43-17.54-.72-26.25-.5-4.91-.12-9.87-.64-14.77-.72-6.65-.48-13.43.8-20,1.69-6.58,6.72-11.53,10.91-16.61,4.13-4.94,8.81-9.41,14.15-13,21.64-15.79,47.81-24.64,74.26-27.81,6.15-.12,12.25-.8,18.38-1.33h0ZM541.71,97.54h0c-16.15,4.16-32.13,10.46-45.11,21.14-4.36,3.39-4.06,9.4-4.87,14.32-.17,9.58-2.33,19.13-1.19,28.73.18,4.62,1.7,9.21.85,13.83-1.24,3.22-3.48,5.92-5.04,8.98-5.66,10.52-6.72,22.86-5.87,34.6,1.59,13.54,4.07,26.95,6.37,40.39-4.5,1.72-11.14,2.35-14.05-2.4-2.44-3.82-4.74-8.34-4.16-13.01,1.32-1.56,3.31-2.59,4.19-4.48-.1-2.56-1.08-4.98-1.82-7.41-1.05-3.18-1.72-6.52-3.39-9.46-3.36,1.55-6.4,4.14-7.85,7.61-1.56,3.58-1.02,7.64-.07,11.29,1.99,7.21,5.52,13.86,8.93,20.48,3.53,6.17,6.85,12.58,11.76,17.82,4.71,1.22,10.12-.07,14.39,2.74,2.71,2.02,3.49,5.57,4.23,8.69,2.67,14.7,5.9,29.91,14.7,42.33,4.46,6.62,9.99,12.39,15.37,18.26,1.06-.08,1.48-1.25,2.11-1.95,3.92-6.27,10.32-10.47,16.79-13.76.21,5.26-.91,10.47-.54,15.74-.04,13.49,4.64,26.59,11.48,38.07,3.28,5.28,5.89,11.39,11.24,14.92.41-10.99,1.29-22.28,5.86-32.45,1.56-3.35,2.05-7.34,4.83-10,.88,5.49,1.63,11.01,1.84,16.57.16,4.95,1.49,9.79,3.46,14.31,3.32,7.43,6.83,15.1,12.67,20.89,3.52-5.41,5.41-11.64,7.92-17.53,2.4-5.43,3.54-11.29,4.54-17.11.61-9.97.68-20.14-1.96-29.85-1.83-8.16-5.97-15.49-9.55-22.97-2.74.08-6.02-.59-8.05,1.74-7.05,5.99-9.08,15.32-12.87,23.33-4.92-4.82-6.57-12.08-6.88-18.75-.64-8.41,2.2-16.92,7.52-23.42,3.32-1.32,7.04-.53,10.53-.92,10.23-1.11,20.56-.48,30.82-1.05,3.38-.47,6.77-.55,10.16-.65-.17-2.54.84-5.61-1.02-7.71-1.42-1.72-3.52-3-5.79-2.93-11.48-.44-22.89.97-34.37,1.18-5.6.94-11.31.35-16.93.88-2.5,1.09-4.26,3.26-6.4,4.87-6.37,4.9-10.71,12-13.51,19.43-1.32,3.01-1.96,6.57-4.57,8.79-1.13-4.1-1.7-8.31-2.34-12.51-1.26-12.77,1.85-26.14,9.65-36.45,4.61-5.01,9.89-10.11,16.69-11.8-1.84,4.19-4.9,7.77-6.3,12.17-.98,3.12-1.42,6.41-1.28,9.68,1.52-.54,2.81-1.53,3.96-2.67,3.24-3.08,7.5-5.05,11.94-5.51,3.1.18,4.45,3.41,6.51,5.26,5.18-1.85,9.75-5.09,14.83-7.12,4.78.37,8.53,5.15,13.64,4.13,2.46-1.45,4.56-3.88,7.55-4.08,7.62.76,13.55,5.99,19.23,10.57-.37-8.83-4.94-17.79-12.77-22.24-3.96-2.26-8.26-4.55-12.97-4.15-4.07-.12-7.41,2.93-11.46,2.78-4.66.02-9.57.55-13.94-1.34-2.18-.84-3.86-2.54-5.79-3.78-5.05.2-10.85,3.89-15.45.3-2.4-2.37-5.28-4.94-5.78-8.46,5.78-4.2,12.5-7.15,19.61-7.97,6.06.12,11.88,3.12,17.98,2.05,2.37-.55,4.71-1.42,6.83-2.65.72-3.84-.84-7.67-.77-11.53-1.98-17.51-3.2-35.1-5.42-52.6-.28-4.68-1.39-9.32-1.02-14.04,5.59-2.51,10.57-6.11,15.79-9.24,10.77-6.79,22.55-12.05,35-14.89,5.52-1.19,11.21-.88,16.83-.74,2.04-5.38.88-11.14.38-16.68-1.12-7.66-2.84-15.45-6.84-22.17-1.16-2.06-2.98-3.71-5.12-4.72-5.95-2.88-12.52-4.06-18.89-5.46-8.63-1.5-17.26-3.44-26.04-3.56-23.74-2-47.75-.18-70.94,5.3h0ZM644.38,162.44h0c-5.08,1.83-10.19,4.04-14.12,7.85-4.41,4.26-9.41,8.43-11.38,14.49,1.8-.32,3.56-.88,5.17-1.81,6.47-3.45,13.25-7.09,20.81-7.03,7.11-1.07,14.32-.25,21.49-.72.14-2.46.24-4.93.17-7.39-6.67-3.72-14.35-7.42-22.14-5.39h0ZM619.43,199.19h0c1.01,15.3,6.5,29.84,11.99,44.02.95,1.83,3.35,1.95,5.05,2.8,4.5,1.66,8.72,4.28,11.87,7.95,6,7.05,10.81,15,16.12,22.58.75.96,1.66,1.78,2.58,2.58.03-5.01-.17-10.09.95-15.02.88-5.71,3.72-10.86,6.83-15.65,2.4-3.62,6.1-5.96,9.32-8.73,2.64-2.09,2.4-5.75,3.01-8.75,1.59-8.66-.27-17.76-4.51-25.41-8.43-.27-18.02,4.65-25.59-1.14,2.27-2.31,5.45-3.98,6.63-7.15.64-1.55-.61-2.93-1.18-4.26-1.12.26-2.68-.08-3.19,1.26-.91,1.06-1.48,2.93-3.11,3-5.48.37-11.04.56-16.5-.03-3.53-.55-5.95-4.28-9.57-4.02-3.76,1.61-7.11,4.02-10.7,5.99h0ZM626.97,332.61h0c.95,4.2,2.4,8.29,2.78,12.61,1.45,11.09-2.44,21.99-2,33.06-.21,6.38,2.23,12.95,6.94,17.33,1.9,1.91,4.13,3.7,6.93,3.94,1.33-13.83,7.59-26.91,6.81-40.99.24-6.6-2.95-12.93-7.79-17.3-3.74-4-8.37-7.2-13.69-8.65h0Z"/>
    <path class="st0" d="M533.47,155.66c2.44-1.16,5.19-.98,7.8-1,8.57,0,17.02,1.8,25.06,4.59,8.33,2.4,16.15,6.45,22.89,11.93-.04,5.35.17,10.73-.58,16.04-.42,3.62-.1,7.52-2.03,10.78-4.24,6.96-11.04,11.86-18.08,15.65-3.9,2.03-7.89,4.48-12.43,4.43,3.01-4.48,7.61-7.57,10.49-12.14,1.66-2.44,2.68-5.25,3.29-8.11-6.2,3.46-13.24,5.64-20.4,5.15-4.29-.19-7.53-4.13-11.97-3.21-.75,1.42-1.5,2.84-2.27,4.25-4.87-.19-9.68.63-14.53.62-.28-.28-.86-.85-1.15-1.14,1.32-2.14,3.72-3.13,5.62-4.64,4.91-4.04,9.52-8.47,14.67-12.23,8.73-5.42,19.33-2.82,28.88-4.56-.01-1.5-.03-3-.01-4.5-5.03-2.6-10.59-3.86-15.8-6.02-6.03-1.74-11.73-5.46-18.22-4.57-8.03,1.11-15.72,4.11-23.8,4.99,1.12-2.46,3.41-4.01,5.47-5.6,5.5-3.86,10.97-7.88,17.1-10.71h0Z"/>
    <path class="st1" d="M532.47,726.63h-22.76l-9.01-23.76h-41.85l-8.67,23.76h-22.35l40.51-104.35h22.32l41.81,104.35ZM493.83,685.23l-14.49-38.62-14.09,38.62h28.57ZM543.71,622.28h41.72c8.3,0,14.45.34,18.49,1.02,4.09.7,7.71,2.14,10.9,4.3,3.22,2.19,5.89,5.08,8.03,8.7,2.14,3.62,3.21,7.7,3.21,12.19,0,4.86-1.32,9.35-3.95,13.41-2.61,4.08-6.17,7.11-10.67,9.16,6.33,1.87,11.2,5.02,14.62,9.49,3.4,4.47,5.09,9.72,5.09,15.76,0,4.76-1.08,9.38-3.29,13.86-2.24,4.5-5.22,8.09-9.07,10.79-3.8,2.68-8.53,4.32-14.13,4.95-3.52.36-11.98.6-25.4.71h-35.54v-104.35h0ZM564.84,639.62v24.05h13.8c8.17,0,13.28-.12,15.27-.36,3.6-.42,6.44-1.65,8.51-3.72,2.06-2.06,3.08-4.76,3.08-8.12s-.91-5.83-2.68-7.84c-1.77-2.02-4.44-3.24-7.92-3.65-2.08-.24-8.09-.36-17.98-.36h-12.09ZM564.84,681.01v27.97h19.53c7.58,0,12.4-.22,14.46-.64,3.12-.58,5.67-1.96,7.63-4.18,1.99-2.23,2.98-5.18,2.98-8.89,0-3.16-.75-5.8-2.28-7.99-1.52-2.18-3.72-3.79-6.59-4.78-2.86-.99-9.11-1.5-18.69-1.5h-17.03ZM742.94,726.63h-22.75l-9.01-23.76h-41.85l-8.67,23.76h-22.35l40.52-104.35h22.32l41.79,104.35h0ZM704.33,685.23l-14.51-38.62-14.09,38.62h28.6ZM753.47,726.63v-104.35h21.13v104.35h-21.13Z"/>
    <path class="st1" d="M327.21,784.5v-10.37h20.11v-4.87h-25.83v38.8h16.18c3.76,0,6.94-1.1,9.47-3.38,2.58-2.28,3.87-5.05,3.87-8.43s-1.29-6.04-3.87-8.31c-2.6-2.28-5.71-3.44-9.47-3.44h-10.46ZM327.21,803.23v-13.92h10.46c2.14,0,3.93.67,5.41,2,1.53,1.33,2.28,3,2.28,4.93s-.74,3.66-2.28,4.99c-1.48,1.33-3.28,2-5.41,2h-10.46ZM400.74,808.06v-38.8h-4.63l-22.14,28.99v-28.99h-5.72v38.8h4.6l22.17-28.93v28.93h5.72ZM441.45,787.99c3.66-1.95,5.44-4.78,5.44-8.49,0-3.16-1.31-5.82-3.88-7.88-2.52-2.05-5.91-3.1-10.03-3.1-6.97,0-11.76,2.66-14.35,8.04l4.81,2.5c1.59-3.84,4.8-5.72,9.55-5.72,5.15,0,8.23,2.56,8.23,6.26s-3.39,6.33-8.6,6.33h-3.64v4.72h5.05c5.46,0,8.73,2.66,8.73,6.65s-3.45,6.59-9.41,6.59-9.17-2.16-10.46-6.54l-4.87,2.5c2.03,5.27,7.01,8.93,15.33,8.93,4.54,0,8.17-1.05,10.94-3.16,2.78-2.12,4.19-4.83,4.19-8.15,0-4.44-2.6-7.76-7.04-9.48h0ZM492.65,785.72h-20.9v-16.46h-5.72v38.8h5.72v-17.46h20.9v17.46h5.68v-38.8h-5.68v16.46ZM524.04,790.87h18.15v-4.82h-18.15v-11.92h19.7v-4.87h-25.42v38.8h25.73v-4.87h-20.01v-12.31h0ZM581.64,808.78c3.93,0,7.57-.83,10.9-2.55,3.32-1.72,5.89-4.05,7.69-6.93l-4.98-2.55c-2.47,4.21-7.69,6.99-13.61,6.99-4.98,0-9.04-1.44-12.19-4.33-3.12-2.89-4.67-6.48-4.67-10.75s1.55-7.93,4.67-10.81c3.15-2.89,7.22-4.33,12.19-4.33,5.91,0,11.14,2.78,13.61,7.05l4.98-2.61c-3.69-5.77-10.71-9.42-18.59-9.42-6.51,0-11.93,1.94-16.19,5.82-4.24,3.88-6.33,8.65-6.33,14.31s2.1,10.42,6.33,14.31c4.26,3.88,9.67,5.82,16.19,5.82h0ZM638.86,793.37v-4.66h-22.44v4.66h22.44ZM690.12,769.25h-5.72v33.93h-19.81v-33.93h-5.72v38.8h30.14v7.43h5.72v-12.31h-4.61v-33.93h0ZM717.81,790.87h18.15v-4.82h-18.15v-11.92h19.68v-4.87h-25.4v38.8h25.71v-4.87h-19.98v-12.31ZM782.11,785.72h-20.92v-16.46h-5.72v38.8h5.72v-17.46h20.92v17.46h5.66v-38.8h-5.66v16.46ZM804.27,769.25v4.87h12.67v33.93h5.65v-33.93h12.75v-4.87h-31.07ZM851.77,769.25v38.8h5.72v-13.86h9.89c4.02,0,7.28-1.22,9.92-3.6,2.64-2.38,4-5.38,4-8.87s-1.36-6.49-4-8.87c-2.64-2.38-5.9-3.6-9.92-3.6h-15.61ZM857.49,789.37v-15.31h9.89c4.74,0,8.27,3.22,8.27,7.66,0,2.16-.81,3.99-2.34,5.49-1.55,1.44-3.52,2.16-5.92,2.16h-9.89Z"/>
  </g>
</svg>