<?xml version="1.0" encoding="UTF-8"?>
<!DOCTYPE svg PUBLIC "-//W3C//DTD SVG 1.1//EN" "http://www.w3.org/Graphics/SVG/1.1/DTD/svg11.dtd">
<!-- Creator: CorelDRAW -->
<svg xmlns="http://www.w3.org/2000/svg" xml:space="preserve" width="160.867mm" height="54.1866mm" version="1.1" style="shape-rendering:geometricPrecision; text-rendering:geometricPrecision; image-rendering:optimizeQuality; fill-rule:evenodd; clip-rule:evenodd"
viewBox="0 0 16086.66 5418.66"
 xmlns:xlink="http://www.w3.org/1999/xlink"
 xmlns:xodm="http://www.corel.com/coreldraw/odm/2003">
 <defs>
  <style type="text/css">
   <![CDATA[
    .fil0 {fill:#ED3237}
    .fil1 {fill:#373435;fill-rule:nonzero}
   ]]>
  </style>
 </defs>
 <g id="Слой_x0020_1">
  <metadata id="CorelCorpID_0Corel-Layer"/>
  <g id="_1624893270592">
   <path class="fil0" d="M2005.5 1088.9c767.4,0 1418.46,497.78 1648.12,1188.03l-344.86 0c-224.74,-611.52 -812.32,-1047.78 -1501.8,-1047.78 -411.87,0 -787.34,155.72 -1070.86,411.43 316.96,-339.42 768.36,-551.68 1269.4,-551.68zm1619.37 2364.99c-251.81,648.5 -881.86,1108.26 -1619.37,1108.26 -481.6,0 -917.37,-196.07 -1231.95,-512.71 278.76,236.23 639.41,378.76 1033.41,378.76 661.54,0 1229.25,-401.61 1472.69,-974.31l345.22 0z"/>
   <path class="fil0" d="M1954.44 1824.22c171.16,98.81 342.19,197.78 513.19,296.61l0 646.25 141.5 -81.7 294.33 169.94 0 598.57 138.65 0c-101.19,200.06 -249.9,373.61 -433,504.29l0 -1083.88 -244.88 142.26 0 1081.05c-125.48,55.28 -261.36,92.71 -404.83,108.77l-6.53 0.71 0 -2200.89 -244.87 142.26 0 2063.32c-112.65,-7.8 -222.18,-29.3 -326.71,-62.97l0 -1480.66 -244.88 142.26 0 1232.44c-379.99,-209.95 -655.78,-594.8 -707.73,-1059.07 -85.08,-760.32 462.29,-1445.64 1222.6,-1530.72 614.68,-68.79 1180.29,275.85 1419.39,812.14 -231.42,-425.79 -704.39,-691.34 -1215.68,-634.12 -673.88,75.41 -1159.02,682.81 -1083.61,1356.68 22.44,200.57 92.04,384.38 196.46,541.69l-0.27 -825.85 411.64 -237.68 146.93 84.84 0.02 -41.91 0 -436.98 428.28 -247.65z"/>
  </g>
  <path class="fil1" d="M5405.79 2983.37l0 -351.27 -391.66 0c-151.41,0 -282.62,0 -343.19,-111.03 -12.13,-24.23 -34.34,-76.73 -34.34,-234.21 0,-68.63 6.07,-183.7 46.44,-254.33 62.59,-113.06 173.64,-111.05 323,-111.05l377.53 0 0 -351.26 -597.56 0c-159.47,0 -365.41,18.17 -494.62,183.73 -100.93,127.17 -123.11,304.82 -123.11,541.01 0,270.5 44.39,409.8 129.19,514.77 115.07,143.37 262.42,173.64 482.5,173.64l625.82 0zm1141.28 0l0 -1061.89 504.68 0 0 -351.26 -1465.65 0 0 351.26 504.73 0 0 1061.89 456.24 0zm382.24 0l480.45 0 111.05 -290.71 508.73 0 111.05 290.71 480.44 0 -522.87 -1257.71c-66.61,-157.47 -187.72,-171.6 -322.98,-171.6 -218.03,0 -278.6,66.62 -323,171.6l-522.87 1257.71zm827.71 -971.05c4.03,-10.09 12.11,-30.27 18.16,-30.27 6.07,0 14.13,20.18 18.15,30.27l127.19 357.34 -290.68 0 127.18 -357.34zm2489.81 -442.1l-456.21 0 0 500.65 -512.77 0 0 -500.65 -456.26 0 0 1413.15 456.26 0 0 -561.24 512.77 0 0 561.24 456.21 0 0 -1413.15zm1880.16 1413.15l0 -1080.08c0,-115.07 -12.11,-349.23 -335.11,-349.23 -82.75,0 -216.01,8.1 -304.83,165.53l-389.61 680.34c-18.19,32.3 -28.25,50.45 -40.37,50.45 -24.23,0 -24.23,-30.27 -24.23,-48.45 0,-8.04 0,-14.11 0,-22.17l20.17 -809.54 -464.3 0 0 1090.15c0,169.57 36.34,339.13 314.93,339.13 195.82,0 266.46,-76.7 304.81,-143.33l401.76 -686.38c28.25,-46.42 40.37,-68.63 52.48,-68.63 20.19,0 20.19,26.23 20.19,52.47l-20.19 829.74 464.3 0zm1960.94 0l0 -351.27 -189.77 0 0 -1061.88 -456.24 0 0 1061.88 -405.78 0c-16.15,0 -70.65,0 -92.86,-24.23 -20.2,-22.21 -18.16,-74.68 -18.16,-107.01l0 -930.64 -456.25 0 0 1154.74c0,64.6 8.09,147.34 72.69,205.91 62.55,56.5 129.2,52.5 201.85,52.5l1344.52 0zm79.42 0l480.46 0 111.03 -290.71 508.75 0 111.03 290.71 480.45 0 -522.85 -1257.71c-66.63,-157.47 -187.74,-171.6 -323,-171.6 -218.04,0 -278.61,66.62 -323,171.6l-522.87 1257.71zm827.7 -971.05c4.04,-10.09 12.13,-30.27 18.17,-30.27 6.07,0 14.12,20.18 18.14,30.27l127.2 357.34 -290.68 0 127.17 -357.34z"/>
  <path class="fil1" d="M5692.55 3678.71l377.77 0 0 76.02 -281.46 0 0 82.37 186.22 0c32.41,0 58.42,3.65 77.84,11.03 19.54,7.25 33.93,20.09 43.3,38.37 9.39,18.37 14.05,43.81 14.05,76.39 0,30.27 -4.84,53.96 -14.44,71.24 -9.55,17.32 -24.03,29.51 -43.49,36.56 -19.42,7.07 -44.97,10.63 -76.67,10.63l-283.12 0 0 -402.61zm96.31 234.37l0 92.26 166.6 0c17.1,0 29.79,-1.44 38,-4.26 8.32,-2.8 13.73,-7.45 16.44,-13.92 2.7,-6.38 4.05,-15.98 4.05,-28.71 0,-11.51 -1.17,-20.42 -3.57,-26.6 -2.41,-6.21 -7.55,-10.83 -15.48,-14 -7.9,-3.22 -19.91,-4.77 -36.05,-4.77l-169.99 0zm1224.12 168.24l0 -402.61 -161.85 0 -245.42 322.58 -13.34 0 0 -322.58 -96.28 0 0 402.61 165.43 0 241.83 -322.45 13.34 0 0 322.45 96.29 0zm509.88 0c-33.95,0 -60.83,-4.04 -80.54,-12.15 -19.72,-8.12 -33.85,-20.51 -42.35,-37.25 -8.51,-16.72 -12.75,-38.29 -12.75,-64.89l98.59 0c0,10.16 4.58,19.07 13.83,26.78 9.3,7.66 20.51,11.53 33.77,11.53l161.26 0c21.46,0 37.22,-3.59 47.38,-10.64 10.15,-7.06 15.27,-18.57 15.27,-34.52 0,-10.54 -1.74,-19.06 -5.12,-25.71 -3.39,-6.68 -9.94,-11.81 -19.71,-15.37 -9.67,-3.58 -23.29,-5.41 -40.83,-5.41l-176.83 0 0 -70.24 187.96 0c30.94,0 46.41,-15.63 46.41,-46.98 0,-27.83 -15.47,-41.74 -46.41,-41.74l-161.94 0c-19.06,0 -31.7,2.87 -38.11,8.6 -6.28,5.8 -10.03,15.49 -11.13,29.01l-96.37 0c0,-26.14 4.73,-47.49 14.19,-64.23 9.51,-16.71 24.29,-29.09 44.59,-37.19 20.19,-8.12 46.5,-12.21 78.81,-12.21l163.59 0c35.77,0 64.38,3.79 85.84,11.42 21.47,7.53 37.26,19.63 47.11,36.16 9.95,16.55 15.36,38.58 16.14,66.14 -0.96,24.26 -5.89,42.72 -14.69,55.48 -8.81,12.79 -21.86,22.64 -39.26,29.71 19.93,7.24 35.19,17.09 45.71,29.87 10.56,12.64 15.79,29.9 15.79,51.44 0,28.53 -4.75,51.82 -14.13,69.79 -9.38,18.12 -23.99,31.33 -43.88,39.83 -19.84,8.51 -45.76,12.77 -77.64,12.77l-194.55 0zm704.42 0l0 -402.61 96.29 0 0 154.34 248.28 0 0 -154.34 96.88 0 0 402.61 -96.88 0 0 -168.24 -248.28 0 0 168.24 -96.29 0zm823.23 0l0 -402.61 411.43 0 0 76.02 -315.12 0 0 88.17 305.13 0 0 70.18 -305.13 0 0 92.26 315.12 0 0 75.98 -411.43 0zm1112.81 -0.57l-179.33 0c-37.52,0 -66.82,-4.35 -87.99,-13.08 -21.19,-8.77 -36.28,-23.36 -45.28,-43.87 -8.98,-20.51 -13.51,-48.91 -13.51,-85.28l0 -114.31c0.48,-39.25 5.4,-69.31 14.99,-90.19 9.47,-20.99 25.13,-35.57 47.08,-43.89 22.03,-8.42 53.36,-12.56 93.96,-12.56l158.39 0c34.51,0 63.04,3.87 85.58,11.5 22.61,7.74 40.1,21.75 52.48,41.96 12.48,20.22 18.67,48.43 18.67,84.59l-99.88 0c0,-21.06 -5.59,-36.07 -16.92,-44.85 -11.31,-8.79 -30.06,-13.17 -56.16,-13.17l-123.58 0c-22.81,0 -39.55,1.59 -50.17,4.67 -10.64,2.99 -18.01,9.39 -22.06,18.95 -4.07,9.66 -6.07,25.2 -6.07,46.6l0 99.79c0,20 2.59,35.37 7.8,45.93 5.15,10.51 13.26,17.66 24.09,21.46 10.91,3.76 26.21,5.68 45.84,5.68l123.55 0c19.24,0 34.05,-1.54 44.39,-4.53 10.35,-2.99 17.9,-8.78 22.72,-17.28 4.73,-8.42 7.16,-20.9 7.16,-37.34l99.87 0c-0.19,36.95 -4.24,65.26 -12.09,84.89 -7.94,19.71 -22.12,33.63 -42.74,41.96 -20.6,8.2 -50.84,12.37 -90.79,12.37zm525.45 -227.99l236.69 0 0 80.04 -236.69 0 0 -80.04zm616.84 228.56l0 -402.61 96.28 0 248.3 0 96.88 0 0 402.61 -96.28 0 0 -322.53 -248.9 0 0 322.53 -96.28 0zm900.86 0l-112.45 0 213.48 -402.61 142.73 0 211.74 402.61 -113.11 0 -51.74 -101.51 -238.35 0 -52.3 101.51zm91.09 -177.49l160.79 0 -76.69 -149.69 -4.53 0 -79.57 149.69zm707.83 177.49l0 -402.61 274.47 0c25.91,0 47.76,2.6 65.39,7.83 17.67,5.14 32.09,13.27 43.3,24.38 11.21,11.02 19.42,25.43 24.74,43.22 5.32,17.78 8.03,39.62 8.03,65.63 -0.18,33.94 -5.01,61.41 -14.7,82.41 -9.55,20.88 -24.65,36.16 -45.24,45.8 -20.5,9.59 -47.37,14.44 -80.44,14.44l-179.27 0 0 118.9 -96.28 0zm96.28 -198.99l160.78 0c15.96,0 28.45,-2.09 37.64,-6.46 9.16,-4.36 15.66,-11.03 19.33,-20.12 3.76,-8.97 5.59,-20.97 5.59,-36.07 0,-21.15 -4.41,-36.54 -13.32,-46.31 -8.81,-9.74 -25.25,-14.58 -49.24,-14.58l-160.78 0 0 123.54zm685.19 198.99l0 -402.61 95.71 0 0 150.27 56.74 0 175.88 -150.27 144.48 0 -237.3 188.64 246.67 213.97 -141.66 0 -186.11 -172.31 -58.7 0 0 172.31 -95.71 0z"/>
 </g>
</svg>
