<?xml version="1.0" encoding="UTF-8"?>
<svg id="_Слой_1" xmlns="http://www.w3.org/2000/svg" version="1.1" viewBox="0 0 1461.95 1149.14">
  <!-- Generator: Adobe Illustrator 29.4.0, SVG Export Plug-In . SVG Version: 2.1.0 Build 152)  -->
  <defs>
    <style>
      .st0 {
        stroke: #d14a4a;
        stroke-miterlimit: 10;
        stroke-width: 2.8px;
      }

      .st0, .st1 {
        fill: #fff;
      }

      .st0, .st1, .st2 {
        fill-rule: evenodd;
      }

      .st3 {
        fill: #7fba27;
      }

      .st4 {
        fill: #f3f3ef;
      }

      .st2 {
        fill: #d14a4a;
      }

      .st5 {
        display: none;
      }
    </style>
  </defs>
  <polygon id="main-0-floor" class="st0" points="17.38 693.61 1444.57 693.61 1444.57 492.96 17.38 492.96 17.38 693.61"/>
  <polygon id="open-space-1" class="st0" points="17.38 576.09 97.83 576.09 97.83 492.96 17.38 492.96 17.38 576.09"/>
  <polygon id="open-space-11" class="st0" points="97.83 576.09 173.98 576.09 173.98 492.96 97.83 492.96 97.83 576.09"/>
  <polygon id="open-space-12" class="st0" points="173.98 576.09 250.14 576.09 250.14 492.96 173.98 492.96 173.98 576.09"/>
  <polygon id="open-space-13" class="st0" points="250.14 576.09 406.07 576.09 406.07 492.96 250.14 492.96 250.14 576.09"/>
  <polygon id="open-space-14" class="st0" points="406.07 576.09 562.72 576.09 562.72 492.96 406.07 492.96 406.07 576.09"/>
  <polygon id="open-space-15" class="st0" points="578.09 576.09 808.93 576.09 808.93 492.96 578.09 492.96 578.09 576.09"/>
  <polygon id="_x30_18" class="st0" points="808.93 693.61 887.11 693.61 887.11 610.48 808.93 610.48 808.93 693.61"/>
  <polygon id="_x30_181" class="st0" points="887.11 693.61 1120.36 693.61 1120.36 610.48 887.11 610.48 887.11 693.61"/>
  <polygon id="_x30_182" class="st0" points="1132.71 693.61 1286.01 693.61 1286.01 610.48 1132.71 610.48 1132.71 693.61"/>
  <polygon id="_x30_183" class="st0" points="1286.01 693.61 1444.69 693.61 1444.69 610.48 1286.01 610.48 1286.01 693.61"/>
  <polygon id="_x30_184" class="st0" points="654.63 693.61 808.93 693.61 808.93 610.48 654.63 610.48 654.63 693.61"/>
  <polygon id="_x30_185" class="st0" points="578.09 693.61 654.63 693.61 654.63 610.48 578.09 610.48 578.09 693.61"/>
  <polygon id="_x30_186" class="st0" points="405.39 693.61 562.72 693.61 562.72 610.48 405.39 610.48 405.39 693.61"/>
  <polygon id="_x30_187" class="st0" points="251.76 693.61 405.39 693.61 405.39 610.48 251.76 610.48 251.76 693.61"/>
  <polygon id="_x30_188" class="st0" points="92.77 693.61 251.56 693.61 251.56 610.48 92.77 610.48 92.77 693.61"/>
  <polygon id="_x30_09" class="st0" points="1132.71 576.09 1366.98 576.09 1366.98 492.96 1132.71 492.96 1132.71 576.09"/>
  <polygon id="_x30_13" class="st0" points="886.55 576.14 1041.23 576.14 1041.23 493.01 886.55 493.01 886.55 576.14"/>
  <polygon id="_x30_131" class="st0" points="1041.23 576.14 1120.36 576.14 1120.36 493.01 1041.23 493.01 1041.23 576.14"/>
  <polygon id="open-space-16" class="st0" points="17.38 656.77 69.62 656.77 69.62 610.48 17.38 610.48 17.38 656.77"/>
  <polygon id="open-space-17" class="st0" points="1391.92 576.09 1444.15 576.09 1444.15 529.8 1391.92 529.8 1391.92 576.09"/>
  <g id="icons">
    <g id="toilet-icon">
      <path class="st2" d="M52.21,523.37h14.5c2.2,0,3.9,1.9,3.9,4.1v14.1c0,2.3-1.8,4.1-3.9,4.1h-14.5c-2.2,0-3.9-1.9-3.9-4.1v-14.1c0-2.3,1.8-4.1,3.9-4.1Z"/>
      <path class="st4" d="M55.91,529.67h-3.3c-.8,0-1.4.6-1.4,1.4v4.6c0,.3.2.6.6.6h0c.3,0,.6-.3.6-.6v-4.6h0v10.5c0,.4.3.7.7.7s.7-.3.7-.7v-6h.3v6c0,.4.3.7.7.7s.7-.3.7-.7v-10.5h0v4.6c0,.3.3.6.6.6h0c.3,0,.6-.3.6-.6v-4.6h0c0-.8-.6-1.4-1.4-1.4h.6Z"/>
      <circle class="st4" cx="54.21" cy="528.07" r="1.2"/>
      <path class="st4" d="M68.01,534.77s-1.1-3.2-1.3-3.8c-.3-.8-.7-1.2-1.4-1.2h-2.2c-.6,0-1.1.4-1.4,1.2-.2.5-1.3,3.7-1.3,3.8,0,.3,0,.7.4.8.3,0,.7,0,.8-.4,0,0,.7-2,1.1-3.1,0,.3,0-.3-.9,4.6,0,.2,0,.4.3.4h.5v4.4c0,.4.3.7.7.7s.7-.3.7-.7v-4.4h.3v4.4c0,.4.3.7.7.7s.7-.3.7-.7v-4.4h.5c.2,0,.4-.2.3-.4-.9-4.9-.8-4.3-.8-4.6.4,1.1,1,3,1,3.1,0,.3.5.5.8.4s.5-.4.4-.8h.1Z"/>
      <circle class="st4" cx="64.12" cy="528.13" r="1.2" transform="translate(-467.77 539.22) rotate(-84.27)"/>
      <path class="st4" d="M59.01,527.57c-.3,0-.5.2-.5.5v13c0,.3.2.5.5.5s.5-.2.5-.5v-13c0-.3-.2-.5-.5-.5Z"/>
    </g>
    <g id="toilet-icon1">
      <path class="st2" d="M1073.54,523.37h14.5c2.2,0,3.9,1.9,3.9,4.1v14.1c0,2.3-1.8,4.1-3.9,4.1h-14.5c-2.2,0-3.9-1.9-3.9-4.1v-14.1c0-2.3,1.8-4.1,3.9-4.1Z"/>
      <path class="st4" d="M1077.24,529.67h-3.3c-.8,0-1.4.6-1.4,1.4v4.6c0,.3.2.6.6.6h0c.3,0,.6-.3.6-.6v-4.6h0v10.5c0,.4.3.7.7.7s.7-.3.7-.7v-6h.3v6c0,.4.3.7.7.7s.7-.3.7-.7v-10.5h0v4.6c0,.3.3.6.6.6h0c.3,0,.6-.3.6-.6v-4.6h0c0-.8-.6-1.4-1.4-1.4h.6Z"/>
      <circle class="st4" cx="1075.54" cy="528.07" r="1.2"/>
      <path class="st4" d="M1089.34,534.77s-1.1-3.2-1.3-3.8c-.3-.8-.7-1.2-1.4-1.2h-2.2c-.6,0-1.1.4-1.4,1.2-.2.5-1.3,3.7-1.3,3.8,0,.3,0,.7.4.8.3,0,.7,0,.8-.4,0,0,.7-2,1.1-3.1,0,.3,0-.3-.9,4.6,0,.2,0,.4.3.4h.5v4.4c0,.4.3.7.7.7s.7-.3.7-.7v-4.4h.3v4.4c0,.4.3.7.7.7s.7-.3.7-.7v-4.4h.5c.2,0,.4-.2.3-.4-.9-4.9-.8-4.3-.8-4.6.4,1.1,1,3,1,3.1,0,.3.5.5.8.4s.5-.4.4-.8h.1Z"/>
      <circle class="st4" cx="1085.44" cy="528.07" r="1.2"/>
      <path class="st4" d="M1080.34,527.57c-.3,0-.5.2-.5.5v13c0,.3.2.5.5.5s.5-.2.5-.5v-13c0-.3-.2-.5-.5-.5Z"/>
    </g>
    <g id="stairs-icon_29">
      <path class="st2" d="M840.77,522.92h14.5c2.2,0,3.9,1.9,3.9,4.1v14.1c0,2.3-1.8,4.1-3.9,4.1h-14.5c-2.2,0-3.9-1.9-3.9-4.1v-14.1c0-2.3,1.8-4.1,3.9-4.1Z"/>
      <polygon class="st4" points="854.57 535.52 854.57 534.52 853.47 534.52 850.97 534.52 849.87 535.52 852.87 535.52 850.47 537.92 851.17 538.72 853.47 536.32 853.47 539.22 854.57 538.02 854.57 535.52"/>
      <polygon class="st4" points="844.07 537.52 846.87 537.52 846.87 534.72 849.67 534.72 849.67 531.72 852.67 531.72 852.67 528.92 855.47 528.92 855.47 527.82 851.47 527.82 851.47 530.62 848.47 530.62 848.47 533.72 845.67 533.72 845.67 536.42 842.97 536.42 842.97 539.22 840.57 539.22 840.57 540.32 844.07 540.32 844.07 537.52"/>
    </g>
    <g id="stairs-icon_291">
      <path class="st2" d="M1399.64,499.01h14.5c2.2,0,3.9,1.9,3.9,4.1v14.1c0,2.3-1.8,4.1-3.9,4.1h-14.5c-2.2,0-3.9-1.9-3.9-4.1v-14.1c0-2.3,1.8-4.1,3.9-4.1Z"/>
      <polygon class="st4" points="1413.44 511.61 1413.44 510.61 1412.34 510.61 1409.84 510.61 1408.74 511.61 1411.74 511.61 1409.34 514.01 1410.04 514.81 1412.34 512.41 1412.34 515.31 1413.44 514.11 1413.44 511.61"/>
      <polygon class="st4" points="1402.94 513.61 1405.74 513.61 1405.74 510.81 1408.54 510.81 1408.54 507.81 1411.54 507.81 1411.54 505.01 1414.34 505.01 1414.34 503.91 1410.34 503.91 1410.34 506.71 1407.34 506.71 1407.34 509.81 1404.54 509.81 1404.54 512.51 1401.84 512.51 1401.84 515.31 1399.44 515.31 1399.44 516.41 1402.94 516.41 1402.94 513.61"/>
    </g>
    <g id="stairs-icon_292">
      <path class="st2" d="M50.36,665.56h14.5c2.2,0,3.9,1.9,3.9,4.1v14.1c0,2.3-1.8,4.1-3.9,4.1h-14.5c-2.2,0-3.9-1.9-3.9-4.1v-14.1c0-2.3,1.8-4.1,3.9-4.1Z"/>
      <polygon class="st4" points="64.16 678.16 64.16 677.16 63.06 677.16 60.56 677.16 59.46 678.16 62.46 678.16 60.06 680.56 60.76 681.36 63.06 678.96 63.06 681.86 64.16 680.66 64.16 678.16"/>
      <polygon class="st4" points="53.66 680.16 56.46 680.16 56.46 677.36 59.26 677.36 59.26 674.36 62.26 674.36 62.26 671.56 65.06 671.56 65.06 670.46 61.06 670.46 61.06 673.26 58.06 673.26 58.06 676.36 55.26 676.36 55.26 679.06 52.56 679.06 52.56 681.86 50.16 681.86 50.16 682.96 53.66 682.96 53.66 680.16"/>
    </g>
  </g>
  <g id="doors1">
    <path id="path13301" class="st1" d="M1314.75,610.16h22.5v-1.1h-22.5v1.1ZM1314.75,610.16v-3.9h-2v3.9h2ZM1337.25,610.16h2v-3.9h-2v3.9ZM1337.25,610.16v11.3h-2v-11.3h2ZM1314.75,610.16v11.3h2v-11.3h-2Z"/>
    <path id="path13302" class="st1" d="M1158.42,610.16h22.5v-1.1h-22.5v1.1ZM1158.42,610.16v-3.9h-2v3.9h2ZM1180.92,610.16h2v-3.9h-2v3.9ZM1180.92,610.16v11.3h-2v-11.3h2ZM1158.42,610.16v11.3h2v-11.3h-2Z"/>
    <path id="path13303" class="st1" d="M758.08,610.09h22.5v-1.1h-22.5v1.1ZM758.08,610.09v-3.9h-2v3.9h2ZM780.58,610.09h2v-3.9h-2v3.9ZM780.58,610.09v11.3h-2v-11.3h2ZM758.08,610.09v11.3h2v-11.3h-2Z"/>
    <path id="path13304" class="st1" d="M834.54,610.09h22.5v-1.1h-22.5v1.1ZM834.54,610.09v-3.9h-2v3.9h2ZM857.04,610.09h2v-3.9h-2v3.9ZM857.04,610.09v11.3h-2v-11.3h2ZM834.54,610.09v11.3h2v-11.3h-2Z"/>
    <path id="path13305" class="st1" d="M989.22,610.09h22.5v-1.1h-22.5v1.1ZM989.22,610.09v-3.9h-2v3.9h2ZM1011.72,610.09h2v-3.9h-2v3.9ZM1011.72,610.09v11.3h-2v-11.3h2ZM989.22,610.09v11.3h2v-11.3h-2Z"/>
    <path id="path13306" class="st1" d="M1416.04,576.55h-22.5v1.1h22.5v-1.1ZM1416.04,576.55v3.9h2v-3.9h-2ZM1393.54,576.55h-2v3.9h2v-3.9ZM1393.54,576.55v-11.3h2v11.3h-2ZM1416.04,576.55v-11.3h-2v11.3h2Z"/>
    <path id="path13307" class="st1" d="M603.57,610.17h22.5v-1.1h-22.5v1.1ZM603.57,610.17v-3.9h-2v3.9h2ZM626.07,610.17h2v-3.9h-2v3.9ZM626.07,610.17v11.3h-2v-11.3h2ZM603.57,610.17v11.3h2v-11.3h-2Z"/>
    <path id="path13308" class="st1" d="M432.38,610.17h22.5v-1.1h-22.5v1.1ZM432.38,610.17v-3.9h-2v3.9h2ZM454.88,610.17h2v-3.9h-2v3.9ZM454.88,610.17v11.3h-2v-11.3h2ZM432.38,610.17v11.3h2v-11.3h-2Z"/>
    <path id="path13309" class="st1" d="M262.31,610.17h22.5v-1.1h-22.5v1.1ZM262.31,610.17v-3.9h-2v3.9h2ZM284.81,610.17h2v-3.9h-2v3.9ZM284.81,610.17v11.3h-2v-11.3h2ZM262.31,610.17v11.3h2v-11.3h-2Z"/>
    <path id="path133010" class="st1" d="M123.27,610.17h22.5v-1.1h-22.5s0,1.1,0,1.1ZM123.27,610.17v-3.9h-2v3.9h2ZM145.77,610.17h2v-3.9h-2v3.9ZM145.77,610.17v11.3h-2v-11.3h2ZM123.27,610.17v11.3h2v-11.3h-2Z"/>
    <path id="path133011" class="st1" d="M42.96,610.17h22.5v-1.1h-22.5v1.1ZM42.96,610.17v-3.9h-2v3.9h2ZM65.46,610.17h2v-3.9h-2v3.9ZM65.46,610.17v11.3h-2v-11.3h2ZM42.96,610.17v11.3h2v-11.3h-2Z"/>
    <path id="path133012" class="st1" d="M65.73,576.54h-22.5v1.1h22.5v-1.1ZM65.73,576.54v3.9h2v-3.9h-2ZM43.23,576.54h-2v3.9h2v-3.9ZM43.23,576.54v-11.3h2v11.3h-2ZM65.73,576.54v-11.3h-2v11.3h2Z"/>
    <path id="path133013" class="st1" d="M145.77,576.54h-22.5v1.1h22.5v-1.1ZM145.77,576.54v3.9h2v-3.9h-2ZM123.27,576.54h-2v3.9h2v-3.9ZM123.27,576.54v-11.3h2v11.3h-2ZM145.77,576.54v-11.3h-2v11.3h2Z"/>
    <path id="path133014" class="st1" d="M223.31,576.54h-22.5v1.1h22.5v-1.1ZM223.31,576.54v3.9h2v-3.9h-2ZM200.81,576.54h-2v3.9h2v-3.9ZM200.81,576.54v-11.3h2v11.3h-2ZM223.31,576.54v-11.3h-2v11.3h2Z"/>
    <path id="path133015" class="st1" d="M284.81,576.54h-22.5v1.1h22.5v-1.1ZM284.81,576.54v3.9h2v-3.9h-2ZM262.31,576.54h-2v3.9h2v-3.9ZM262.31,576.54v-11.3h2v11.3h-2ZM284.81,576.54v-11.3h-2v11.3h2Z"/>
    <path id="path133016" class="st1" d="M454.88,576.54h-22.5v1.1h22.5v-1.1ZM454.88,576.54v3.9h2v-3.9h-2ZM432.38,576.54h-2v3.9h2v-3.9ZM432.38,576.54v-11.3h2v11.3h-2ZM454.88,576.54v-11.3h-2v11.3h2Z"/>
    <path id="path133017" class="st1" d="M626.06,576.54h-22.5v1.1h22.5v-1.1ZM626.06,576.54v3.9h2v-3.9h-2ZM603.56,576.54h-2v3.9h2v-3.9ZM603.56,576.54v-11.3h2v11.3h-2ZM626.06,576.54v-11.3h-2v11.3h2Z"/>
    <path id="path133018" class="st1" d="M1011.72,576.54h-22.5v1.1h22.5v-1.1ZM1011.72,576.54v3.9h2v-3.9h-2ZM989.22,576.54h-2v3.9h2v-3.9ZM989.22,576.54v-11.3h2v11.3h-2ZM1011.72,576.54v-11.3h-2v11.3h2Z"/>
    <path id="path133019" class="st1" d="M1090.76,576.54h-22.5v1.1h22.5v-1.1ZM1090.76,576.54v3.9h2v-3.9h-2ZM1068.26,576.54h-2v3.9h2v-3.9ZM1068.26,576.54v-11.3h2v11.3h-2ZM1090.76,576.54v-11.3h-2v11.3h2Z"/>
    <path id="path133020" class="st1" d="M1180.92,576.54h-22.5v1.1h22.5v-1.1ZM1180.92,576.54v3.9h2v-3.9h-2ZM1158.42,576.54h-2v3.9h2v-3.9ZM1158.42,576.54v-11.3h2v11.3h-2ZM1180.92,576.54v-11.3h-2v11.3h2Z"/>
  </g>
  <g id="points" class="st5">
    <circle id="p-11" class="st3" cx="614.82" cy="593.09" r="6.6"/>
    <circle id="p-12" class="st3" cx="614.82" cy="612.07" r="6.6"/>
    <circle id="p-13" class="st3" cx="614.82" cy="576.19" r="6.6"/>
    <circle id="p-14" class="st3" cx="769.2" cy="612.07" r="6.6"/>
    <circle id="p-15" class="st3" cx="769.33" cy="593.09" r="6.6"/>
    <circle id="p-16" class="st3" cx="845.79" cy="593.09" r="6.6"/>
    <circle id="p-17" class="st3" cx="845.79" cy="612.07" r="6.6"/>
    <circle id="p-18" class="st3" cx="1000.47" cy="593.09" r="6.6"/>
    <circle id="p-19" class="st3" cx="1000.47" cy="612.07" r="6.6"/>
    <circle id="p-110" class="st3" cx="1000.47" cy="576.19" r="6.6"/>
    <circle id="p-111" class="st3" cx="1079.34" cy="593.09" r="6.6"/>
    <circle id="p-112" class="st3" cx="1079.34" cy="576.19" r="6.6"/>
    <circle id="p-113" class="st3" cx="1169.67" cy="576.19" r="6.6"/>
    <circle id="p-114" class="st3" cx="1169.67" cy="593.09" r="6.6"/>
    <circle id="p-115" class="st3" cx="1169.67" cy="612.07" r="6.6"/>
    <circle id="p-116" class="st3" cx="1326" cy="593.09" r="6.6"/>
    <circle id="p-117" class="st3" cx="1326" cy="612.07" r="6.6"/>
    <circle id="p-118" class="st3" cx="1404.79" cy="593.09" r="6.6"/>
    <circle id="p-119" class="st3" cx="1404.79" cy="576.61" r="6.6"/>
    <circle id="p-120" class="st3" cx="443.01" cy="612.07" r="6.6"/>
    <circle id="p-121" class="st3" cx="443.14" cy="593.09" r="6.6"/>
    <circle id="p-122" class="st3" cx="443.14" cy="576.19" r="6.6"/>
    <circle id="p-123" class="st3" cx="273.5" cy="612.07" r="6.6"/>
    <circle id="p-124" class="st3" cx="273.63" cy="593.09" r="6.6"/>
    <circle id="p-125" class="st3" cx="273.63" cy="576.19" r="6.6"/>
    <circle id="p-126" class="st3" cx="134.46" cy="612.1" r="6.6" transform="translate(-485.24 705.52) rotate(-86.18)"/>
    <circle id="p-127" class="st3" cx="134.6" cy="593.12" r="6.6" transform="translate(-466.17 687.94) rotate(-86.18)"/>
    <circle id="p-128" class="st3" cx="134.6" cy="576.22" r="6.6" transform="translate(-449.31 672.16) rotate(-86.18)"/>
    <circle id="p-129" class="st3" cx="212.13" cy="593.09" r="6.6"/>
    <circle id="p-130" class="st3" cx="212.13" cy="576.19" r="6.6"/>
    <circle id="p-131" class="st3" cx="55.04" cy="612.07" r="6.6"/>
    <circle id="p-132" class="st3" cx="55.17" cy="593.09" r="6.6"/>
    <circle id="p-133" class="st3" cx="55.17" cy="576.19" r="6.6"/>
  </g>
</svg>