<?xml version="1.0" encoding="UTF-8"?>
<svg id="_Слой_1" data-name="Слой_1" xmlns="http://www.w3.org/2000/svg" version="1.1" viewBox="0 0 1461.9 1149.1">
  <!-- Generator: Adobe Illustrator 29.1.0, SVG Export Plug-In . SVG Version: 2.1.0 Build 142)  -->
  <defs>
    <style>
      .st0 {
        stroke: #d14a4a;
        stroke-miterlimit: 10;
        stroke-width: 2.8px;
      }

      .st0, .st1 {
        fill: #fff;
      }

      .st0, .st1, .st2, .st3 {
        fill-rule: evenodd;
      }

      .st4 {
        fill: #7fba27;
      }

      .st5 {
        isolation: isolate;
      }

      .st6, .st2 {
        fill: #d14a4a;
      }

      .st7, .st3 {
        fill: #f3f3ef;
      }

      .st8 {
        display: none;
      }
    </style>
  </defs>
  <g id="_Слой_11" data-name="_Слой_1">
    <g id="_Слой_1-2">
      <g id="_x31__этаж">
        <polygon id="_x31_00" class="st0" points="419.7 419.3 419.7 350.5 347.3 350.5 313 350.5 313 420 419.7 420 419.7 419.3"/>
        <polygon id="_x31_01" class="st0" points="550.3 520.4 550.3 492 550.3 449.4 456 449.4 456 520.4 503.1 520.4 550.3 520.4"/>
        <path id="_x31_02" class="st0" d="M419.7,350.5v69.5h221.4v-171.3h-293.9v101.7h72.5Z"/>
        <polygon id="_x31_03" class="st0" points="550.3 492 611.4 492 611.4 449.4 550.3 449.4 550.3 492"/>
        <polygon id="_x31_04" class="st0" points="565.8 520.4 611.4 520.4 611.4 492 550.3 492 550.3 520.4 565.8 520.4"/>
        <polygon id="_x31_05" class="st0" points="733.2 608.5 733.2 556.2 645.8 556.2 645.8 608.5 733.2 608.5"/>
        <polygon id="_x31_06" class="st0" points="733.2 661.7 733.2 609.4 645.8 609.4 645.8 661.7 733.2 661.7"/>
        <polygon id="_x31_07" class="st0" points="732.9 248.7 732.9 526.8 1011.2 526.8 1011.2 248.7 732.9 248.7"/>
        <polygon id="_x31_08" class="st0" points="1121.3 517.2 1222.7 517.2 1222.7 248.7 1011.2 248.7 1011.2 526.8 1057.3 526.8 1121.3 526.8 1121.3 517.2"/>
        <polygon id="_x31_09" class="st0" points="1086.1 698.5 1086.1 556.2 1011.3 556.2 1011.3 698.5 1086.1 698.5"/>
        <polygon id="_x31_10" class="st0" points="1120.8 728 1120.8 901.1 1222.7 901.1 1222.7 803.1 1222.7 728 1120.8 728"/>
        <polygon id="_x31_11" class="st0" points="1011.3 698.5 1011.3 556.2 933.9 556.2 933.9 698.5 1011.3 698.5"/>
        <polygon id="_x31_12" class="st0" points="933.3 728 933.3 901.1 1120.8 901.1 1120.8 728 933.3 728"/>
        <polygon id="_x31_13" class="st0" points="933.9 698.5 933.9 556.2 733.2 556.2 733.2 659.2 733.2 698.5 933.9 698.5"/>
        <polygon id="_x31_14" class="st0" points="733 728 733 901.1 933.3 901.1 933.3 728 733 728"/>
        <polygon id="_x31_15" class="st0" points="465.1 689.6 465.1 900.5 646.4 900.5 646.4 689.6 465.1 689.6"/>
        <polygon id="_x31_16" class="st0" points="465.1 689.6 347 689.6 347 729.2 263.8 729.2 263.8 804.9 312.1 804.9 312.1 900.5 465.1 900.5 465.1 689.6"/>
        <polygon id="guard" class="st0" points="411.6 657.9 411.6 607.4 374.5 607.4 356.9 607.4 356.9 658.5 411.6 658.5 411.6 657.9"/>
        <polygon id="tambur" class="st0" points="291.9 700.1 291.9 611.1 256.6 611.1 239.9 611.1 239.9 701 291.9 701 291.9 700.1"/>
        <polygon id="f1-toilet-left" class="st0" points="611.4 647.2 611.4 520.4 565.8 520.4 565.8 598.5 565.8 647.2 611.4 647.2"/>
        <polygon id="f1-elevator-left" class="st0" points="569.5 598.5 569.5 520.4 553.8 520.4 506.8 520.4 506.8 598.5 569.5 598.5"/>
        <polygon id="f1-elevator-right" class="st0" points="1116.8 652.3 1222.7 652.3 1222.7 604.9 1116.8 604.9 1116.8 652.3"/>
        <polygon id="f1-toilet-right" class="st0" points="1116.8 604.9 1222.7 604.9 1222.7 546.7 1116.8 546.7 1116.8 604.9"/>
        <g id="elevator_x5F_icon">
          <path class="st2" d="M527.3,548.3h14.5c2.2,0,3.9,1.9,3.9,4.1v14.1c0,2.3-1.8,4.1-3.9,4.1h-14.5c-2.2,0-3.9-1.9-3.9-4.1v-14.1c0-2.3,1.8-4.1,3.9-4.1Z"/>
          <path class="st3" d="M538.8,556c0-.6-.5-1-1-1h-7.2c-.6,0-1,.5-1,1v10.1c0,.6.5,1,1,1h7.2c.6,0,1-.5,1-1v-10.1ZM537.7,555.6c.2,0,.3.2.3.3v10.1c0,.2-.2.3-.3.3h-7.2c-.2,0-.3-.2-.3-.3v-10.1c0-.2.2-.3.3-.3h7.2Z"/>
          <path class="st3" d="M534.1,554.8c.2,0,.3.2.3.3v11.6c0,.2-.2.3-.3.3s-.3-.2-.3-.3v-11.6c0-.2.2-.3.3-.3Z"/>
          <path class="st3" d="M530.9,552.4c0-.2.2-.3.3-.3h5.8c.2,0,.3.2.3.3v1.4c0,.2-.2.3-.3.3h-5.8c-.2,0-.3-.2-.3-.3v-1.4h0ZM531.6,552.7v.7h5.1v-.7h-5.1Z"/>
          <path class="st3" d="M540.7,562h.5l1-1v-.5c0,0-.4,0-.5,0l-.5.5v-1.7c0-.2-.2-.3-.3-.3s-.3.2-.3.3v1.7l-.5-.5h-.5c0,0,0,.4,0,.5l1,1h0Z"/>
          <path class="st3" d="M527,559.3h.5l1,1v.5c0,0-.4,0-.5,0l-.5-.5v1.7c0,.2-.2.3-.3.3s-.3-.2-.3-.3v-1.7l-.5.5h-.5c0,0,0-.4,0-.5l1-1h0Z"/>
        </g>
        <g id="toilet-icon">
          <path class="st2" d="M580.5,571.9h14.5c2.2,0,3.9,1.9,3.9,4.1v14.1c0,2.3-1.8,4.1-3.9,4.1h-14.5c-2.2,0-3.9-1.9-3.9-4.1v-14.1c0-2.3,1.8-4.1,3.9-4.1Z"/>
          <path class="st7" d="M584.2,578.2h-3.3c-.8,0-1.4.6-1.4,1.4v4.6c0,.3.2.6.6.6h0c.3,0,.6-.3.6-.6v-4.6h0v10.5c0,.4.3.7.7.7s.7-.3.7-.7v-6h.3v6c0,.4.3.7.7.7s.7-.3.7-.7v-10.5h0v4.6c0,.3.3.6.6.6h0c.3,0,.6-.3.6-.6v-4.6h0c0-.8-.6-1.4-1.4-1.4h.6Z"/>
          <circle class="st7" cx="582.5" cy="576.6" r="1.2"/>
          <path class="st7" d="M596.3,583.3s-1.1-3.2-1.3-3.8c-.3-.8-.7-1.2-1.4-1.2h-2.2c-.6,0-1.1.4-1.4,1.2-.2.5-1.3,3.7-1.3,3.8,0,.3,0,.7.4.8.3,0,.7,0,.8-.4,0,0,.7-2,1.1-3.1,0,.3,0-.3-.9,4.6,0,.2,0,.4.3.4h.5v4.4c0,.4.3.7.7.7s.7-.3.7-.7v-4.4h.3v4.4c0,.4.3.7.7.7s.7-.3.7-.7v-4.4h.5c.2,0,.4-.2.3-.4-.9-4.9-.8-4.3-.8-4.6.4,1.1,1,3,1,3.1,0,.3.5.5.8.4s.5-.4.4-.8h.1Z"/>
          <circle class="st7" cx="592.4" cy="576.6" r="1.2"/>
          <path class="st7" d="M587.3,576.1c-.3,0-.5.2-.5.5v13c0,.3.2.5.5.5s.5-.2.5-.5v-13c0-.3-.2-.5-.5-.5Z"/>
        </g>
        <g id="stairs-icon">
          <path class="st2" d="M286.3,282.5h14.5c2.2,0,3.9,1.9,3.9,4.1v14.1c0,2.3-1.8,4.1-3.9,4.1h-14.5c-2.2,0-3.9-1.9-3.9-4.1v-14.1c0-2.3,1.8-4.1,3.9-4.1Z"/>
          <polygon class="st7" points="300.1 295.1 300.1 294 299 294 296.5 294 295.4 295.1 298.4 295.1 296 297.5 296.6 298.2 299 295.8 299 298.7 300.1 297.6 300.1 295.1"/>
          <polygon class="st7" points="289.6 297.1 292.4 297.1 292.4 294.3 295.2 294.3 295.2 291.3 298.2 291.3 298.2 288.5 301 288.5 301 287.4 297 287.4 297 290.1 294 290.1 294 293.1 291.2 293.1 291.2 295.9 288.4 295.9 288.4 298.7 285.9 298.7 285.9 299.8 289.6 299.8 289.6 297.1"/>
        </g>
        <g id="stairs-icon_29">
          <path class="st2" d="M268.7,852.1h14.5c2.2,0,3.9,1.9,3.9,4.1v14.1c0,2.3-1.8,4.1-3.9,4.1h-14.5c-2.2,0-3.9-1.9-3.9-4.1v-14.1c0-2.3,1.8-4.1,3.9-4.1Z"/>
          <polygon class="st7" points="282.5 864.7 282.5 863.7 281.4 863.7 278.9 863.7 277.8 864.7 280.8 864.7 278.4 867.1 279.1 867.9 281.4 865.5 281.4 868.4 282.5 867.2 282.5 864.7"/>
          <polygon class="st7" points="272 866.7 274.8 866.7 274.8 863.9 277.6 863.9 277.6 860.9 280.6 860.9 280.6 858.1 283.4 858.1 283.4 857 279.4 857 279.4 859.8 276.4 859.8 276.4 862.9 273.6 862.9 273.6 865.6 270.9 865.6 270.9 868.4 268.5 868.4 268.5 869.5 272 869.5 272 866.7"/>
        </g>
        <g id="stairs-icon_30">
          <path class="st2" d="M685.5,852.1h14.5c2.2,0,3.9,1.9,3.9,4.1v14.1c0,2.3-1.8,4.1-3.9,4.1h-14.5c-2.2,0-3.9-1.9-3.9-4.1v-14.1c0-2.3,1.8-4.1,3.9-4.1Z"/>
          <polygon class="st7" points="699.3 864.7 699.3 863.7 698.3 863.7 695.8 863.7 694.7 864.7 697.7 864.7 695.3 867.1 695.9 867.9 698.3 865.5 698.3 868.4 699.3 867.2 699.3 864.7"/>
          <polygon class="st7" points="688.9 866.7 691.7 866.7 691.7 863.9 694.4 863.9 694.4 860.9 697.5 860.9 697.5 858.1 700.2 858.1 700.2 857 696.3 857 696.3 859.8 693.3 859.8 693.3 862.9 690.5 862.9 690.5 865.6 687.7 865.6 687.7 868.4 685.3 868.4 685.3 869.5 688.9 869.5 688.9 866.7"/>
        </g>
        <g id="stairs-icon_33">
          <path class="st2" d="M680.4,282.5h14.5c2.2,0,3.9,1.9,3.9,4.1v14.1c0,2.3-1.8,4.1-3.9,4.1h-14.5c-2.2,0-3.9-1.9-3.9-4.1v-14.1c0-2.3,1.8-4.1,3.9-4.1Z"/>
          <polygon class="st7" points="694.3 295.1 694.3 294 693.1 294 690.7 294 689.6 295.1 692.6 295.1 690.2 297.5 690.8 298.2 693.1 295.8 693.1 298.7 694.3 297.6 694.3 295.1"/>
          <polygon class="st7" points="683.8 297.1 686.5 297.1 686.5 294.3 689.3 294.3 689.3 291.3 692.3 291.3 692.3 288.5 695.1 288.5 695.1 287.4 691.3 287.4 691.3 290.1 688.2 290.1 688.2 293.1 685.5 293.1 685.5 295.9 682.7 295.9 682.7 298.7 680.2 298.7 680.2 299.8 683.8 299.8 683.8 297.1"/>
        </g>
        <g id="toilet-icon_36">
          <path class="st2" d="M1161.7,563.9h14.5c2.2,0,3.9,1.9,3.9,4.1v14.1c0,2.3-1.8,4.1-3.9,4.1h-14.5c-2.2,0-3.9-1.9-3.9-4.1v-14.1c0-2.3,1.8-4.1,3.9-4.1Z"/>
          <path class="st7" d="M1165.4,570.3h-3.3c-.8,0-1.4.6-1.4,1.4v4.6c0,.3.2.6.6.6h0c.3,0,.6-.3.6-.6v-4.6h0v10.5c0,.4.3.7.7.7s.7-.3.7-.7v-6h.3v6c0,.4.3.7.7.7s.7-.3.7-.7v-10.5h0v4.6c0,.3.3.6.6.6h0c.3,0,.6-.3.6-.6v-4.6h0c0-.8-.6-1.4-1.4-1.4h.6Z"/>
          <circle class="st7" cx="1163.7" cy="568.6" r="1.2"/>
          <path class="st7" d="M1177.4,575.3s-1.1-3.2-1.3-3.8c-.3-.8-.7-1.2-1.4-1.2h-2.2c-.6,0-1.1.4-1.4,1.2-.2.5-1.3,3.7-1.3,3.8,0,.3,0,.7.4.8.3,0,.7,0,.8-.4,0,0,.7-2,1.1-3.1,0,.3,0-.3-.9,4.6,0,.2,0,.4.3.4h.5v4.4c0,.4.3.7.7.7s.7-.3.7-.7v-4.4h.3v4.4c0,.4.3.7.7.7s.7-.3.7-.7v-4.4h.5c.2,0,.4-.2.3-.4-.9-4.9-.8-4.3-.8-4.6.4,1.1,1,3,1,3.1,0,.3.5.5.8.4s.5-.4.4-.8h.1Z"/>
          <circle class="st7" cx="1173.6" cy="568.6" r="1.2"/>
          <path class="st7" d="M1168.5,568.1c-.3,0-.5.2-.5.5v13c0,.3.2.5.5.5s.5-.2.5-.5v-13c0-.3-.2-.5-.5-.5Z"/>
        </g>
        <g id="elevator_x5F_icon_37">
          <path class="st2" d="M1162.5,617.4h14.5c2.2,0,3.9,1.9,3.9,4.1v14.1c0,2.3-1.8,4.1-3.9,4.1h-14.5c-2.2,0-3.9-1.9-3.9-4.1v-14.1c0-2.3,1.8-4.1,3.9-4.1Z"/>
          <path class="st3" d="M1174.1,625.2c0-.6-.5-1-1-1h-7.2c-.6,0-1,.5-1,1v10.1c0,.6.5,1,1,1h7.2c.6,0,1-.5,1-1v-10.1ZM1173,624.8c.2,0,.3.2.3.3v10.1c0,.2-.2.3-.3.3h-7.2c-.2,0-.3-.2-.3-.3v-10.1c0-.2.2-.3.3-.3h7.2Z"/>
          <path class="st3" d="M1169.4,624.1c.2,0,.3.2.3.3v11.6c0,.2-.2.3-.3.3s-.3-.2-.3-.3v-11.6c0-.2.2-.3.3-.3Z"/>
          <path class="st3" d="M1166.2,621.6c0-.2.2-.3.3-.3h5.8c.2,0,.3.2.3.3v1.4c0,.2-.2.3-.3.3h-5.8c-.2,0-.3-.2-.3-.3v-1.4h0ZM1166.8,621.9v.7h5.1v-.7h-5.1Z"/>
          <path class="st3" d="M1176,631.2h.5l1-1v-.5c0,0-.4,0-.5,0l-.5.5v-1.7c0-.2-.2-.3-.3-.3s-.3.2-.3.3v1.7l-.5-.5h-.5c0,0,0,.4,0,.5l1,1h.1Z"/>
          <path class="st3" d="M1162.3,628.5h.5l1,1v.5c0,0-.4,0-.5,0l-.5-.5v1.7c0,.2-.2.3-.3.3s-.3-.2-.3-.3v-1.7l-.5.5h-.5c0,0,0-.4,0-.5l1-1h.1Z"/>
        </g>
        <g id="stairs-icon_29-2">
          <path class="st2" d="M538.4,616.2h14.5c2.2,0,3.9,1.9,3.9,4.1v14.1c0,2.3-1.8,4.1-3.9,4.1h-14.5c-2.2,0-3.9-1.9-3.9-4.1v-14.1c0-2.3,1.8-4.1,3.9-4.1Z"/>
          <polygon class="st7" points="552.3 628.8 552.3 627.7 551.2 627.7 548.7 627.7 547.5 628.8 550.5 628.8 548.2 631.2 548.9 631.9 551.2 629.5 551.2 632.4 552.3 631.3 552.3 628.8"/>
          <polygon class="st7" points="541.7 630.8 544.5 630.8 544.5 628 547.3 628 547.3 625 550.3 625 550.3 622.2 553.1 622.2 553.1 621.1 549.2 621.1 549.2 623.9 546.2 623.9 546.2 626.9 543.4 626.9 543.4 629.7 540.7 629.7 540.7 632.4 538.1 632.4 538.1 633.5 541.7 633.5 541.7 630.8"/>
        </g>
        <g id="doors">
          <path id="path1330" class="st1" d="M1081.7,527.2h-22.5v1.1h22.5v-1.1ZM1081.7,527.2v3.9h2v-3.9h-2ZM1059.2,527.2h-2v3.9h2v-3.9ZM1059.2,527.2v-11.3h2v11.3h-2ZM1081.7,527.2v-11.3h-2v11.3h2Z"/>
          <path id="path1330-2" class="st1" d="M892,527.2h-22.5v1.1h22.5v-1.1ZM892,527.2v3.9h2v-3.9h-2ZM869.6,527.2h-2v3.9h2v-3.9ZM869.6,527.2v-11.3h2v11.3h-2ZM892,527.2v-11.3h-2v11.3h2Z"/>
          <path id="path1330-3" class="st1" d="M544.3,420.4h-22.5v1.1h22.5v-1.1ZM544.3,420.4v3.9h2v-3.9h-2ZM521.9,420.4h-2v3.9h2v-3.9ZM521.9,420.4v-11.3h2v11.3h-2ZM544.3,420.4v-11.3h-2v11.3h2Z"/>
          <path id="path1330-4" class="st1" d="M319.5,350h22.5v-1.1h-22.5v1.1ZM319.5,350v-3.9h-2v3.9h2ZM341.9,350h2v-3.9h-2v3.9ZM342,350v11.3h-2v-11.3h2ZM319.5,350v11.3h2v-11.3h-2Z"/>
          <path id="path1330-5" class="st1" d="M1159.7,546.2h22.5v-1.1h-22.5v1.1ZM1159.7,546.2v-3.9h-2v3.9h2ZM1182.2,546.2h2v-3.9h-2v3.9ZM1182.2,546.2v11.3h-2v-11.3h2ZM1159.7,546.2v11.3h2v-11.3h-2Z"/>
          <path id="path1330-6" class="st1" d="M495,449.1h22.5v-1.1h-22.5v1.1ZM495,449.1v-3.9h-2v3.9h2ZM517.4,449.1h2v-3.9h-2v3.9ZM517.4,449.1v11.3h-2v-11.3h2ZM495,449.1v11.3h2v-11.3h-2Z"/>
          <path id="path1330-7" class="st1" d="M611.7,457.1v22.5h1.1v-22.5h-1.1ZM611.7,457.1h3.9v-2h-3.9v2ZM611.7,479.5v2h3.9v-2h-3.9ZM611.7,479.5h-11.3v-2h11.3v2ZM611.7,457.1h-11.3v2h11.3v-2Z"/>
          <path id="path1330-8" class="st1" d="M611.8,494.9v22.5h1.1v-22.5h-1.1ZM611.8,494.9h3.9v-2h-3.9v2ZM611.8,517.4v2h3.9v-2h-3.9ZM611.8,517.4h-11.3v-2h11.3v2ZM611.8,494.9h-11.3v2h11.3v-2Z"/>
          <path id="path1330-9" class="st1" d="M611.9,571.8v22.5h1.1v-22.5h-1.1ZM611.9,571.8h3.9v-2h-3.9v2ZM611.9,594.3v2h3.9v-2h-3.9ZM611.9,594.3h-11.3v-2h11.3v2ZM611.9,571.8h-11.3v2h11.3v-2Z"/>
          <path id="path1330-10" class="st1" d="M653.6,555.8h22.5v-1.1h-22.5v1.1ZM653.6,555.8v-3.9h-2v3.9h2ZM676.1,555.8h2v-3.9h-2v3.9ZM676.1,555.8v11.3h-2v-11.3h2ZM653.6,555.8v11.3h2v-11.3h-2Z"/>
          <path id="path1330-11" class="st1" d="M799.8,698.9h-22.5v1.1h22.5v-1.1ZM799.8,698.9v3.9h2v-3.9h-2ZM777.3,698.9h-2v3.9h2v-3.9ZM777.3,698.9v-11.3h2v11.3h-2ZM799.8,698.9v-11.3h-2v11.3h2Z"/>
          <path id="path1330-12" class="st1" d="M987.7,698.9h-22.5v1.1h22.5v-1.1ZM987.7,698.9v3.9h2v-3.9h-2ZM965.2,698.9h-2v3.9h2v-3.9ZM965.2,698.9v-11.3h2v11.3h-2ZM987.7,698.9v-11.3h-2v11.3h2Z"/>
          <path id="path1330-13" class="st1" d="M1061.1,698.9h-22.5v1.1h22.5v-1.1ZM1061.1,698.9v3.9h2v-3.9h-2ZM1038.6,698.9h-2v3.9h2v-3.9ZM1038.6,698.9v-11.3h2v11.3h-2ZM1061.1,698.9v-11.3h-2v11.3h2Z"/>
          <path id="path1330-14" class="st1" d="M425.5,689.1h22.5v-1.1h-22.5v1.1ZM425.5,689.1v-3.9h-2v3.9h2ZM448,689.1h2v-3.9h-2v3.9ZM448,689.1v11.3h-2v-11.3h2ZM425.5,689.1v11.3h2v-11.3h-2Z"/>
          <path id="path1330-15" class="st1" d="M618.1,689.1h22.5v-1.1h-22.5v1.1ZM618.1,689.1v-3.9h-2v3.9h2ZM640.6,689.1h2v-3.9h-2v3.9ZM640.6,689.1v11.3h-2v-11.3h2ZM618.1,689.1v11.3h2v-11.3h-2Z"/>
          <path id="path1330-16" class="st1" d="M292.6,645.2v22.5h1.1v-22.5h-1.1ZM292.6,645.2h3.9v-2h-3.9v2ZM292.6,667.6v2h3.9v-2h-3.9ZM292.6,667.6h-11.3v-2h11.3v2ZM292.6,645.2h-11.3v2h11.3v-2Z"/>
          <path id="path1330-17" class="st1" d="M879.9,727.5h22.5v-1.1h-22.5v1.1ZM879.9,727.5v-3.9h-2v3.9h2ZM902.5,727.5h2v-3.9h-2v3.9ZM902.5,727.5v11.3h-2v-11.3h2ZM879.9,727.5v11.3h2v-11.3h-2Z"/>
          <path id="path1330-18" class="st1" d="M1055.2,727.3h22.5v-1.1h-22.5v1.1ZM1055.2,727.3v-3.9h-2v3.9h2ZM1077.6,727.3h2v-3.9h-2v3.9ZM1077.6,727.3v11.3h-2v-11.3h2ZM1055.2,727.3v11.3h2v-11.3h-2Z"/>
          <path id="path1330-19" class="st1" d="M1136.8,727.5h22.5v-1.1h-22.5v1.1ZM1136.8,727.5v-3.9h-2v3.9h2ZM1159.3,727.5h2v-3.9h-2v3.9ZM1159.3,727.5v11.3h-2v-11.3h2ZM1136.8,727.5v11.3h2v-11.3h-2Z"/>
          <path id="path1330-2-2" class="st1" d="M673.1,662h-22.5v1.1h22.5v-1.1ZM673.1,662v3.9h2v-3.9h-2ZM650.6,662h-2v3.9h2v-3.9ZM650.6,662v-11.3h2v11.3h-2ZM673.1,662v-11.3h-2v11.3h2Z"/>
        </g>
        <g class="st8">
          <circle id="p-1" class="st4" cx="482.1" cy="561" r="6.6"/>
          <circle id="elevator-left-obj" class="st4" cx="506.8" cy="561" r="6.6" transform="translate(-248.2 522.7) rotate(-45)"/>
          <circle id="guard-obj" class="st4" cx="384.2" cy="607.4" r="6.6"/>
          <circle id="tambur-obj" class="st4" cx="291.9" cy="656.5" r="6.6"/>
          <circle id="p-2" class="st4" cx="436.7" cy="560.6" r="6.6"/>
          <circle id="p-3" class="st4" cx="384.2" cy="561" r="6.6"/>
          <circle id="p-4" class="st4" cx="325.1" cy="561" r="6.6"/>
          <circle id="p-5" class="st4" cx="325.1" cy="656.5" r="6.6"/>
          <circle id="p-6" class="st4" cx="325.1" cy="676.3" r="6.6"/>
          <circle id="p-116" class="st4" cx="437.2" cy="676.3" r="6.6"/>
          <circle id="obj-116" class="st4" cx="437.2" cy="690" r="6.6"/>
          <circle id="p-115" class="st4" cx="630.3" cy="676.3" r="6.6"/>
          <circle id="obj-115" class="st4" cx="630.3" cy="690" r="6.6"/>
          <circle id="p-106" class="st4" cx="661.9" cy="676.3" r="6.6"/>
          <circle id="obj-106" class="st4" cx="661.9" cy="661.7" r="6.6"/>
          <circle id="p-100" class="st4" cx="384.2" cy="434.7" r="6.6"/>
          <circle id="obj-100" class="st4" cx="384.2" cy="420" r="6.6"/>
          <circle id="p-101" class="st4" cx="506.1" cy="434.7" r="6.6"/>
          <circle id="obg-101" class="st4" cx="506.1" cy="449.4" r="6.6"/>
          <circle id="p-102" class="st4" cx="533" cy="434.7" r="6.6"/>
          <circle id="obj-102" class="st4" cx="533" cy="420" r="6.6"/>
          <circle id="p-7" class="st4" cx="630.3" cy="434.7" r="6.6"/>
          <circle id="p-103" class="st4" cx="630.3" cy="468.2" r="6.6"/>
          <circle id="obg-103" class="st4" cx="611.4" cy="468.2" r="6.6"/>
          <circle id="p-104" class="st4" cx="630.3" cy="506.2" r="6.6"/>
          <circle id="obg-104" class="st4" cx="611.4" cy="506.2" r="6.6"/>
          <circle id="p-8" class="st4" cx="630.3" cy="539.6" r="6.6"/>
          <circle id="p-toilet-left" class="st4" cx="630.3" cy="583.8" r="6.6"/>
          <circle id="toilet-left-object" class="st4" cx="611.9" cy="583.8" r="6.6"/>
          <circle id="p-105" class="st4" cx="665.8" cy="539.6" r="6.6"/>
          <circle id="obj-105" class="st4" cx="665.8" cy="556.2" r="6.6"/>
          <circle id="p-107" class="st4" cx="880.7" cy="539.6" r="6.6"/>
          <circle id="obj-107" class="st4" cx="880.7" cy="526.8" r="6.6"/>
          <circle id="p-108" class="st4" cx="1070.5" cy="539.6" r="6.6"/>
          <circle id="obj-108" class="st4" cx="1070.5" cy="527.7" r="6.6"/>
          <circle id="p-9" class="st4" cx="692.7" cy="676.3" r="6.6"/>
          <circle id="p-10" class="st4" cx="692.7" cy="712.2" r="6.6"/>
          <circle id="p-113" class="st4" cx="788.5" cy="712.2" r="6.6"/>
          <circle id="obj-113" class="st4" cx="788.5" cy="698.5" r="6.6"/>
          <circle id="p-112" class="st4" cx="891.2" cy="712.2" r="6.6"/>
          <circle id="obj-112" class="st4" cx="891.2" cy="728" r="6.6"/>
          <circle id="p-111" class="st4" cx="976.4" cy="712.2" r="6.6"/>
          <circle id="obj-111" class="st4" cx="976.4" cy="698.5" r="6.6"/>
          <circle id="p-109" class="st4" cx="1049.8" cy="712.2" r="6.6"/>
          <circle id="obj-109" class="st4" cx="1049.8" cy="698.5" r="6.6"/>
          <circle id="p-112-2" class="st4" cx="1066.5" cy="712.2" r="6.6"/>
          <circle id="obj-112-2" class="st4" cx="1066.5" cy="728" r="6.6"/>
          <circle id="p-11" class="st4" cx="1101.3" cy="712.2" r="6.6"/>
          <circle id="p-110" class="st4" cx="1148" cy="712.2" r="6.6"/>
          <circle id="obj-110" class="st4" cx="1148" cy="728" r="6.6"/>
          <circle id="p-11-2" class="st4" cx="1168.9" cy="712.2" r="6.6"/>
          <circle id="elevator-right-obj" class="st4" cx="1169.1" cy="652.3" r="6.6"/>
          <circle id="p-12" class="st4" cx="1101.3" cy="539.6" r="6.6"/>
          <circle id="p-toilet-right" class="st4" cx="1169.7" cy="539.6" r="6.6"/>
          <circle id="toilet-right-obj" class="st4" cx="1169.7" cy="546.7" r="6.6"/>
        </g>
        <path id="main" class="st2" d="M1224.6,245.8H237.3v657.6h987.3V245.8h0ZM241.1,251.3h979.7v646.5H241.1V251.3h0Z"/>
      </g>
    </g>
    <g>
      <g class="st5">
        <g class="st5">
          <path class="st6" d="M489.5,480h2.2v12h-1.8l-6.6-8.1v8.1h-2.2v-12h1.8l6.6,8.1v-8.1ZM493.1,482.7c0-1.6,1.3-2.8,3.1-2.8s3.1,1.2,3.1,2.8-1.3,2.8-3.1,2.8-3.1-1.2-3.1-2.8ZM493.5,486.7h5.6v1.4h-5.6v-1.4ZM494.6,482.7c0,.9.7,1.6,1.7,1.6s1.7-.6,1.7-1.6-.7-1.6-1.7-1.6-1.7.6-1.7,1.6Z"/>
          <path class="st6" d="M505.5,480v12h-2.2v-10.1h-2.5v-1.9h4.8Z"/>
          <path class="st6" d="M507.9,486c0-3.9,2.2-6.2,5-6.2s5,2.2,5,6.2-2.2,6.2-5,6.2-5-2.2-5-6.2ZM515.7,486c0-2.9-1.1-4.2-2.8-4.2s-2.8,1.3-2.8,4.2,1.1,4.2,2.8,4.2,2.8-1.3,2.8-4.2Z"/>
          <path class="st6" d="M523.4,480v12h-2.2v-10.1h-2.5v-1.9h4.8Z"/>
        </g>
      </g>
      <g class="st5">
        <g class="st5">
          <path class="st6" d="M507,332h2.2v12h-1.8l-6.6-8.1v8.1h-2.2v-12h1.8l6.6,8.1v-8.1ZM510.6,334.7c0-1.6,1.3-2.8,3.1-2.8s3.1,1.2,3.1,2.8-1.3,2.8-3.1,2.8-3.1-1.2-3.1-2.8ZM511,338.7h5.6v1.4h-5.6v-1.4ZM512.1,334.7c0,.9.7,1.6,1.7,1.6s1.7-.6,1.7-1.6-.7-1.6-1.7-1.6-1.7.6-1.7,1.6Z"/>
          <path class="st6" d="M523,332v12h-2.2v-10.1h-2.5v-1.9h4.8Z"/>
          <path class="st6" d="M525.4,338c0-3.9,2.2-6.2,5-6.2s5,2.2,5,6.2-2.2,6.2-5,6.2-5-2.2-5-6.2ZM533.2,338c0-2.9-1.1-4.2-2.8-4.2s-2.8,1.3-2.8,4.2,1.1,4.2,2.8,4.2,2.8-1.3,2.8-4.2Z"/>
          <path class="st6" d="M545.5,342.1v1.9h-8.8v-1.5l4.8-4.5c1.2-1.1,1.4-1.8,1.4-2.5,0-1.1-.8-1.7-2.2-1.7s-2.1.4-2.8,1.2l-1.6-1.2c.9-1.2,2.6-2,4.6-2s4.3,1.3,4.3,3.4-.3,2.2-2,3.8l-3.2,3h5.6Z"/>
        </g>
      </g>
      <g class="st5">
        <g class="st5">
          <path class="st6" d="M673.1,576.4h2.2v12h-1.8l-6.6-8.1v8.1h-2.2v-12h1.8l6.6,8.1v-8.1ZM676.8,579.1c0-1.6,1.3-2.8,3.1-2.8s3.1,1.2,3.1,2.8-1.3,2.8-3.1,2.8-3.1-1.2-3.1-2.8ZM677.1,583.1h5.6v1.4h-5.6v-1.4ZM678.2,579.1c0,.9.7,1.6,1.7,1.6s1.7-.6,1.7-1.6-.7-1.6-1.7-1.6-1.7.6-1.7,1.6Z"/>
          <path class="st6" d="M689.1,576.4v12h-2.2v-10.1h-2.5v-1.9h4.8Z"/>
          <path class="st6" d="M691.5,582.4c0-3.9,2.2-6.2,5-6.2s5,2.2,5,6.2-2.2,6.2-5,6.2-5-2.2-5-6.2ZM699.3,582.4c0-2.9-1.1-4.2-2.8-4.2s-2.8,1.3-2.8,4.2,1.1,4.2,2.8,4.2,2.8-1.3,2.8-4.2Z"/>
          <path class="st6" d="M711.7,584.7c0,2.1-1.5,3.8-4.7,3.8s-3.4-.5-4.5-1.4l.9-1.7c.9.7,2.2,1.2,3.5,1.2s2.5-.7,2.5-1.8-.7-1.9-3.2-1.9h-2.9l.6-6.5h7v1.9h-5.1l-.3,2.8h1.1c3.5,0,5,1.5,5,3.7Z"/>
        </g>
      </g>
      <g class="st5">
        <g class="st5">
          <path class="st6" d="M674.8,630h2.2v12h-1.8l-6.6-8.1v8.1h-2.2v-12h1.8l6.6,8.1v-8.1ZM678.4,632.7c0-1.6,1.3-2.8,3.1-2.8s3.1,1.2,3.1,2.8-1.3,2.8-3.1,2.8-3.1-1.2-3.1-2.8ZM678.8,636.7h5.6v1.4h-5.6v-1.4ZM679.9,632.7c0,.9.7,1.6,1.7,1.6s1.7-.6,1.7-1.6-.7-1.6-1.7-1.6-1.7.6-1.7,1.6Z"/>
          <path class="st6" d="M690.8,630v12h-2.2v-10.1h-2.5v-1.9h4.8Z"/>
          <path class="st6" d="M693.2,636c0-3.9,2.2-6.2,5-6.2s5,2.2,5,6.2-2.2,6.2-5,6.2-5-2.2-5-6.2ZM701,636c0-2.9-1.1-4.2-2.8-4.2s-2.8,1.3-2.8,4.2,1.1,4.2,2.8,4.2,2.8-1.3,2.8-4.2Z"/>
          <path class="st6" d="M714.3,638.3c0,2.4-1.9,3.9-4.4,3.9s-5.2-2.1-5.2-6,2.4-6.4,5.9-6.4,2.3.3,3.1.8l-.8,1.7c-.6-.4-1.4-.6-2.3-.6-2.3,0-3.7,1.4-3.7,4.1h0c.7-.8,1.9-1.2,3.2-1.2,2.4,0,4.1,1.4,4.1,3.7ZM712.1,638.4c0-1.2-.9-2-2.4-2s-2.4.9-2.4,2.1.9,2,2.5,2,2.3-.8,2.3-2Z"/>
        </g>
      </g>
      <g class="st5">
        <g class="st5">
          <path class="st6" d="M856.4,375.8h2.2v12h-1.8l-6.6-8.1v8.1h-2.2v-12h1.8l6.6,8.1v-8.1ZM860,378.5c0-1.6,1.3-2.8,3.1-2.8s3.1,1.2,3.1,2.8-1.3,2.8-3.1,2.8-3.1-1.2-3.1-2.8ZM860.4,382.5h5.6v1.4h-5.6v-1.4ZM861.5,378.5c0,.9.7,1.6,1.7,1.6s1.7-.6,1.7-1.6-.7-1.6-1.7-1.6-1.7.6-1.7,1.6Z"/>
          <path class="st6" d="M872.4,375.8v12h-2.2v-10.1h-2.5v-1.9h4.8Z"/>
          <path class="st6" d="M874.8,381.8c0-3.9,2.2-6.2,5-6.2s5,2.2,5,6.2-2.2,6.2-5,6.2-5-2.2-5-6.2ZM882.6,381.8c0-2.9-1.1-4.2-2.8-4.2s-2.8,1.3-2.8,4.2,1.1,4.2,2.8,4.2,2.8-1.3,2.8-4.2Z"/>
          <path class="st6" d="M895.2,375.8v1.5l-4.7,10.5h-2.4l4.5-10.1h-4.7v2h-2.1v-3.9h9.3Z"/>
        </g>
      </g>
      <g class="st5">
        <g class="st5">
          <path class="st6" d="M1103.1,375.9h2.2v12h-1.8l-6.6-8.1v8.1h-2.2v-12h1.8l6.6,8.1v-8.1ZM1106.8,378.6c0-1.6,1.3-2.8,3.1-2.8s3.1,1.2,3.1,2.8-1.3,2.8-3.1,2.8-3.1-1.2-3.1-2.8ZM1107.1,382.6h5.6v1.4h-5.6v-1.4ZM1108.2,378.6c0,.9.7,1.6,1.7,1.6s1.7-.6,1.7-1.6-.7-1.6-1.7-1.6-1.7.6-1.7,1.6Z"/>
          <path class="st6" d="M1119.1,375.9v12h-2.2v-10.1h-2.5v-1.9h4.8Z"/>
          <path class="st6" d="M1121.5,381.9c0-3.9,2.2-6.2,5-6.2s5,2.2,5,6.2-2.2,6.2-5,6.2-5-2.2-5-6.2ZM1129.3,381.9c0-2.9-1.1-4.2-2.8-4.2s-2.8,1.3-2.8,4.2,1.1,4.2,2.8,4.2,2.8-1.3,2.8-4.2Z"/>
          <path class="st6" d="M1142.7,384.5c0,2.2-1.9,3.6-4.9,3.6s-4.9-1.4-4.9-3.6.7-2.3,1.9-2.9c-1-.5-1.5-1.4-1.5-2.5,0-2.1,1.8-3.3,4.4-3.3s4.5,1.3,4.5,3.3-.5,2-1.5,2.5c1.2.6,2,1.5,2,2.9ZM1140.5,384.4c0-1.2-1-1.9-2.7-1.9s-2.6.7-2.6,1.9,1,1.9,2.6,1.9,2.7-.7,2.7-1.9ZM1135.5,379.2c0,1,.9,1.7,2.3,1.7s2.3-.7,2.3-1.7-.9-1.7-2.3-1.7-2.3.6-2.3,1.7Z"/>
        </g>
      </g>
      <g class="st5">
        <g class="st5">
          <path class="st6" d="M1033.4,619.3h2.2v12h-1.8l-6.6-8.1v8.1h-2.2v-12h1.8l6.6,8.1v-8.1ZM1037,622c0-1.6,1.3-2.8,3.1-2.8s3.1,1.2,3.1,2.8-1.3,2.8-3.1,2.8-3.1-1.2-3.1-2.8ZM1037.4,626h5.6v1.4h-5.6v-1.4ZM1038.5,622c0,.9.7,1.6,1.7,1.6s1.7-.6,1.7-1.6-.7-1.6-1.7-1.6-1.7.6-1.7,1.6Z"/>
          <path class="st6" d="M1049.4,619.3v12h-2.2v-10.1h-2.5v-1.9h4.8Z"/>
          <path class="st6" d="M1051.8,625.3c0-3.9,2.2-6.2,5-6.2s5,2.2,5,6.2-2.2,6.2-5,6.2-5-2.2-5-6.2ZM1059.6,625.3c0-2.9-1.1-4.2-2.8-4.2s-2.8,1.3-2.8,4.2,1.1,4.2,2.8,4.2,2.8-1.3,2.8-4.2Z"/>
          <path class="st6" d="M1072.5,625.1c0,4.1-2.4,6.4-5.9,6.4s-2.3-.3-3.1-.8l.8-1.7c.7.4,1.4.6,2.3.6,2.3,0,3.7-1.4,3.7-4.1h0c-.7.8-1.9,1.2-3.2,1.2-2.4,0-4.1-1.4-4.1-3.7s1.9-3.9,4.4-3.9,5.2,2.1,5.2,6ZM1069.9,622.9c0-1.1-.9-2-2.5-2s-2.3.8-2.3,2,.9,2,2.4,2,2.4-.9,2.4-2.1Z"/>
        </g>
      </g>
      <g class="st5">
        <g class="st5">
          <path class="st6" d="M1159.1,807h2.2v12h-1.8l-6.6-8.1v8.1h-2.2v-12h1.8l6.6,8.1v-8.1ZM1162.8,809.7c0-1.6,1.3-2.8,3.1-2.8s3.1,1.2,3.1,2.8-1.3,2.8-3.1,2.8-3.1-1.2-3.1-2.8ZM1163.1,813.7h5.6v1.4h-5.6v-1.4ZM1164.2,809.7c0,.9.7,1.6,1.7,1.6s1.7-.6,1.7-1.6-.7-1.6-1.7-1.6-1.7.6-1.7,1.6Z"/>
          <path class="st6" d="M1175.1,807v12h-2.2v-10.1h-2.5v-1.9h4.8Z"/>
          <path class="st6" d="M1181.6,807v12h-2.2v-10.1h-2.5v-1.9h4.8Z"/>
          <path class="st6" d="M1184,813c0-3.9,2.2-6.2,5-6.2s5,2.2,5,6.2-2.2,6.2-5,6.2-5-2.2-5-6.2ZM1191.8,813c0-2.9-1.1-4.2-2.8-4.2s-2.8,1.3-2.8,4.2,1.1,4.2,2.8,4.2,2.8-1.3,2.8-4.2Z"/>
        </g>
      </g>
      <g class="st5">
        <g class="st5">
          <path class="st6" d="M962.9,619.5h2.2v12h-1.8l-6.6-8.1v8.1h-2.2v-12h1.8l6.6,8.1v-8.1ZM966.5,622.2c0-1.6,1.3-2.8,3.1-2.8s3.1,1.2,3.1,2.8-1.3,2.8-3.1,2.8-3.1-1.2-3.1-2.8ZM966.9,626.2h5.6v1.4h-5.6v-1.4ZM968,622.2c0,.9.7,1.6,1.7,1.6s1.7-.6,1.7-1.6-.7-1.6-1.7-1.6-1.7.6-1.7,1.6Z"/>
          <path class="st6" d="M978.9,619.5v12h-2.2v-10.1h-2.5v-1.9h4.8Z"/>
          <path class="st6" d="M985.4,619.5v12h-2.2v-10.1h-2.5v-1.9h4.8Z"/>
          <path class="st6" d="M991.9,619.5v12h-2.2v-10.1h-2.5v-1.9h4.8Z"/>
        </g>
      </g>
      <g class="st5">
        <g class="st5">
          <path class="st6" d="M1017.8,807h2.2v12h-1.8l-6.6-8.1v8.1h-2.2v-12h1.8l6.6,8.1v-8.1ZM1021.5,809.7c0-1.6,1.3-2.8,3.1-2.8s3.1,1.2,3.1,2.8-1.3,2.8-3.1,2.8-3.1-1.2-3.1-2.8ZM1021.8,813.7h5.6v1.4h-5.6v-1.4ZM1022.9,809.7c0,.9.7,1.6,1.7,1.6s1.7-.6,1.7-1.6-.7-1.6-1.7-1.6-1.7.6-1.7,1.6Z"/>
          <path class="st6" d="M1033.8,807v12h-2.2v-10.1h-2.5v-1.9h4.8Z"/>
          <path class="st6" d="M1040.3,807v12h-2.2v-10.1h-2.5v-1.9h4.8Z"/>
          <path class="st6" d="M1051.4,817.1v1.9h-8.8v-1.5l4.8-4.5c1.2-1.1,1.4-1.8,1.4-2.5,0-1.1-.8-1.7-2.2-1.7s-2.1.4-2.8,1.2l-1.6-1.2c.9-1.2,2.6-2,4.6-2s4.3,1.3,4.3,3.4-.3,2.2-2,3.8l-3.2,3h5.6Z"/>
        </g>
      </g>
      <g class="st5">
        <g class="st5">
          <path class="st6" d="M819.3,619.3h2.2v12h-1.8l-6.6-8.1v8.1h-2.2v-12h1.8l6.6,8.1v-8.1ZM823,622c0-1.6,1.3-2.8,3.1-2.8s3.1,1.2,3.1,2.8-1.3,2.8-3.1,2.8-3.1-1.2-3.1-2.8ZM823.3,626h5.6v1.4h-5.6v-1.4ZM824.4,622c0,.9.7,1.6,1.7,1.6s1.7-.6,1.7-1.6-.7-1.6-1.7-1.6-1.7.6-1.7,1.6Z"/>
          <path class="st6" d="M835.3,619.3v12h-2.2v-10.1h-2.5v-1.9h4.8Z"/>
          <path class="st6" d="M841.8,619.3v12h-2.2v-10.1h-2.5v-1.9h4.8Z"/>
          <path class="st6" d="M852.7,627.7c0,2-1.5,3.8-4.7,3.8s-3.4-.5-4.5-1.4l1-1.7c.9.7,2.2,1.2,3.5,1.2s2.5-.7,2.5-1.8-.8-1.8-2.6-1.8h-1.1v-1.5l2.7-3.2h-5.4v-1.9h8.2v1.5l-2.9,3.5c2.3.3,3.4,1.6,3.4,3.4Z"/>
        </g>
      </g>
      <g class="st5">
        <g class="st5">
          <path class="st6" d="M820.9,807.1h2.2v12h-1.8l-6.6-8.1v8.1h-2.2v-12h1.8l6.6,8.1v-8.1ZM824.5,809.8c0-1.6,1.3-2.8,3.1-2.8s3.1,1.2,3.1,2.8-1.3,2.8-3.1,2.8-3.1-1.2-3.1-2.8ZM824.9,813.8h5.6v1.4h-5.6v-1.4ZM826,809.8c0,.9.7,1.6,1.7,1.6s1.7-.6,1.7-1.6-.7-1.6-1.7-1.6-1.7.6-1.7,1.6Z"/>
          <path class="st6" d="M836.9,807.1v12h-2.2v-10.1h-2.5v-1.9h4.8Z"/>
          <path class="st6" d="M843.4,807.1v12h-2.2v-10.1h-2.5v-1.9h4.8Z"/>
          <path class="st6" d="M856.5,816.4h-2.1v2.7h-2.2v-2.7h-6.6v-1.5l5.9-7.7h2.4l-5.6,7.4h3.9v-2.4h2.1v2.4h2.1v1.9Z"/>
        </g>
      </g>
      <g class="st5">
        <g class="st5">
          <path class="st6" d="M543.8,786.4h2.2v12h-1.8l-6.6-8.1v8.1h-2.2v-12h1.8l6.6,8.1v-8.1ZM547.4,789.1c0-1.6,1.3-2.8,3.1-2.8s3.1,1.2,3.1,2.8-1.3,2.8-3.1,2.8-3.1-1.2-3.1-2.8ZM547.8,793.1h5.6v1.4h-5.6v-1.4ZM548.9,789.1c0,.9.7,1.6,1.7,1.6s1.7-.6,1.7-1.6-.7-1.6-1.7-1.6-1.7.6-1.7,1.6Z"/>
          <path class="st6" d="M559.8,786.4v12h-2.2v-10.1h-2.5v-1.9h4.8Z"/>
          <path class="st6" d="M566.3,786.4v12h-2.2v-10.1h-2.5v-1.9h4.8Z"/>
          <path class="st6" d="M577.4,794.7c0,2.1-1.5,3.8-4.7,3.8s-3.4-.5-4.5-1.4l.9-1.7c.9.7,2.2,1.2,3.5,1.2s2.5-.7,2.5-1.8-.7-1.9-3.2-1.9h-2.9l.6-6.5h7v1.9h-5.1l-.3,2.8h1.1c3.5,0,5,1.5,5,3.7Z"/>
        </g>
      </g>
      <g class="st5">
        <g class="st5">
          <path class="st6" d="M376.9,786.5h2.2v12h-1.8l-6.6-8.1v8.1h-2.2v-12h1.8l6.6,8.1v-8.1ZM380.5,789.2c0-1.6,1.3-2.8,3.1-2.8s3.1,1.2,3.1,2.8-1.3,2.8-3.1,2.8-3.1-1.2-3.1-2.8ZM380.9,793.2h5.6v1.4h-5.6v-1.4ZM382,789.2c0,.9.7,1.6,1.7,1.6s1.7-.6,1.7-1.6-.7-1.6-1.7-1.6-1.7.6-1.7,1.6Z"/>
          <path class="st6" d="M392.9,786.5v12h-2.2v-10.1h-2.5v-1.9h4.8Z"/>
          <path class="st6" d="M399.4,786.5v12h-2.2v-10.1h-2.5v-1.9h4.8Z"/>
          <path class="st6" d="M411.4,794.8c0,2.4-1.9,3.9-4.4,3.9s-5.2-2.1-5.2-6,2.4-6.4,5.9-6.4,2.3.3,3.1.8l-.8,1.7c-.6-.4-1.4-.6-2.3-.6-2.3,0-3.7,1.4-3.7,4.1h0c.7-.8,1.9-1.2,3.2-1.2,2.4,0,4.1,1.4,4.1,3.7ZM409.2,794.9c0-1.2-.9-2-2.4-2s-2.4.9-2.4,2.1.9,2,2.5,2,2.3-.8,2.3-2Z"/>
        </g>
      </g>
      <g class="st5">
        <g class="st5">
          <path class="st6" d="M565.7,466.5h2.2v12h-1.8l-6.6-8.1v8.1h-2.2v-12h1.8l6.6,8.1v-8.1ZM569.3,469.2c0-1.6,1.3-2.8,3.1-2.8s3.1,1.2,3.1,2.8-1.3,2.8-3.1,2.8-3.1-1.2-3.1-2.8ZM569.6,473.2h5.6v1.4h-5.6v-1.4ZM570.8,469.2c0,.9.7,1.6,1.7,1.6s1.7-.6,1.7-1.6-.7-1.6-1.7-1.6-1.7.6-1.7,1.6Z"/>
          <path class="st6" d="M581.7,466.5v12h-2.2v-10.1h-2.5v-1.9h4.8Z"/>
          <path class="st6" d="M584,472.5c0-3.9,2.2-6.2,5-6.2s5,2.2,5,6.2-2.2,6.2-5,6.2-5-2.2-5-6.2ZM591.8,472.5c0-2.9-1.1-4.2-2.8-4.2s-2.8,1.3-2.8,4.2,1.1,4.2,2.8,4.2,2.8-1.3,2.8-4.2Z"/>
          <path class="st6" d="M603.9,474.9c0,2-1.5,3.8-4.7,3.8s-3.4-.5-4.5-1.4l1-1.7c.9.7,2.2,1.2,3.5,1.2s2.5-.7,2.5-1.8-.8-1.8-2.6-1.8h-1.1v-1.5l2.7-3.2h-5.4v-1.9h8.2v1.5l-2.9,3.5c2.3.3,3.4,1.6,3.4,3.4Z"/>
        </g>
      </g>
      <g class="st5">
        <g class="st5">
          <path class="st6" d="M567.3,499.4h2.2v12h-1.8l-6.6-8.1v8.1h-2.2v-12h1.8l6.6,8.1v-8.1ZM570.9,502.1c0-1.6,1.3-2.8,3.1-2.8s3.1,1.2,3.1,2.8-1.3,2.8-3.1,2.8-3.1-1.2-3.1-2.8ZM571.2,506.1h5.6v1.4h-5.6v-1.4ZM572.4,502.1c0,.9.7,1.6,1.7,1.6s1.7-.6,1.7-1.6-.7-1.6-1.7-1.6-1.7.6-1.7,1.6Z"/>
          <path class="st6" d="M583.3,499.4v12h-2.2v-10.1h-2.5v-1.9h4.8Z"/>
          <path class="st6" d="M585.6,505.4c0-3.9,2.2-6.2,5-6.2s5,2.2,5,6.2-2.2,6.2-5,6.2-5-2.2-5-6.2ZM593.4,505.4c0-2.9-1.1-4.2-2.8-4.2s-2.8,1.3-2.8,4.2,1.1,4.2,2.8,4.2,2.8-1.3,2.8-4.2Z"/>
          <path class="st6" d="M607.8,508.6h-2.1v2.7h-2.2v-2.7h-6.6v-1.5l5.9-7.7h2.4l-5.6,7.4h3.9v-2.4h2.1v2.4h2.1v1.9Z"/>
        </g>
      </g>
      <g class="st5">
        <g class="st5">
          <path class="st6" d="M350,379.8h2.2v12h-1.8l-6.6-8.1v8.1h-2.2v-12h1.8l6.6,8.1v-8.1ZM353.6,382.5c0-1.6,1.3-2.8,3.1-2.8s3.1,1.2,3.1,2.8-1.3,2.8-3.1,2.8-3.1-1.2-3.1-2.8ZM354,386.5h5.6v1.4h-5.6v-1.4ZM355.1,382.5c0,.9.7,1.6,1.7,1.6s1.7-.6,1.7-1.6-.7-1.6-1.7-1.6-1.7.6-1.7,1.6Z"/>
          <path class="st6" d="M366,379.8v12h-2.2v-10.1h-2.5v-1.9h4.8Z"/>
          <path class="st6" d="M368.4,385.8c0-3.9,2.2-6.2,5-6.2s5,2.2,5,6.2-2.2,6.2-5,6.2-5-2.2-5-6.2ZM376.2,385.8c0-2.9-1.1-4.2-2.8-4.2s-2.8,1.3-2.8,4.2,1.1,4.2,2.8,4.2,2.8-1.3,2.8-4.2Z"/>
          <path class="st6" d="M379.9,385.8c0-3.9,2.2-6.2,5-6.2s5,2.2,5,6.2-2.2,6.2-5,6.2-5-2.2-5-6.2ZM387.7,385.8c0-2.9-1.1-4.2-2.8-4.2s-2.8,1.3-2.8,4.2,1.1,4.2,2.8,4.2,2.8-1.3,2.8-4.2Z"/>
        </g>
      </g>
    </g>
  </g>
</svg>