<?xml version="1.0" encoding="UTF-8"?>
<svg id="_Слой_1" xmlns="http://www.w3.org/2000/svg" version="1.1" viewBox="0 0 1461.95 1149.14">
  <!-- Generator: Adobe Illustrator 29.4.0, SVG Export Plug-In . SVG Version: 2.1.0 Build 152)  -->
  <defs>
    <style>
      .st0 {
        stroke: #d14a4a;
        stroke-miterlimit: 10;
        stroke-width: 2.8px;
      }

      .st0, .st1 {
        fill: #fff;
      }

      .st0, .st1, .st2 {
        fill-rule: evenodd;
      }

      .st3 {
        fill: #7fba27;
      }

      .st4 {
        fill: #f3f3ef;
      }

      .st2 {
        fill: #d14a4a;
      }

      .st5 {
        display: none;
      }
    </style>
  </defs>
  <polygon id="main-0-floor" class="st0" points="17.38 693.61 1444.57 693.61 1444.57 492.96 17.38 492.96 17.38 693.61"/>
  <polygon id="open-space-1" class="st0" points="17.38 576.09 97.83 576.09 97.83 492.96 17.38 492.96 17.38 576.09"/>
  <polygon id="open-space-11" class="st0" points="97.83 576.09 175.67 576.09 175.67 492.96 97.83 492.96 97.83 576.09"/>
  <polygon id="open-space-12" class="st0" points="175.67 576.09 253.51 576.09 253.51 492.96 175.67 492.96 175.67 576.09"/>
  <polygon id="open-space-13" class="st0" points="253.51 576.09 331.35 576.09 331.35 492.96 253.51 492.96 253.51 576.09"/>
  <polygon id="open-space-14" class="st0" points="332.12 576.09 406.85 576.09 406.85 492.96 332.12 492.96 332.12 576.09"/>
  <polygon id="open-space-15" class="st0" points="406.64 576.09 485.08 576.09 485.08 492.96 406.64 492.96 406.64 576.09"/>
  <polygon id="open-space-16" class="st0" points="485.08 576.09 562.72 576.09 562.72 492.96 485.08 492.96 485.08 576.09"/>
  <polygon id="open-space-17" class="st0" points="578.09 576.09 733.94 576.09 733.94 492.96 578.09 492.96 578.09 576.09"/>
  <polygon id="_x30_18" class="st0" points="656.01 693.61 733.6 693.61 733.6 610.48 656.01 610.48 656.01 693.61"/>
  <polygon id="_x30_181" class="st0" points="578.09 693.61 656.01 693.61 656.01 610.48 578.09 610.48 578.09 693.61"/>
  <polygon id="_x30_182" class="st0" points="408.6 693.61 562.72 693.61 562.72 610.48 408.6 610.48 408.6 693.61"/>
  <polygon id="_x30_183" class="st0" points="331.35 693.61 408.41 693.61 408.41 610.48 331.35 610.48 331.35 693.61"/>
  <polygon id="_x30_184" class="st0" points="253.9 693.61 330.96 693.61 330.96 610.48 253.9 610.48 253.9 693.61"/>
  <polygon id="_x30_185" class="st0" points="177.49 693.61 253.12 693.61 253.12 610.48 177.49 610.48 177.49 693.61"/>
  <polygon id="_x30_186" class="st0" points="100.17 693.61 177.49 693.61 177.49 610.48 100.17 610.48 100.17 693.61"/>
  <polygon id="_x30_187" class="st0" points="771.43 693.61 808.93 693.61 808.93 610.48 771.43 610.48 771.43 693.61"/>
  <polygon id="_x30_188" class="st0" points="733.94 693.61 771.43 693.61 771.43 610.48 733.94 610.48 733.94 693.61"/>
  <polygon id="_x30_13" class="st0" points="733.94 576.09 808.93 576.09 808.93 492.96 733.94 492.96 733.94 576.09"/>
  <polygon id="_x30_06" class="st0" points="1042.78 693.61 1120.36 693.61 1120.36 610.48 1042.78 610.48 1042.78 693.61"/>
  <polygon id="_x30_061" class="st0" points="887.11 693.61 1042.41 693.61 1042.41 610.48 887.11 610.48 887.11 693.61"/>
  <polygon id="_x30_062" class="st0" points="1289.48 693.61 1445.03 693.61 1445.03 610.48 1289.48 610.48 1289.48 693.61"/>
  <polygon id="_x30_063" class="st0" points="1132.71 693.61 1289.48 693.61 1289.48 610.48 1132.71 610.48 1132.71 693.61"/>
  <polygon id="_x30_07" class="st0" points="1132.71 576.09 1211.09 576.09 1211.09 492.96 1132.71 492.96 1132.71 576.09"/>
  <polygon id="_x30_09" class="st0" points="1211.09 576.09 1289.48 576.09 1289.48 492.96 1211.09 492.96 1211.09 576.09"/>
  <polygon id="_x30_11" class="st0" points="1289.48 576.09 1366.98 576.09 1366.98 492.96 1289.48 492.96 1289.48 576.09"/>
  <polygon id="_x30_131" class="st0" points="887.11 576.14 964.17 576.14 964.17 493.01 887.11 493.01 887.11 576.14"/>
  <polygon id="_x30_132" class="st0" points="964.17 576.14 1041.23 576.14 1041.23 493.01 964.17 493.01 964.17 576.14"/>
  <polygon id="_x30_133" class="st0" points="1041.23 576.14 1120.36 576.14 1120.36 493.01 1041.23 493.01 1041.23 576.14"/>
  <g id="toilet-icon">
    <path class="st2" d="M52.21,523.37h14.5c2.2,0,3.9,1.9,3.9,4.1v14.1c0,2.3-1.8,4.1-3.9,4.1h-14.5c-2.2,0-3.9-1.9-3.9-4.1v-14.1c0-2.3,1.8-4.1,3.9-4.1Z"/>
    <path class="st4" d="M55.91,529.67h-3.3c-.8,0-1.4.6-1.4,1.4v4.6c0,.3.2.6.6.6h0c.3,0,.6-.3.6-.6v-4.6h0v10.5c0,.4.3.7.7.7s.7-.3.7-.7v-6h.3v6c0,.4.3.7.7.7s.7-.3.7-.7v-10.5h0v4.6c0,.3.3.6.6.6h0c.3,0,.6-.3.6-.6v-4.6h0c0-.8-.6-1.4-1.4-1.4h.6Z"/>
    <circle class="st4" cx="54.21" cy="528.07" r="1.2"/>
    <path class="st4" d="M68.01,534.77s-1.1-3.2-1.3-3.8c-.3-.8-.7-1.2-1.4-1.2h-2.2c-.6,0-1.1.4-1.4,1.2-.2.5-1.3,3.7-1.3,3.8,0,.3,0,.7.4.8.3,0,.7,0,.8-.4,0,0,.7-2,1.1-3.1,0,.3,0-.3-.9,4.6,0,.2,0,.4.3.4h.5v4.4c0,.4.3.7.7.7s.7-.3.7-.7v-4.4h.3v4.4c0,.4.3.7.7.7s.7-.3.7-.7v-4.4h.5c.2,0,.4-.2.3-.4-.9-4.9-.8-4.3-.8-4.6.4,1.1,1,3,1,3.1,0,.3.5.5.8.4s.5-.4.4-.8h.1Z"/>
    <circle class="st4" cx="64.11" cy="528.1" r="1.2" transform="translate(-467.08 556.91) rotate(-86.18)"/>
    <path class="st4" d="M59.01,527.57c-.3,0-.5.2-.5.5v13c0,.3.2.5.5.5s.5-.2.5-.5v-13c0-.3-.2-.5-.5-.5Z"/>
  </g>
  <g id="toilet-icon1">
    <path class="st2" d="M1073.54,523.37h14.5c2.2,0,3.9,1.9,3.9,4.1v14.1c0,2.3-1.8,4.1-3.9,4.1h-14.5c-2.2,0-3.9-1.9-3.9-4.1v-14.1c0-2.3,1.8-4.1,3.9-4.1Z"/>
    <path class="st4" d="M1077.24,529.67h-3.3c-.8,0-1.4.6-1.4,1.4v4.6c0,.3.2.6.6.6h0c.3,0,.6-.3.6-.6v-4.6h0v10.5c0,.4.3.7.7.7s.7-.3.7-.7v-6h.3v6c0,.4.3.7.7.7s.7-.3.7-.7v-10.5h0v4.6c0,.3.3.6.6.6h0c.3,0,.6-.3.6-.6v-4.6h0c0-.8-.6-1.4-1.4-1.4h.6Z"/>
    <circle class="st4" cx="1075.54" cy="528.07" r="1.2"/>
    <path class="st4" d="M1089.34,534.77s-1.1-3.2-1.3-3.8c-.3-.8-.7-1.2-1.4-1.2h-2.2c-.6,0-1.1.4-1.4,1.2-.2.5-1.3,3.7-1.3,3.8,0,.3,0,.7.4.8.3,0,.7,0,.8-.4,0,0,.7-2,1.1-3.1,0,.3,0-.3-.9,4.6,0,.2,0,.4.3.4h.5v4.4c0,.4.3.7.7.7s.7-.3.7-.7v-4.4h.3v4.4c0,.4.3.7.7.7s.7-.3.7-.7v-4.4h.5c.2,0,.4-.2.3-.4-.9-4.9-.8-4.3-.8-4.6.4,1.1,1,3,1,3.1,0,.3.5.5.8.4s.5-.4.4-.8h.1Z"/>
    <circle class="st4" cx="1085.44" cy="528.07" r="1.2"/>
    <path class="st4" d="M1080.34,527.57c-.3,0-.5.2-.5.5v13c0,.3.2.5.5.5s.5-.2.5-.5v-13c0-.3-.2-.5-.5-.5Z"/>
  </g>
  <g id="stairs-icon_29">
    <path class="st2" d="M840.77,522.92h14.5c2.2,0,3.9,1.9,3.9,4.1v14.1c0,2.3-1.8,4.1-3.9,4.1h-14.5c-2.2,0-3.9-1.9-3.9-4.1v-14.1c0-2.3,1.8-4.1,3.9-4.1Z"/>
    <polygon class="st4" points="854.57 535.52 854.57 534.52 853.47 534.52 850.97 534.52 849.87 535.52 852.87 535.52 850.47 537.92 851.17 538.72 853.47 536.32 853.47 539.22 854.57 538.02 854.57 535.52"/>
    <polygon class="st4" points="844.07 537.52 846.87 537.52 846.87 534.72 849.67 534.72 849.67 531.72 852.67 531.72 852.67 528.92 855.47 528.92 855.47 527.82 851.47 527.82 851.47 530.62 848.47 530.62 848.47 533.72 845.67 533.72 845.67 536.42 842.97 536.42 842.97 539.22 840.57 539.22 840.57 540.32 844.07 540.32 844.07 537.52"/>
  </g>
  <g id="stairs-icon_291">
    <path class="st2" d="M1399.64,522.92h14.5c2.2,0,3.9,1.9,3.9,4.1v14.1c0,2.3-1.8,4.1-3.9,4.1h-14.5c-2.2,0-3.9-1.9-3.9-4.1v-14.1c0-2.3,1.8-4.1,3.9-4.1Z"/>
    <polygon class="st4" points="1413.44 535.52 1413.44 534.52 1412.34 534.52 1409.84 534.52 1408.74 535.52 1411.74 535.52 1409.34 537.92 1410.04 538.72 1412.34 536.32 1412.34 539.22 1413.44 538.02 1413.44 535.52"/>
    <polygon class="st4" points="1402.94 537.52 1405.74 537.52 1405.74 534.72 1408.54 534.72 1408.54 531.72 1411.54 531.72 1411.54 528.92 1414.34 528.92 1414.34 527.82 1410.34 527.82 1410.34 530.62 1407.34 530.62 1407.34 533.72 1404.54 533.72 1404.54 536.42 1401.84 536.42 1401.84 539.22 1399.44 539.22 1399.44 540.32 1402.94 540.32 1402.94 537.52"/>
  </g>
  <g id="stairs-icon_292">
    <path class="st2" d="M50.36,645.36h14.5c2.2,0,3.9,1.9,3.9,4.1v14.1c0,2.3-1.8,4.1-3.9,4.1h-14.5c-2.2,0-3.9-1.9-3.9-4.1v-14.1c0-2.3,1.8-4.1,3.9-4.1Z"/>
    <polygon class="st4" points="64.16 657.96 64.16 656.96 63.06 656.96 60.56 656.96 59.46 657.96 62.46 657.96 60.06 660.36 60.76 661.16 63.06 658.76 63.06 661.66 64.16 660.46 64.16 657.96"/>
    <polygon class="st4" points="53.66 659.96 56.46 659.96 56.46 657.16 59.26 657.16 59.26 654.16 62.26 654.16 62.26 651.36 65.06 651.36 65.06 650.26 61.06 650.26 61.06 653.06 58.06 653.06 58.06 656.16 55.26 656.16 55.26 658.86 52.56 658.86 52.56 661.66 50.16 661.66 50.16 662.76 53.66 662.76 53.66 659.96"/>
  </g>
  <g id="doors">
    <path id="path1330" class="st1" d="M1316.98,610.08h22.5v-1.1h-22.5v1.1ZM1316.98,610.08v-3.9h-2v3.9h2ZM1339.48,610.08h2v-3.9h-2v3.9ZM1339.48,610.08v11.3h-2v-11.3h2ZM1316.98,610.08v11.3h2v-11.3h-2Z"/>
    <path id="path13301" class="st1" d="M1160.65,610.08h22.5v-1.1h-22.5v1.1ZM1160.65,610.08v-3.9h-2v3.9h2ZM1183.15,610.08h2v-3.9h-2v3.9ZM1183.15,610.08v11.3h-2v-11.3h2ZM1160.65,610.08v11.3h2v-11.3h-2Z"/>
    <path id="path13302" class="st1" d="M1070.49,610.09h22.5v-1.1h-22.5v1.1ZM1070.49,610.09v-3.9h-2v3.9h2ZM1092.99,610.09h2v-3.9h-2v3.9ZM1092.99,610.09v11.3h-2v-11.3h2ZM1070.49,610.09v11.3h2v-11.3h-2Z"/>
    <path id="path13303" class="st1" d="M886.73,641.24v-22.5h-1.1v22.5h1.1ZM886.73,641.24h-3.9v2h3.9v-2ZM886.73,618.74v-2h-3.9v2h3.9ZM886.73,618.74h11.3v2h-11.3v-2ZM886.73,641.24h11.3v-2h-11.3v2Z"/>
    <path id="path13304" class="st1" d="M778.93,610.13h22.5v-1.1h-22.5v1.1ZM778.93,610.13v-3.9h-2v3.9h2ZM801.43,610.13h2v-3.9h-2v3.9ZM801.43,610.13v11.3h-2v-11.3h2ZM778.93,610.13v11.3h2v-11.3h-2Z"/>
    <path id="path13305" class="st1" d="M741.43,610.15h22.5v-1.1h-22.5v1.1ZM741.43,610.15v-3.9h-2v3.9h2ZM763.93,610.15h2v-3.9h-2v3.9ZM763.93,610.15v11.3h-2v-11.3h2ZM741.43,610.15v11.3h2v-11.3h-2Z"/>
    <path id="path13306" class="st1" d="M683.55,610.09h22.5v-1.1h-22.5v1.1ZM683.55,610.09v-3.9h-2v3.9h2ZM706.05,610.09h2v-3.9h-2v3.9ZM706.05,610.09v11.3h-2v-11.3h2ZM683.55,610.09v11.3h2v-11.3h-2Z"/>
    <path id="path13307" class="st1" d="M605.8,610.09h22.5v-1.1h-22.5v1.1ZM605.8,610.09v-3.9h-2v3.9h2ZM628.3,610.09h2v-3.9h-2v3.9ZM628.3,610.09v11.3h-2v-11.3h2ZM605.8,610.09v11.3h2v-11.3h-2Z"/>
    <path id="path13308" class="st1" d="M512.65,610.09h22.5v-1.1h-22.5v1.1ZM512.65,610.09v-3.9h-2v3.9h2ZM535.15,610.09h2v-3.9h-2v3.9ZM535.15,610.09v11.3h-2v-11.3h2ZM512.65,610.09v11.3h2v-11.3h-2Z"/>
    <path id="path13309" class="st1" d="M358.63,610.09h22.5v-1.1h-22.5v1.1ZM358.63,610.09v-3.9h-2v3.9h2ZM381.13,610.09h2v-3.9h-2v3.9ZM381.13,610.09v11.3h-2v-11.3h2ZM358.63,610.09v11.3h2v-11.3h-2Z"/>
    <path id="path133010" class="st1" d="M281.18,610.09h22.5v-1.1h-22.5v1.1ZM281.18,610.09v-3.9h-2v3.9h2ZM303.68,610.09h2v-3.9h-2v3.9ZM303.68,610.09v11.3h-2v-11.3h2ZM281.18,610.09v11.3h2v-11.3h-2Z"/>
    <path id="path133011" class="st1" d="M203.34,610.09h22.5v-1.1h-22.5v1.1ZM203.34,610.09v-3.9h-2v3.9h2ZM225.84,610.09h2v-3.9h-2v3.9ZM225.84,610.09v11.3h-2v-11.3h2ZM203.34,610.09v11.3h2v-11.3h-2Z"/>
    <path id="path133012" class="st1" d="M125.5,610.09h22.5v-1.1h-22.5v1.1ZM125.5,610.09v-3.9h-2v3.9h2ZM148,610.09h2v-3.9h-2v3.9ZM148,610.09v11.3h-2v-11.3h2ZM125.5,610.09v11.3h2v-11.3h-2Z"/>
    <path id="path133013" class="st1" d="M67.96,576.44h-22.5v1.1h22.5v-1.1ZM67.96,576.44v3.9h2v-3.9h-2ZM45.46,576.44h-2v3.9h2v-3.9ZM45.46,576.44v-11.3h2v11.3h-2ZM67.96,576.44v-11.3h-2v11.3h2Z"/>
    <path id="path133014" class="st1" d="M148,576.44h-22.5v1.1h22.5v-1.1ZM148,576.44v3.9h2v-3.9h-2ZM125.5,576.44h-2v3.9h2v-3.9ZM125.5,576.44v-11.3h2v11.3h-2ZM148,576.44v-11.3h-2v11.3h2Z"/>
    <path id="path133015" class="st1" d="M225.84,576.44h-22.5v1.1h22.5v-1.1ZM225.84,576.44v3.9h2v-3.9h-2ZM203.34,576.44h-2v3.9h2v-3.9ZM203.34,576.44v-11.3h2v11.3h-2ZM225.84,576.44v-11.3h-2v11.3h2Z"/>
    <path id="path133016" class="st1" d="M303.68,576.44h-22.5v1.1h22.5v-1.1ZM303.68,576.44v3.9h2v-3.9h-2ZM281.18,576.44h-2v3.9h2v-3.9ZM281.18,576.44v-11.3h2v11.3h-2ZM303.68,576.44v-11.3h-2v11.3h2Z"/>
    <path id="path133017" class="st1" d="M381.13,576.44h-22.5v1.1h22.5v-1.1ZM381.13,576.44v3.9h2v-3.9h-2ZM358.63,576.44h-2v3.9h2v-3.9ZM358.63,576.44v-11.3h2v11.3h-2ZM381.13,576.44v-11.3h-2v11.3h2Z"/>
    <path id="path133018" class="st1" d="M457.11,576.44h-22.5v1.1h22.5v-1.1ZM457.11,576.44v3.9h2v-3.9h-2ZM434.61,576.44h-2v3.9h2v-3.9ZM434.61,576.44v-11.3h2v11.3h-2ZM457.11,576.44v-11.3h-2v11.3h2Z"/>
    <path id="path133019" class="st1" d="M535.15,576.44h-22.5v1.1h22.5v-1.1ZM535.15,576.44v3.9h2v-3.9h-2ZM512.65,576.44h-2v3.9h2v-3.9ZM512.65,576.44v-11.3h2v11.3h-2ZM535.15,576.44v-11.3h-2v11.3h2Z"/>
    <path id="path133020" class="st1" d="M628.29,576.44h-22.5v1.1h22.5v-1.1ZM628.29,576.44v3.9h2v-3.9h-2ZM605.79,576.44h-2v3.9h2v-3.9ZM605.79,576.44v-11.3h2v11.3h-2ZM628.29,576.44v-11.3h-2v11.3h2Z"/>
    <path id="path133021" class="st1" d="M782.68,576.44h-22.5v1.1h22.5v-1.1ZM782.68,576.44v3.9h2v-3.9h-2ZM760.18,576.44h-2v3.9h2v-3.9ZM760.18,576.44v-11.3h2v11.3h-2ZM782.68,576.44v-11.3h-2v11.3h2Z"/>
    <path id="path133022" class="st1" d="M936.89,576.44h-22.5v1.1h22.5v-1.1ZM936.89,576.44v3.9h2v-3.9h-2ZM914.39,576.44h-2v3.9h2v-3.9ZM914.39,576.44v-11.3h2v11.3h-2ZM936.89,576.44v-11.3h-2v11.3h2Z"/>
    <path id="path133023" class="st1" d="M1013.95,576.44h-22.5v1.1h22.5v-1.1ZM1013.95,576.44v3.9h2v-3.9h-2ZM991.45,576.44h-2v3.9h2v-3.9ZM991.45,576.44v-11.3h2v11.3h-2ZM1013.95,576.44v-11.3h-2v11.3h2Z"/>
    <path id="path133024" class="st1" d="M1092.99,576.44h-22.5v1.1h22.5v-1.1ZM1092.99,576.44v3.9h2v-3.9h-2ZM1070.49,576.44h-2v3.9h2v-3.9ZM1070.49,576.44v-11.3h2v11.3h-2ZM1092.99,576.44v-11.3h-2v11.3h2Z"/>
    <path id="path133025" class="st1" d="M1183.15,576.44h-22.5v1.1h22.5v-1.1ZM1183.15,576.44v3.9h2v-3.9h-2ZM1160.65,576.44h-2v3.9h2v-3.9ZM1160.65,576.44v-11.3h2v11.3h-2ZM1183.15,576.44v-11.3h-2v11.3h2Z"/>
    <path id="path133026" class="st1" d="M1261.53,576.44h-22.5v1.1h22.5v-1.1ZM1261.53,576.44v3.9h2v-3.9h-2ZM1239.03,576.44h-2v3.9h2v-3.9ZM1239.03,576.44v-11.3h2v11.3h-2ZM1261.53,576.44v-11.3h-2v11.3h2Z"/>
    <path id="path133027" class="st1" d="M1339.48,576.44h-22.5v1.1h22.5v-1.1ZM1339.48,576.44v3.9h2v-3.9h-2ZM1316.98,576.44h-2v3.9h2v-3.9ZM1316.98,576.44v-11.3h2v11.3h-2ZM1339.48,576.44v-11.3h-2v11.3h2Z"/>
  </g>
  <g id="points" class="st5">
    <circle id="p-1" class="st3" cx="617.05" cy="592.99" r="6.6"/>
    <circle id="p-11" class="st3" cx="617.05" cy="610.48" r="6.6"/>
    <circle id="p-12" class="st3" cx="617.05" cy="576.09" r="6.6"/>
    <circle id="p-13" class="st3" cx="694.8" cy="592.99" r="6.6"/>
    <circle id="p-14" class="st3" cx="694.8" cy="610.48" r="6.6"/>
    <circle id="p-15" class="st3" cx="752.68" cy="592.99" r="6.6"/>
    <circle id="p-16" class="st3" cx="752.68" cy="610.48" r="6.6"/>
    <circle id="p-17" class="st3" cx="771.56" cy="592.99" r="6.6"/>
    <circle id="p-18" class="st3" cx="771.56" cy="576.09" r="6.6"/>
    <circle id="p-19" class="st3" cx="790.18" cy="592.99" r="6.6"/>
    <circle id="p-110" class="st3" cx="790.18" cy="610.48" r="6.6"/>
    <circle id="p-111" class="st3" cx="848.02" cy="592.99" r="6.6"/>
    <circle id="p-112" class="st3" cx="848.02" cy="629.99" r="6.6"/>
    <circle id="p-113" class="st3" cx="887.53" cy="629.99" r="6.6"/>
    <circle id="p-114" class="st3" cx="925.64" cy="592.99" r="6.6"/>
    <circle id="p-115" class="st3" cx="925.64" cy="576.09" r="6.6"/>
    <circle id="p-116" class="st3" cx="1002.7" cy="592.99" r="6.6"/>
    <circle id="p-117" class="st3" cx="1002.7" cy="576.09" r="6.6"/>
    <circle id="p-118" class="st3" cx="1081.57" cy="592.99" r="6.6"/>
    <circle id="p-119" class="st3" cx="1081.57" cy="610.48" r="6.6"/>
    <circle id="p-120" class="st3" cx="1081.57" cy="576.09" r="6.6"/>
    <circle id="p-121" class="st3" cx="1171.9" cy="592.99" r="6.6"/>
    <circle id="p-122" class="st3" cx="1171.9" cy="610.48" r="6.6"/>
    <circle id="p-123" class="st3" cx="1171.9" cy="576.09" r="6.6"/>
    <circle id="p-124" class="st3" cx="1250.28" cy="592.99" r="6.6"/>
    <circle id="p-125" class="st3" cx="1250.28" cy="576.09" r="6.6"/>
    <circle id="p-126" class="st3" cx="1328.23" cy="592.99" r="6.6"/>
    <circle id="p-127" class="st3" cx="1328.23" cy="610.48" r="6.6"/>
    <circle id="p-128" class="st3" cx="1328.23" cy="576.09" r="6.6"/>
    <circle id="p-129" class="st3" cx="523.9" cy="592.99" r="6.6"/>
    <circle id="p-130" class="st3" cx="523.9" cy="610.48" r="6.6"/>
    <circle id="p-131" class="st3" cx="523.9" cy="576.09" r="6.6"/>
    <circle id="p-132" class="st3" cx="445.86" cy="592.99" r="6.6"/>
    <circle id="p-133" class="st3" cx="445.86" cy="576.09" r="6.6"/>
    <circle id="p-134" class="st3" cx="369.88" cy="592.99" r="6.6"/>
    <circle id="p-135" class="st3" cx="369.88" cy="610.48" r="6.6"/>
    <circle id="p-136" class="st3" cx="369.88" cy="576.09" r="6.6"/>
    <circle id="p-137" class="st3" cx="292.43" cy="592.99" r="6.6"/>
    <circle id="p-138" class="st3" cx="292.43" cy="610.48" r="6.6"/>
    <circle id="p-139" class="st3" cx="292.43" cy="576.09" r="6.6"/>
    <circle id="p-140" class="st3" cx="214.59" cy="592.99" r="6.6"/>
    <circle id="p-141" class="st3" cx="214.59" cy="610.48" r="6.6"/>
    <circle id="p-142" class="st3" cx="214.59" cy="576.09" r="6.6"/>
    <circle id="p-143" class="st3" cx="136.75" cy="592.99" r="6.6"/>
    <circle id="p-144" class="st3" cx="136.75" cy="610.48" r="6.6"/>
    <circle id="p-145" class="st3" cx="136.75" cy="576.09" r="6.6"/>
    <circle id="p-146" class="st3" cx="56.71" cy="592.99" r="6.6"/>
    <circle id="p-147" class="st3" cx="56.71" cy="576.09" r="6.6"/>
  </g>
</svg>