<?xml version="1.0" encoding="UTF-8"?>
<svg id="_Слой_1" xmlns="http://www.w3.org/2000/svg" version="1.1" viewBox="0 0 1461.95 1149.14">
  <!-- Generator: Adobe Illustrator 29.4.0, SVG Export Plug-In . SVG Version: 2.1.0 Build 152)  -->
  <defs>
    <style>
      .st0 {
        stroke: #d14a4a;
        stroke-miterlimit: 10;
        stroke-width: 2.8px;
      }

      .st0, .st1 {
        fill: #fff;
      }

      .st0, .st1, .st2, .st3 {
        fill-rule: evenodd;
      }

      .st4 {
        fill: #7fba27;
      }

      .st5, .st3 {
        fill: #f3f3ef;
      }

      .st2 {
        fill: #d14a4a;
      }

      .st6 {
        display: none;
      }
    </style>
  </defs>
  <polygon id="main-0-floor" class="st0" points="17.38 693.61 1444.57 693.61 1444.57 492.96 17.38 492.96 17.38 693.61"/>
  <polygon id="open-space-1" class="st0" points="17.38 693.61 252.28 693.61 252.28 492.96 17.38 492.96 17.38 693.61"/>
  <polygon id="open-space-2" class="st0" points="252.28 693.61 403.98 693.61 403.98 610.48 484.02 610.48 484.02 576.09 403.98 576.09 403.98 492.96 252.28 492.96 252.28 693.61"/>
  <polygon id="open-space-2_x2F_1" class="st0" points="403.98 576.09 484.02 576.09 484.02 492.96 403.98 492.96 403.98 576.09"/>
  <polygon id="open-space-2_x2F_2" class="st0" points="403.98 693.61 484.02 693.61 484.02 610.48 403.98 610.48 403.98 693.61"/>
  <polygon id="obj-020" class="st0" points="484.02 693.61 559.87 693.61 559.87 610.48 484.02 610.48 484.02 693.61"/>
  <polygon id="obj-018" class="st0" points="575.06 693.61 654.33 693.61 654.33 610.48 575.06 610.48 575.06 693.61"/>
  <polygon id="obj-016" class="st0" points="653.02 693.61 730.97 693.61 730.97 610.48 653.02 610.48 653.02 693.61"/>
  <polygon id="obj-015" class="st0" points="653.02 576.09 730.97 576.09 730.97 492.96 653.02 492.96 653.02 576.09"/>
  <polygon id="obj-013" class="st0" points="730.97 576.09 808.93 576.09 808.93 492.96 730.97 492.96 730.97 576.09"/>
  <polygon id="obj-014" class="st0" points="730.97 693.61 808.93 693.61 808.93 610.48 730.97 610.48 730.97 693.61"/>
  <polygon id="obj-001" class="st0" points="808.93 693.61 886.89 693.61 886.89 610.48 808.93 610.48 808.93 693.61"/>
  <polygon id="obj-002" class="st0" points="886.89 693.61 962.06 693.61 962.06 610.48 886.89 610.48 886.89 693.61"/>
  <polygon id="obj-004" class="st0" points="962.06 693.61 1040.89 693.61 1040.89 610.48 962.06 610.48 962.06 693.61"/>
  <polygon id="obj-006" class="st0" points="1040.12 693.61 1118.17 693.61 1118.17 610.48 1040.12 610.48 1040.12 693.61"/>
  <polygon id="obj-008" class="st0" points="1132.71 693.61 1211.09 693.61 1211.09 610.48 1132.71 610.48 1132.71 693.61"/>
  <polygon id="obj-007" class="st0" points="1132.71 576.09 1211.09 576.09 1211.09 492.96 1132.71 492.96 1132.71 576.09"/>
  <polygon id="obj-005" class="st0" points="962.28 576.09 1040.67 576.09 1040.67 492.96 962.28 492.96 962.28 576.09"/>
  <polygon id="obj-009" class="st0" points="1211.09 576.09 1289.48 576.09 1289.48 492.96 1211.09 492.96 1211.09 576.09"/>
  <polygon id="obj-011" class="st0" points="1289.48 576.09 1358.2 576.09 1358.2 492.96 1289.48 492.96 1289.48 576.09"/>
  <polygon id="obj-010" class="st0" points="1209.88 693.61 1287.05 693.61 1287.05 610.48 1209.88 610.48 1209.88 693.61"/>
  <polygon id="obj-012" class="st0" points="1287.05 693.61 1444.57 693.61 1444.57 610.48 1444.31 576.09 1383.55 576.09 1383.23 610.48 1287.05 610.48 1287.05 693.61"/>
  <polygon id="obj-017" class="st0" points="483.94 576.09 559.79 576.09 559.79 492.96 483.94 492.96 483.94 576.09"/>
  <polygon id="obj-tech-001" class="st0" points="926.5 576.09 962.28 576.09 962.28 492.96 926.5 492.96 926.5 576.09"/>
  <polygon id="obj-tech-002" class="st0" points="886.89 576.09 926.5 576.09 926.5 492.96 886.89 492.96 886.89 576.09"/>
  <polygon id="obj-elevator-001" class="st0" points="1358.2 576.09 1444.31 576.09 1444.31 492.96 1358.2 492.96 1358.2 576.09"/>
  <polygon id="obj-elevator-002" class="st0" points="575.06 576.09 610.07 576.09 610.07 492.96 575.06 492.96 575.06 576.09"/>
  <polygon id="obj-toilet-001" class="st0" points="1040.67 576.09 1083.48 576.09 1083.48 492.96 1040.67 492.96 1040.67 576.09"/>
  <polygon id="obj-toilet-002" class="st0" points="610.07 576.09 654.33 576.09 654.33 492.96 610.07 492.96 610.07 576.09"/>
  <g id="icons">
    <g id="elevator_x5F_icon">
      <path class="st2" d="M586.3,523.37h14.5c2.2,0,3.9,1.9,3.9,4.1v14.1c0,2.3-1.8,4.1-3.9,4.1h-14.5c-2.2,0-3.9-1.9-3.9-4.1v-14.1c0-2.3,1.8-4.1,3.9-4.1Z"/>
      <path class="st3" d="M597.8,531.07c0-.6-.5-1-1-1h-7.2c-.6,0-1,.5-1,1v10.1c0,.6.5,1,1,1h7.2c.6,0,1-.5,1-1v-10.1ZM596.7,530.67c.2,0,.3.2.3.3v10.1c0,.2-.2.3-.3.3h-7.2c-.2,0-.3-.2-.3-.3v-10.1c0-.2.2-.3.3-.3h7.2Z"/>
      <path class="st3" d="M593.1,529.87c.2,0,.3.2.3.3v11.6c0,.2-.2.3-.3.3s-.3-.2-.3-.3v-11.6c0-.2.2-.3.3-.3Z"/>
      <path class="st3" d="M589.9,527.47c0-.2.2-.3.3-.3h5.8c.2,0,.3.2.3.3v1.4c0,.2-.2.3-.3.3h-5.8c-.2,0-.3-.2-.3-.3v-1.4h0ZM590.6,527.77v.7h5.1v-.7h-5.1Z"/>
      <path class="st3" d="M599.7,537.07h.5l1-1v-.5h-.5l-.5.5v-1.7c0-.2-.2-.3-.3-.3s-.3.2-.3.3v1.7l-.5-.5h-.5v.5l1,1h.1Z"/>
      <path class="st3" d="M586,534.37h.5l1,1v.5h-.5l-.5-.5v1.7c0,.2-.2.3-.3.3s-.3-.2-.3-.3v-1.7l-.5.5h-.5v-.5l1-1h.1Z"/>
    </g>
    <g id="elevator_x5F_icon1">
      <path class="st2" d="M1394,523.37h14.5c2.2,0,3.9,1.9,3.9,4.1v14.1c0,2.3-1.8,4.1-3.9,4.1h-14.5c-2.2,0-3.9-1.9-3.9-4.1v-14.1c0-2.3,1.8-4.1,3.9-4.1Z"/>
      <path class="st3" d="M1405.5,531.07c0-.6-.5-1-1-1h-7.2c-.6,0-1,.5-1,1v10.1c0,.6.5,1,1,1h7.2c.6,0,1-.5,1-1v-10.1ZM1404.4,530.67c.2,0,.3.2.3.3v10.1c0,.2-.2.3-.3.3h-7.2c-.2,0-.3-.2-.3-.3v-10.1c0-.2.2-.3.3-.3h7.2Z"/>
      <path class="st3" d="M1400.8,529.87c.2,0,.3.2.3.3v11.6c0,.2-.2.3-.3.3s-.3-.2-.3-.3v-11.6c0-.2.2-.3.3-.3Z"/>
      <path class="st3" d="M1397.6,527.47c0-.2.2-.3.3-.3h5.8c.2,0,.3.2.3.3v1.4c0,.2-.2.3-.3.3h-5.8c-.2,0-.3-.2-.3-.3v-1.4h0ZM1398.3,527.77v.7h5.1v-.7h-5.1Z"/>
      <path class="st3" d="M1407.4,537.07h.5l1-1v-.5h-.5l-.5.5v-1.7c0-.2-.2-.3-.3-.3s-.3.2-.3.3v1.7l-.5-.5h-.5v.5l1,1h.1Z"/>
      <path class="st3" d="M1393.7,534.37h.5l1,1v.5h-.5l-.5-.5v1.7c0,.2-.2.3-.3.3s-.3-.2-.3-.3v-1.7l-.5.5h-.5v-.5l1-1h.1Z"/>
    </g>
    <g id="toilet-icon">
      <path class="st2" d="M625,523.37h14.5c2.2,0,3.9,1.9,3.9,4.1v14.1c0,2.3-1.8,4.1-3.9,4.1h-14.5c-2.2,0-3.9-1.9-3.9-4.1v-14.1c0-2.3,1.8-4.1,3.9-4.1Z"/>
      <path class="st5" d="M628.7,529.67h-3.3c-.8,0-1.4.6-1.4,1.4v4.6c0,.3.2.6.6.6h0c.3,0,.6-.3.6-.6v-4.6h0v10.5c0,.4.3.7.7.7s.7-.3.7-.7v-6h.3v6c0,.4.3.7.7.7s.7-.3.7-.7v-10.5h0v4.6c0,.3.3.6.6.6h0c.3,0,.6-.3.6-.6v-4.6h0c0-.8-.6-1.4-1.4-1.4h.6Z"/>
      <circle class="st5" cx="627" cy="528.07" r="1.2"/>
      <path class="st5" d="M640.8,534.77s-1.1-3.2-1.3-3.8c-.3-.8-.7-1.2-1.4-1.2h-2.2c-.6,0-1.1.4-1.4,1.2-.2.5-1.3,3.7-1.3,3.8,0,.3,0,.7.4.8.3,0,.7,0,.8-.4,0,0,.7-2,1.1-3.1,0,.3,0-.3-.9,4.6,0,.2,0,.4.3.4h.5v4.4c0,.4.3.7.7.7s.7-.3.7-.7v-4.4h.3v4.4c0,.4.3.7.7.7s.7-.3.7-.7v-4.4h.5c.2,0,.4-.2.3-.4-.9-4.9-.8-4.3-.8-4.6.4,1.1,1,3,1,3.1,0,.3.5.5.8.4s.5-.4.4-.8h.1Z"/>
      <circle class="st5" cx="636.9" cy="528.07" r="1.2"/>
      <path class="st5" d="M631.8,527.57c-.3,0-.5.2-.5.5v13c0,.3.2.5.5.5s.5-.2.5-.5v-13c0-.3-.2-.5-.5-.5Z"/>
    </g>
    <g id="toilet-icon1">
      <path class="st2" d="M1054.83,523.37h14.5c2.2,0,3.9,1.9,3.9,4.1v14.1c0,2.3-1.8,4.1-3.9,4.1h-14.5c-2.2,0-3.9-1.9-3.9-4.1v-14.1c0-2.3,1.8-4.1,3.9-4.1Z"/>
      <path class="st5" d="M1058.53,529.67h-3.3c-.8,0-1.4.6-1.4,1.4v4.6c0,.3.2.6.6.6h0c.3,0,.6-.3.6-.6v-4.6h0v10.5c0,.4.3.7.7.7s.7-.3.7-.7v-6h.3v6c0,.4.3.7.7.7s.7-.3.7-.7v-10.5h0v4.6c0,.3.3.6.6.6h0c.3,0,.6-.3.6-.6v-4.6h0c0-.8-.6-1.4-1.4-1.4h.6Z"/>
      <circle class="st5" cx="1056.83" cy="528.07" r="1.2"/>
      <path class="st5" d="M1070.63,534.77s-1.1-3.2-1.3-3.8c-.3-.8-.7-1.2-1.4-1.2h-2.2c-.6,0-1.1.4-1.4,1.2-.2.5-1.3,3.7-1.3,3.8,0,.3,0,.7.4.8.3,0,.7,0,.8-.4,0,0,.7-2,1.1-3.1,0,.3,0-.3-.9,4.6,0,.2,0,.4.3.4h.5v4.4c0,.4.3.7.7.7s.7-.3.7-.7v-4.4h.3v4.4c0,.4.3.7.7.7s.7-.3.7-.7v-4.4h.5c.2,0,.4-.2.3-.4-.9-4.9-.8-4.3-.8-4.6.4,1.1,1,3,1,3.1,0,.3.5.5.8.4s.5-.4.4-.8h.1Z"/>
      <circle class="st5" cx="1066.73" cy="528.07" r="1.2"/>
      <path class="st5" d="M1061.63,527.57c-.3,0-.5.2-.5.5v13c0,.3.2.5.5.5s.5-.2.5-.5v-13c0-.3-.2-.5-.5-.5Z"/>
    </g>
    <g id="stairs-icon_29">
      <path class="st2" d="M839.38,499.13h14.5c2.2,0,3.9,1.9,3.9,4.1v14.1c0,2.3-1.8,4.1-3.9,4.1h-14.5c-2.2,0-3.9-1.9-3.9-4.1v-14.1c0-2.3,1.8-4.1,3.9-4.1Z"/>
      <polygon class="st5" points="853.18 511.73 853.18 510.73 852.08 510.73 849.58 510.73 848.48 511.73 851.48 511.73 849.08 514.13 849.78 514.93 852.08 512.53 852.08 515.43 853.18 514.23 853.18 511.73"/>
      <polygon class="st5" points="842.68 513.73 845.48 513.73 845.48 510.93 848.28 510.93 848.28 507.93 851.28 507.93 851.28 505.13 854.08 505.13 854.08 504.03 850.08 504.03 850.08 506.83 847.08 506.83 847.08 509.93 844.28 509.93 844.28 512.63 841.58 512.63 841.58 515.43 839.18 515.43 839.18 516.53 842.68 516.53 842.68 513.73"/>
    </g>
    <g id="stairs-icon_291">
      <path class="st2" d="M1093.36,499.13h14.5c2.2,0,3.9,1.9,3.9,4.1v14.1c0,2.3-1.8,4.1-3.9,4.1h-14.5c-2.2,0-3.9-1.9-3.9-4.1v-14.1c0-2.3,1.8-4.1,3.9-4.1Z"/>
      <polygon class="st5" points="1107.16 511.73 1107.16 510.73 1106.06 510.73 1103.56 510.73 1102.46 511.73 1105.46 511.73 1103.06 514.13 1103.76 514.93 1106.06 512.53 1106.06 515.43 1107.16 514.23 1107.16 511.73"/>
      <polygon class="st5" points="1096.66 513.73 1099.46 513.73 1099.46 510.93 1102.26 510.93 1102.26 507.93 1105.26 507.93 1105.26 505.13 1108.06 505.13 1108.06 504.03 1104.06 504.03 1104.06 506.83 1101.06 506.83 1101.06 509.93 1098.26 509.93 1098.26 512.63 1095.56 512.63 1095.56 515.43 1093.16 515.43 1093.16 516.53 1096.66 516.53 1096.66 513.73"/>
    </g>
  </g>
  <g id="doors">
    <path id="path1330" class="st1" d="M252.59,582.03v22.5h1.1v-22.5h-1.1ZM252.59,582.03h3.9v-2h-3.9v2ZM252.59,604.53v2h3.9v-2h-3.9ZM252.59,604.53h-11.3v-2h11.3v2ZM252.59,582.03h-11.3v2h11.3v-2Z"/>
    <path id="path13301" class="st1" d="M454.89,576.52h-22.5v1.1h22.5v-1.1ZM454.89,576.52v3.9h2v-3.9h-2ZM432.39,576.52h-2v3.9h2v-3.9ZM432.39,576.52v-11.3h2v11.3h-2ZM454.89,576.52v-11.3h-2v11.3h2Z"/>
    <path id="path13302" class="st1" d="M432.39,610.14h22.5v-1.1h-22.5v1.1ZM432.39,610.14v-3.9h-2v3.9h2ZM454.89,610.14h2v-3.9h-2v3.9ZM454.89,610.14v11.3h-2v-11.3h2ZM432.39,610.14v11.3h2v-11.3h-2Z"/>
    <path id="path13303" class="st1" d="M484.39,581.74v22.5h1.1v-22.5h-1.1ZM484.39,581.74h3.9v-2h-3.9v2ZM484.39,604.24v2h3.9v-2h-3.9ZM484.39,604.24h-11.3v-2h11.3v2ZM484.39,581.74h-11.3v2h11.3v-2Z"/>
    <path id="path13304" class="st1" d="M533.32,576.52h-22.5v1.1h22.5v-1.1ZM533.32,576.52v3.9h2v-3.9h-2ZM510.82,576.52h-2v3.9h2v-3.9ZM510.82,576.52v-11.3h2v11.3h-2ZM533.32,576.52v-11.3h-2v11.3h2Z"/>
    <path id="path13305" class="st1" d="M510.61,610.13h22.5v-1.1h-22.5v1.1ZM510.61,610.13v-3.9h-2v3.9h2ZM533.11,610.13h2v-3.9h-2v3.9ZM533.11,610.13v11.3h-2v-11.3h2ZM510.61,610.13v11.3h2v-11.3h-2Z"/>
    <path id="path13306" class="st1" d="M598.35,610.11h22.5v-1.1h-22.5v1.1ZM598.35,610.11v-3.9h-2v3.9h2ZM620.85,610.11h2v-3.9h-2v3.9ZM620.85,610.11v11.3h-2v-11.3h2ZM598.35,610.11v11.3h2v-11.3h-2Z"/>
    <path id="path13307" class="st1" d="M644.45,576.48h-22.5v1.1h22.5v-1.1ZM644.45,576.48v3.9h2v-3.9h-2ZM621.95,576.48h-2v3.9h2v-3.9ZM621.95,576.48v-11.3h2v11.3h-2ZM644.45,576.48v-11.3h-2v11.3h2Z"/>
    <path id="path13308" class="st1" d="M704.78,576.62h-22.5v1.1h22.5v-1.1ZM704.78,576.62v3.9h2v-3.9h-2ZM682.28,576.62h-2v3.9h2v-3.9ZM682.28,576.62v-11.3h2v11.3h-2ZM704.78,576.62v-11.3h-2v11.3h2Z"/>
    <path id="path13309" class="st1" d="M682.28,610.11h22.5v-1.1h-22.5v1.1ZM682.28,610.11v-3.9h-2v3.9h2ZM704.78,610.11h2v-3.9h-2v3.9ZM704.78,610.11v11.3h-2v-11.3h2ZM682.28,610.11v11.3h2v-11.3h-2Z"/>
    <path id="path133010" class="st1" d="M782.57,576.51h-22.5v1.1h22.5v-1.1ZM782.57,576.51v3.9h2v-3.9h-2ZM760.07,576.51h-2v3.9h2v-3.9ZM760.07,576.51v-11.3h2v11.3h-2ZM782.57,576.51v-11.3h-2v11.3h2Z"/>
    <path id="path133011" class="st1" d="M760.07,610.17h22.5v-1.1h-22.5v1.1ZM760.07,610.17v-3.9h-2v3.9h2ZM782.57,610.17h2v-3.9h-2v3.9ZM782.57,610.17v11.3h-2v-11.3h2ZM760.07,610.17v11.3h2v-11.3h-2Z"/>
    <path id="path133012" class="st1" d="M836.66,610.17h22.5v-1.1h-22.5v1.1ZM836.66,610.17v-3.9h-2v3.9h2ZM859.16,610.17h2v-3.9h-2v3.9ZM859.16,610.17v11.3h-2v-11.3h2ZM836.66,610.17v11.3h2v-11.3h-2Z"/>
    <path id="path133013" class="st1" d="M917.95,576.48h-22.5v1.1h22.5v-1.1ZM917.95,576.48v3.9h2v-3.9h-2ZM895.45,576.48h-2v3.9h2v-3.9ZM895.45,576.48v-11.3h2v11.3h-2ZM917.95,576.48v-11.3h-2v11.3h2Z"/>
    <path id="path133014" class="st1" d="M955.64,576.48h-22.5v1.1h22.5v-1.1ZM955.64,576.48v3.9h2v-3.9h-2ZM933.14,576.48h-2v3.9h2v-3.9ZM933.14,576.48v-11.3h2v11.3h-2ZM955.64,576.48v-11.3h-2v11.3h2Z"/>
    <path id="path133015" class="st1" d="M1012.73,576.48h-22.5v1.1h22.5v-1.1ZM1012.73,576.48v3.9h2v-3.9h-2ZM990.23,576.48h-2v3.9h2v-3.9ZM990.23,576.48v-11.3h2v11.3h-2ZM1012.73,576.48v-11.3h-2v11.3h2Z"/>
    <path id="path133016" class="st1" d="M1073.38,576.48h-22.5v1.1h22.5v-1.1ZM1073.38,576.48v3.9h2v-3.9h-2ZM1050.88,576.48h-2v3.9h2v-3.9ZM1050.88,576.48v-11.3h2v11.3h-2ZM1073.38,576.48v-11.3h-2v11.3h2Z"/>
    <path id="path133017" class="st1" d="M913.23,610.11h22.5v-1.1h-22.5v1.1ZM913.23,610.11v-3.9h-2v3.9h2ZM935.73,610.11h2v-3.9h-2v3.9ZM935.73,610.11v11.3h-2v-11.3h2ZM913.23,610.11v11.3h2v-11.3h-2Z"/>
    <path id="path133018" class="st1" d="M990.23,610.13h22.5v-1.1h-22.5v1.1ZM990.23,610.13v-3.9h-2v3.9h2ZM1012.73,610.13h2v-3.9h-2v3.9ZM1012.73,610.13v11.3h-2v-11.3h2ZM990.23,610.13v11.3h2v-11.3h-2Z"/>
    <path id="path133019" class="st1" d="M1067.9,610h22.5v-1.1h-22.5v1.1ZM1067.9,610v-3.9h-2v3.9h2ZM1090.4,610h2v-3.9h-2v3.9ZM1090.4,610v11.3h-2v-11.3h2ZM1067.9,610v11.3h2v-11.3h-2Z"/>
    <path id="path133020" class="st1" d="M1160.65,610.09h22.5v-1.1h-22.5v1.1ZM1160.65,610.09v-3.9h-2v3.9h2ZM1183.15,610.09h2v-3.9h-2v3.9ZM1183.15,610.09v11.3h-2v-11.3h2ZM1160.65,610.09v11.3h2v-11.3h-2Z"/>
    <path id="path133021" class="st1" d="M1239.03,610.14h22.5v-1.1h-22.5v1.1ZM1239.03,610.14v-3.9h-2v3.9h2ZM1261.53,610.14h2v-3.9h-2v3.9ZM1261.53,610.14v11.3h-2v-11.3h2ZM1239.03,610.14v11.3h2v-11.3h-2Z"/>
    <path id="path133022" class="st1" d="M1312.59,610.16h22.5v-1.1h-22.5v1.1ZM1312.59,610.16v-3.9h-2v3.9h2ZM1335.09,610.16h2v-3.9h-2v3.9ZM1335.09,610.16v11.3h-2v-11.3h2ZM1312.59,610.16v11.3h2v-11.3h-2Z"/>
    <path id="path133023" class="st1" d="M1335.08,576.58h-22.5v1.1h22.5v-1.1ZM1335.08,576.58v3.9h2v-3.9h-2ZM1312.58,576.58h-2v3.9h2v-3.9ZM1312.58,576.58v-11.3h2v11.3h-2ZM1335.08,576.58v-11.3h-2v11.3h2Z"/>
    <path id="path133024" class="st1" d="M1261.53,576.58h-22.5v1.1h22.5v-1.1ZM1261.53,576.58v3.9h2v-3.9h-2ZM1239.03,576.58h-2v3.9h2v-3.9ZM1239.03,576.58v-11.3h2v11.3h-2ZM1261.53,576.58v-11.3h-2v11.3h2Z"/>
    <path id="path133025" class="st1" d="M1183.15,576.58h-22.5v1.1h22.5v-1.1ZM1183.15,576.58v3.9h2v-3.9h-2ZM1160.65,576.58h-2v3.9h2v-3.9ZM1160.65,576.58v-11.3h2v11.3h-2ZM1183.15,576.58v-11.3h-2v11.3h2Z"/>
  </g>
  <g id="points" class="st6">
    <circle id="p-obj-013" class="st4" cx="771.32" cy="575.5" r="6.6"/>
    <circle id="p-obj-016" class="st4" cx="693.53" cy="610.48" r="6.6"/>
    <circle id="p-obj-015" class="st4" cx="693.53" cy="576.09" r="6.6"/>
    <circle id="p-obj-0161" data-name="p-obj-016" class="st4" cx="521.86" cy="610.48" r="6.6"/>
    <circle id="p-obj-017" class="st4" cx="521.86" cy="576.09" r="6.6"/>
    <circle id="p-open-space-2_x2F_2" class="st4" cx="443.64" cy="610.48" r="6.6"/>
    <circle id="p-open-space-2_x2F_1" class="st4" cx="443.64" cy="576.09" r="6.6"/>
    <circle id="p-obj-toilet-002" class="st4" cx="633.2" cy="576.09" r="6.6"/>
    <circle id="p-obj-018" class="st4" cx="610.07" cy="610.48" r="6.6"/>
    <circle id="p-obj-014" class="st4" cx="771.32" cy="610.48" r="6.6"/>
    <circle id="p-obj-002" class="st4" cx="924.48" cy="610.48" r="6.6"/>
    <circle id="p-obj-tech-001" class="st4" cx="944.39" cy="575.5" r="6.6"/>
    <circle id="p-obj-005" class="st4" cx="1001.48" cy="575.5" r="6.6"/>
    <circle id="p-obj-004" class="st4" cx="1001.48" cy="610.48" r="6.6"/>
    <circle id="p-obj-toilet-001" class="st4" cx="1062.13" cy="575.5" r="6.6"/>
    <circle id="p-obj-006" class="st4" cx="1079.15" cy="610.48" r="6.6"/>
    <circle id="p-obj-007" class="st4" cx="1171.9" cy="575.5" r="6.6"/>
    <circle id="p-obj-008" class="st4" cx="1171.9" cy="610.48" r="6.6"/>
    <circle id="p-obj-009" class="st4" cx="1250.28" cy="575.5" r="6.6"/>
    <circle id="p-obj-010" class="st4" cx="1250.28" cy="610.48" r="6.6"/>
    <circle id="p-obj-012" class="st4" cx="1323.83" cy="610.48" r="6.6"/>
    <circle id="p-obj-elevator-001" class="st4" cx="1371.39" cy="575.5" r="6.6"/>
    <circle id="p-obj-001" class="st4" cx="847.91" cy="610.48" r="6.6"/>
    <circle id="p-obj-open-space-1" class="st4" cx="252.28" cy="592.99" r="6.6"/>
    <circle id="p-obj-011" class="st4" cx="1323.83" cy="575.5" r="6.6"/>
    <circle id="p-018" class="st4" cx="1371.39" cy="592.99" r="6.6"/>
    <circle id="p-017" class="st4" cx="1323.83" cy="592.99" r="6.6"/>
    <circle id="p-015" class="st4" cx="1250.28" cy="592.99" r="6.6"/>
    <circle id="p-014" class="st4" cx="1171.9" cy="592.99" r="6.6"/>
    <circle id="p-013" class="st4" cx="1079.15" cy="592.99" r="6.6"/>
    <circle id="p-012" class="st4" cx="1062.13" cy="592.99" r="6.6"/>
    <circle id="p-011" class="st4" cx="1001.48" cy="592.99" r="6.6"/>
    <circle id="p-010" class="st4" cx="944.39" cy="592.99" r="6.6"/>
    <circle id="p-009" class="st4" cx="924.48" cy="592.99" r="6.6"/>
    <circle id="p-008" class="st4" cx="329.47" cy="592.99" r="6.6"/>
    <circle id="p-007" class="st4" cx="443.64" cy="592.99" r="6.6"/>
    <circle id="p-006" class="st4" cx="521.86" cy="592.99" r="6.6"/>
    <circle id="p-005" class="st4" cx="610.07" cy="592.99" r="6.6"/>
    <circle id="p-004" class="st4" cx="633.2" cy="592.99" r="6.6"/>
    <circle id="p-003" class="st4" cx="693.53" cy="592.99" r="6.6"/>
    <circle id="p-002" class="st4" cx="771.32" cy="592.99" r="6.6"/>
    <circle id="p-001" class="st4" cx="847.91" cy="592.99" r="6.6"/>
  </g>
</svg>