<?xml version="1.0" encoding="UTF-8"?>
<svg id="_Слой_1" xmlns="http://www.w3.org/2000/svg" version="1.1" viewBox="0 0 1461.95 1149.14">
  <!-- Generator: Adobe Illustrator 29.4.0, SVG Export Plug-In . SVG Version: 2.1.0 Build 152)  -->
  <defs>
    <style>
      .st0 {
        stroke: #d14a4a;
        stroke-miterlimit: 10;
        stroke-width: 2.8px;
      }

      .st0, .st1 {
        fill: #fff;
      }

      .st0, .st1, .st2 {
        fill-rule: evenodd;
      }

      .st3 {
        fill: #7fba27;
      }

      .st4 {
        fill: #f3f3ef;
      }

      .st2 {
        fill: #d14a4a;
      }

      .st5 {
        display: none;
      }
    </style>
  </defs>
  <polygon id="main-0-floor" class="st0" points="17.38 693.61 1444.57 693.61 1444.57 492.96 17.38 492.96 17.38 693.61"/>
  <polygon id="open-space-1" class="st0" points="17.38 576.09 97.83 576.09 97.83 492.96 17.38 492.96 17.38 576.09"/>
  <polygon id="open-space-11" class="st0" points="97.83 576.09 172.56 576.09 172.56 492.96 97.83 492.96 97.83 576.09"/>
  <polygon id="open-space-12" class="st0" points="172.56 576.09 406.07 576.09 406.07 492.96 172.56 492.96 172.56 576.09"/>
  <polygon id="open-space-13" class="st0" points="406.07 576.09 562.72 576.09 562.72 492.96 406.07 492.96 406.07 576.09"/>
  <polygon id="open-space-14" class="st0" points="578.09 576.09 653.85 576.09 653.85 492.96 578.09 492.96 578.09 576.09"/>
  <polygon id="open-space-15" class="st0" points="653.85 576.09 729.62 576.09 729.62 492.96 653.85 492.96 653.85 576.09"/>
  <polygon id="_x30_18" class="st0" points="656.01 693.61 808.93 693.61 808.93 610.48 656.01 610.48 656.01 693.61"/>
  <polygon id="_x30_181" class="st0" points="808.93 693.61 887.11 693.61 887.11 610.48 808.93 610.48 808.93 693.61"/>
  <polygon id="_x30_182" class="st0" points="886.55 693.61 964.73 693.61 964.73 610.48 886.55 610.48 886.55 693.61"/>
  <polygon id="_x30_183" class="st0" points="963.61 693.61 1039.15 693.61 1039.15 610.48 963.61 610.48 963.61 693.61"/>
  <polygon id="_x30_184" class="st0" points="1038.97 693.61 1120.36 693.61 1120.36 610.48 1038.97 610.48 1038.97 693.61"/>
  <polygon id="_x30_185" class="st0" points="1132.71 693.61 1209.36 693.61 1209.36 610.48 1132.71 610.48 1132.71 693.61"/>
  <polygon id="_x30_186" class="st0" points="1209.36 693.61 1286.01 693.61 1286.01 610.48 1209.36 610.48 1209.36 693.61"/>
  <polygon id="_x30_187" class="st0" points="1286.01 693.61 1362.66 693.61 1362.66 610.48 1286.01 610.48 1286.01 693.61"/>
  <polygon id="_x30_188" class="st0" points="1362.66 693.61 1444.69 693.61 1444.69 610.48 1362.66 610.48 1362.66 693.61"/>
  <polygon id="_x30_189" class="st0" points="578.09 693.61 656.01 693.61 656.01 610.48 578.09 610.48 578.09 693.61"/>
  <polygon id="_x30_1810" class="st0" points="485.08 693.61 562.72 693.61 562.72 610.48 485.08 610.48 485.08 693.61"/>
  <polygon id="_x30_1811" class="st0" points="329.53 693.61 485.08 693.61 485.08 610.48 329.53 610.48 329.53 693.61"/>
  <polygon id="_x30_1812" class="st0" points="214.33 693.61 329.53 693.61 329.53 610.48 214.33 610.48 214.33 693.61"/>
  <polygon id="_x30_1813" class="st0" points="99.13 693.61 214.33 693.61 214.33 610.48 99.13 610.48 99.13 693.61"/>
  <polygon id="_x30_13" class="st0" points="729.62 576.09 808.93 576.09 808.93 492.96 729.62 492.96 729.62 576.09"/>
  <polygon id="_x30_09" class="st0" points="1132.71 576.09 1289.48 576.09 1289.48 492.96 1132.71 492.96 1132.71 576.09"/>
  <polygon id="_x30_11" class="st0" points="1289.48 576.09 1366.98 576.09 1366.98 492.96 1289.48 492.96 1289.48 576.09"/>
  <polygon id="_x30_131" class="st0" points="886.55 576.14 1041.23 576.14 1041.23 493.01 886.55 493.01 886.55 576.14"/>
  <polygon id="_x30_132" class="st0" points="1041.23 576.14 1120.36 576.14 1120.36 493.01 1041.23 493.01 1041.23 576.14"/>
  <polygon id="open-space-16" class="st0" points="17.38 656.77 69.62 656.77 69.62 610.48 17.38 610.48 17.38 656.77"/>
  <polygon id="open-space-17" class="st0" points="1391.92 576.09 1444.15 576.09 1444.15 529.8 1391.92 529.8 1391.92 576.09"/>
  <g id="toilet-icon">
    <path class="st2" d="M52.21,523.37h14.5c2.2,0,3.9,1.9,3.9,4.1v14.1c0,2.3-1.8,4.1-3.9,4.1h-14.5c-2.2,0-3.9-1.9-3.9-4.1v-14.1c0-2.3,1.8-4.1,3.9-4.1Z"/>
    <path class="st4" d="M55.91,529.67h-3.3c-.8,0-1.4.6-1.4,1.4v4.6c0,.3.2.6.6.6h0c.3,0,.6-.3.6-.6v-4.6h0v10.5c0,.4.3.7.7.7s.7-.3.7-.7v-6h.3v6c0,.4.3.7.7.7s.7-.3.7-.7v-10.5h0v4.6c0,.3.3.6.6.6h0c.3,0,.6-.3.6-.6v-4.6h0c0-.8-.6-1.4-1.4-1.4h.6Z"/>
    <circle class="st4" cx="54.21" cy="528.07" r="1.2"/>
    <path class="st4" d="M68.01,534.77s-1.1-3.2-1.3-3.8c-.3-.8-.7-1.2-1.4-1.2h-2.2c-.6,0-1.1.4-1.4,1.2-.2.5-1.3,3.7-1.3,3.8,0,.3,0,.7.4.8.3,0,.7,0,.8-.4,0,0,.7-2,1.1-3.1,0,.3,0-.3-.9,4.6,0,.2,0,.4.3.4h.5v4.4c0,.4.3.7.7.7s.7-.3.7-.7v-4.4h.3v4.4c0,.4.3.7.7.7s.7-.3.7-.7v-4.4h.5c.2,0,.4-.2.3-.4-.9-4.9-.8-4.3-.8-4.6.4,1.1,1,3,1,3.1,0,.3.5.5.8.4s.5-.4.4-.8h.1Z"/>
    <circle class="st4" cx="64.11" cy="528.1" r="1.2" transform="translate(-467.08 556.91) rotate(-86.18)"/>
    <path class="st4" d="M59.01,527.57c-.3,0-.5.2-.5.5v13c0,.3.2.5.5.5s.5-.2.5-.5v-13c0-.3-.2-.5-.5-.5Z"/>
  </g>
  <g id="toilet-icon1">
    <path class="st2" d="M1073.54,523.37h14.5c2.2,0,3.9,1.9,3.9,4.1v14.1c0,2.3-1.8,4.1-3.9,4.1h-14.5c-2.2,0-3.9-1.9-3.9-4.1v-14.1c0-2.3,1.8-4.1,3.9-4.1Z"/>
    <path class="st4" d="M1077.24,529.67h-3.3c-.8,0-1.4.6-1.4,1.4v4.6c0,.3.2.6.6.6h0c.3,0,.6-.3.6-.6v-4.6h0v10.5c0,.4.3.7.7.7s.7-.3.7-.7v-6h.3v6c0,.4.3.7.7.7s.7-.3.7-.7v-10.5h0v4.6c0,.3.3.6.6.6h0c.3,0,.6-.3.6-.6v-4.6h0c0-.8-.6-1.4-1.4-1.4h.6Z"/>
    <circle class="st4" cx="1075.54" cy="528.07" r="1.2"/>
    <path class="st4" d="M1089.34,534.77s-1.1-3.2-1.3-3.8c-.3-.8-.7-1.2-1.4-1.2h-2.2c-.6,0-1.1.4-1.4,1.2-.2.5-1.3,3.7-1.3,3.8,0,.3,0,.7.4.8.3,0,.7,0,.8-.4,0,0,.7-2,1.1-3.1,0,.3,0-.3-.9,4.6,0,.2,0,.4.3.4h.5v4.4c0,.4.3.7.7.7s.7-.3.7-.7v-4.4h.3v4.4c0,.4.3.7.7.7s.7-.3.7-.7v-4.4h.5c.2,0,.4-.2.3-.4-.9-4.9-.8-4.3-.8-4.6.4,1.1,1,3,1,3.1,0,.3.5.5.8.4s.5-.4.4-.8h.1Z"/>
    <circle class="st4" cx="1085.44" cy="528.07" r="1.2"/>
    <path class="st4" d="M1080.34,527.57c-.3,0-.5.2-.5.5v13c0,.3.2.5.5.5s.5-.2.5-.5v-13c0-.3-.2-.5-.5-.5Z"/>
  </g>
  <g id="stairs-icon_29">
    <path class="st2" d="M840.77,522.92h14.5c2.2,0,3.9,1.9,3.9,4.1v14.1c0,2.3-1.8,4.1-3.9,4.1h-14.5c-2.2,0-3.9-1.9-3.9-4.1v-14.1c0-2.3,1.8-4.1,3.9-4.1Z"/>
    <polygon class="st4" points="854.57 535.52 854.57 534.52 853.47 534.52 850.97 534.52 849.87 535.52 852.87 535.52 850.47 537.92 851.17 538.72 853.47 536.32 853.47 539.22 854.57 538.02 854.57 535.52"/>
    <polygon class="st4" points="844.07 537.52 846.87 537.52 846.87 534.72 849.67 534.72 849.67 531.72 852.67 531.72 852.67 528.92 855.47 528.92 855.47 527.82 851.47 527.82 851.47 530.62 848.47 530.62 848.47 533.72 845.67 533.72 845.67 536.42 842.97 536.42 842.97 539.22 840.57 539.22 840.57 540.32 844.07 540.32 844.07 537.52"/>
  </g>
  <g id="stairs-icon_291">
    <path class="st2" d="M1399.64,499.01h14.5c2.2,0,3.9,1.9,3.9,4.1v14.1c0,2.3-1.8,4.1-3.9,4.1h-14.5c-2.2,0-3.9-1.9-3.9-4.1v-14.1c0-2.3,1.8-4.1,3.9-4.1Z"/>
    <polygon class="st4" points="1413.44 511.61 1413.44 510.61 1412.34 510.61 1409.84 510.61 1408.74 511.61 1411.74 511.61 1409.34 514.01 1410.04 514.81 1412.34 512.41 1412.34 515.31 1413.44 514.11 1413.44 511.61"/>
    <polygon class="st4" points="1402.94 513.61 1405.74 513.61 1405.74 510.81 1408.54 510.81 1408.54 507.81 1411.54 507.81 1411.54 505.01 1414.34 505.01 1414.34 503.91 1410.34 503.91 1410.34 506.71 1407.34 506.71 1407.34 509.81 1404.54 509.81 1404.54 512.51 1401.84 512.51 1401.84 515.31 1399.44 515.31 1399.44 516.41 1402.94 516.41 1402.94 513.61"/>
  </g>
  <g id="stairs-icon_292">
    <path class="st2" d="M50.36,665.56h14.5c2.2,0,3.9,1.9,3.9,4.1v14.1c0,2.3-1.8,4.1-3.9,4.1h-14.5c-2.2,0-3.9-1.9-3.9-4.1v-14.1c0-2.3,1.8-4.1,3.9-4.1Z"/>
    <polygon class="st4" points="64.16 678.16 64.16 677.16 63.06 677.16 60.56 677.16 59.46 678.16 62.46 678.16 60.06 680.56 60.76 681.36 63.06 678.96 63.06 681.86 64.16 680.66 64.16 678.16"/>
    <polygon class="st4" points="53.66 680.16 56.46 680.16 56.46 677.36 59.26 677.36 59.26 674.36 62.26 674.36 62.26 671.56 65.06 671.56 65.06 670.46 61.06 670.46 61.06 673.26 58.06 673.26 58.06 676.36 55.26 676.36 55.26 679.06 52.56 679.06 52.56 681.86 50.16 681.86 50.16 682.96 53.66 682.96 53.66 680.16"/>
  </g>
  <g id="doors">
    <path id="path1330" class="st1" d="M1317.25,610.13h22.5v-1.1h-22.5v1.1ZM1317.25,610.13v-3.9h-2v3.9h2ZM1339.75,610.13h2v-3.9h-2v3.9ZM1339.75,610.13v11.3h-2v-11.3h2ZM1317.25,610.13v11.3h2v-11.3h-2Z"/>
    <path id="path13301" class="st1" d="M1160.92,610.13h22.5v-1.1h-22.5v1.1ZM1160.92,610.13v-3.9h-2v3.9h2ZM1183.42,610.13h2v-3.9h-2v3.9ZM1183.42,610.13v11.3h-2v-11.3h2ZM1160.92,610.13v11.3h2v-11.3h-2Z"/>
    <path id="path13302" class="st1" d="M1070.76,610.14h22.5v-1.1h-22.5v1.1ZM1070.76,610.14v-3.9h-2v3.9h2ZM1093.26,610.14h2v-3.9h-2v3.9ZM1093.26,610.14v11.3h-2v-11.3h2ZM1070.76,610.14v11.3h2v-11.3h-2Z"/>
    <path id="path13303" class="st1" d="M760.59,610.06h22.5v-1.1h-22.5v1.1ZM760.59,610.06v-3.9h-2v3.9h2ZM783.09,610.06h2v-3.9h-2v3.9ZM783.09,610.06v11.3h-2v-11.3h2ZM760.59,610.06v11.3h2v-11.3h-2Z"/>
    <path id="path13304" class="st1" d="M837.04,610.06h22.5v-1.1h-22.5v1.1ZM837.04,610.06v-3.9h-2v3.9h2ZM859.54,610.06h2v-3.9h-2v3.9ZM859.54,610.06v11.3h-2v-11.3h2ZM837.04,610.06v11.3h2v-11.3h-2Z"/>
    <path id="path13305" class="st1" d="M914.66,610.06h22.5v-1.1h-22.5v1.1ZM914.66,610.06v-3.9h-2v3.9h2ZM937.16,610.06h2v-3.9h-2v3.9ZM937.16,610.06v11.3h-2v-11.3h2ZM914.66,610.06v11.3h2v-11.3h-2Z"/>
    <path id="path13306" class="st1" d="M991.72,610.06h22.5v-1.1h-22.5v1.1ZM991.72,610.06v-3.9h-2v3.9h2ZM1014.22,610.06h2v-3.9h-2v3.9ZM1014.22,610.06v11.3h-2v-11.3h2ZM991.72,610.06v11.3h2v-11.3h-2Z"/>
    <path id="path13307" class="st1" d="M1239.31,610.06h22.5v-1.1h-22.5v1.1ZM1239.31,610.06v-3.9h-2v3.9h2ZM1261.81,610.06h2v-3.9h-2v3.9ZM1261.81,610.06v11.3h-2v-11.3h2ZM1239.31,610.06v11.3h2v-11.3h-2Z"/>
    <path id="path13308" class="st1" d="M1394.76,610.06h22.5v-1.1h-22.5v1.1ZM1394.76,610.06v-3.9h-2v3.9h2ZM1417.26,610.06h2v-3.9h-2v3.9ZM1417.26,610.06v11.3h-2v-11.3h2ZM1394.76,610.06v11.3h2v-11.3h-2Z"/>
    <path id="path13309" class="st1" d="M1417.26,576.46h-22.5v1.1h22.5v-1.1ZM1417.26,576.46v3.9h2v-3.9h-2ZM1394.76,576.46h-2v3.9h2v-3.9ZM1394.76,576.46v-11.3h2v11.3h-2ZM1417.26,576.46v-11.3h-2v11.3h2Z"/>
    <path id="path133010" class="st1" d="M606.08,610.14h22.5v-1.1h-22.5v1.1ZM606.08,610.14v-3.9h-2v3.9h2ZM628.58,610.14h2v-3.9h-2v3.9ZM628.58,610.14v11.3h-2v-11.3h2ZM606.08,610.14v11.3h2v-11.3h-2Z"/>
    <path id="path133011" class="st1" d="M512.92,610.14h22.5v-1.1h-22.5v1.1ZM512.92,610.14v-3.9h-2v3.9h2ZM535.42,610.14h2v-3.9h-2v3.9ZM535.42,610.14v11.3h-2v-11.3h2ZM512.92,610.14v11.3h2v-11.3h-2Z"/>
    <path id="path133012" class="st1" d="M434.89,610.14h22.5v-1.1h-22.5v1.1ZM434.89,610.14v-3.9h-2v3.9h2ZM457.39,610.14h2v-3.9h-2v3.9ZM457.39,610.14v11.3h-2v-11.3h2ZM434.89,610.14v11.3h2v-11.3h-2Z"/>
    <path id="path133013" class="st1" d="M264.82,610.14h22.5v-1.1h-22.5v1.1ZM264.82,610.14v-3.9h-2v3.9h2ZM287.32,610.14h2v-3.9h-2v3.9ZM287.32,610.14v11.3h-2v-11.3h2ZM264.82,610.14v11.3h2v-11.3h-2Z"/>
    <path id="path133014" class="st1" d="M125.78,610.14h22.5v-1.1h-22.5v1.1ZM125.78,610.14v-3.9h-2v3.9h2ZM148.28,610.14h2v-3.9h-2v3.9ZM148.28,610.14v11.3h-2v-11.3h2ZM125.78,610.14v11.3h2v-11.3h-2Z"/>
    <path id="path133015" class="st1" d="M45.46,610.14h22.5v-1.1h-22.5v1.1ZM45.46,610.14v-3.9h-2v3.9h2ZM67.96,610.14h2v-3.9h-2v3.9ZM67.96,610.14v11.3h-2v-11.3h2ZM45.46,610.14v11.3h2v-11.3h-2Z"/>
    <path id="path133016" class="st1" d="M68.24,574.5h-22.5v1.1h22.5v-1.1ZM68.24,574.5v3.9h2v-3.9h-2ZM45.74,574.5h-2v3.9h2v-3.9ZM45.74,574.5v-11.3h2v11.3h-2ZM68.24,574.5v-11.3h-2v11.3h2Z"/>
    <path id="path133017" class="st1" d="M148.28,574.5h-22.5v1.1h22.5v-1.1ZM148.28,574.5v3.9h2v-3.9h-2ZM125.78,574.5h-2v3.9h2v-3.9ZM125.78,574.5v-11.3h2v11.3h-2ZM148.28,574.5v-11.3h-2v11.3h2Z"/>
    <path id="path133018" class="st1" d="M287.32,574.5h-22.5v1.1h22.5v-1.1ZM287.32,574.5v3.9h2v-3.9h-2ZM264.82,574.5h-2v3.9h2v-3.9ZM264.82,574.5v-11.3h2v11.3h-2ZM287.32,574.5v-11.3h-2v11.3h2Z"/>
    <path id="path133019" class="st1" d="M457.39,574.5h-22.5v1.1h22.5v-1.1ZM457.39,574.5v3.9h2v-3.9h-2ZM434.89,574.5h-2v3.9h2v-3.9ZM434.89,574.5v-11.3h2v11.3h-2ZM457.39,574.5v-11.3h-2v11.3h2Z"/>
    <path id="path133020" class="st1" d="M628.57,574.5h-22.5v1.1h22.5v-1.1ZM628.57,574.5v3.9h2v-3.9h-2ZM606.07,574.5h-2v3.9h2v-3.9ZM606.07,574.5v-11.3h2v11.3h-2ZM628.57,574.5v-11.3h-2v11.3h2Z"/>
    <path id="path133021" class="st1" d="M782.96,574.5h-22.5v1.1h22.5v-1.1ZM782.96,574.5v3.9h2v-3.9h-2ZM760.46,574.5h-2v3.9h2v-3.9ZM760.46,574.5v-11.3h2v11.3h-2ZM782.96,574.5v-11.3h-2v11.3h2Z"/>
    <path id="path133022" class="st1" d="M702.98,574.5h-22.5v1.1h22.5v-1.1ZM702.98,574.5v3.9h2v-3.9h-2ZM680.48,574.5h-2v3.9h2v-3.9ZM680.48,574.5v-11.3h2v11.3h-2ZM702.98,574.5v-11.3h-2v11.3h2Z"/>
    <path id="path133023" class="st1" d="M1014.22,574.5h-22.5v1.1h22.5v-1.1ZM1014.22,574.5v3.9h2v-3.9h-2ZM991.72,574.5h-2v3.9h2v-3.9ZM991.72,574.5v-11.3h2v11.3h-2ZM1014.22,574.5v-11.3h-2v11.3h2Z"/>
    <path id="path133024" class="st1" d="M1093.26,574.5h-22.5v1.1h22.5v-1.1ZM1093.26,574.5v3.9h2v-3.9h-2ZM1070.76,574.5h-2v3.9h2v-3.9ZM1070.76,574.5v-11.3h2v11.3h-2ZM1093.26,574.5v-11.3h-2v11.3h2Z"/>
    <path id="path133025" class="st1" d="M1261.81,574.5h-22.5v1.1h22.5v-1.1ZM1261.81,574.5v3.9h2v-3.9h-2ZM1239.31,574.5h-2v3.9h2v-3.9ZM1239.31,574.5v-11.3h2v11.3h-2ZM1261.81,574.5v-11.3h-2v11.3h2Z"/>
    <path id="path133026" class="st1" d="M1339.75,574.5h-22.5v1.1h22.5v-1.1ZM1339.75,574.5v3.9h2v-3.9h-2ZM1317.25,574.5h-2v3.9h2v-3.9ZM1317.25,574.5v-11.3h2v11.3h-2ZM1339.75,574.5v-11.3h-2v11.3h2Z"/>
  </g>
  <g id="points" class="st5">
    <circle id="p-1" class="st3" cx="617.33" cy="591.06" r="6.6"/>
    <circle id="p-11" class="st3" cx="617.33" cy="610.03" r="6.6"/>
    <circle id="p-12" class="st3" cx="617.33" cy="574.15" r="6.6"/>
    <circle id="p-13" class="st3" cx="771.71" cy="610.03" r="6.6"/>
    <circle id="p-14" class="st3" cx="771.84" cy="591.06" r="6.6"/>
    <circle id="p-15" class="st3" cx="771.84" cy="574.15" r="6.6"/>
    <circle id="p-16" class="st3" cx="691.8" cy="591.06" r="6.6"/>
    <circle id="p-17" class="st3" cx="691.8" cy="574.15" r="6.6"/>
    <circle id="p-18" class="st3" cx="848.29" cy="591.06" r="6.6"/>
    <circle id="p-19" class="st3" cx="848.29" cy="610.03" r="6.6"/>
    <circle id="p-110" class="st3" cx="1002.97" cy="591.06" r="6.6"/>
    <circle id="p-111" class="st3" cx="1002.97" cy="610.03" r="6.6"/>
    <circle id="p-112" class="st3" cx="1002.97" cy="574.15" r="6.6"/>
    <circle id="p-113" class="st3" cx="925.91" cy="591.06" r="6.6"/>
    <circle id="p-114" class="st3" cx="925.91" cy="610.03" r="6.6"/>
    <circle id="p-115" class="st3" cx="1081.85" cy="591.06" r="6.6"/>
    <circle id="p-116" class="st3" cx="1081.85" cy="610.03" r="6.6"/>
    <circle id="p-117" class="st3" cx="1081.85" cy="574.15" r="6.6"/>
    <circle id="p-118" class="st3" cx="1172.17" cy="591.06" r="6.6"/>
    <circle id="p-119" class="st3" cx="1172.17" cy="610.03" r="6.6"/>
    <circle id="p-120" class="st3" cx="1250.56" cy="610.03" r="6.6"/>
    <circle id="p-121" class="st3" cx="1250.56" cy="591.06" r="6.6"/>
    <circle id="p-122" class="st3" cx="1250.56" cy="574.15" r="6.6"/>
    <circle id="p-123" class="st3" cx="1328.5" cy="591.06" r="6.6"/>
    <circle id="p-124" class="st3" cx="1328.5" cy="610.03" r="6.6"/>
    <circle id="p-125" class="st3" cx="1328.5" cy="574.15" r="6.6"/>
    <circle id="p-126" class="st3" cx="1406.01" cy="591.06" r="6.6"/>
    <circle id="p-127" class="st3" cx="1406.01" cy="574.57" r="6.6"/>
    <circle id="p-128" class="st3" cx="1406.01" cy="610.03" r="6.6"/>
    <circle id="p-129" class="st3" cx="524.17" cy="591.06" r="6.6"/>
    <circle id="p-130" class="st3" cx="524.17" cy="610.03" r="6.6"/>
    <circle id="p-131" class="st3" cx="445.51" cy="610.03" r="6.6"/>
    <circle id="p-132" class="st3" cx="445.64" cy="591.06" r="6.6"/>
    <circle id="p-133" class="st3" cx="445.64" cy="574.15" r="6.6"/>
    <circle id="p-134" class="st3" cx="276" cy="610.03" r="6.6"/>
    <circle id="p-135" class="st3" cx="276.13" cy="591.06" r="6.6"/>
    <circle id="p-136" class="st3" cx="276.13" cy="574.15" r="6.6"/>
    <circle id="p-137" class="st3" cx="136.96" cy="610.03" r="6.6"/>
    <circle id="p-138" class="st3" cx="137.09" cy="591.06" r="6.6"/>
    <circle id="p-139" class="st3" cx="137.09" cy="574.15" r="6.6"/>
    <circle id="p-140" class="st3" cx="57.54" cy="610.03" r="6.6"/>
    <circle id="p-141" class="st3" cx="57.68" cy="591.06" r="6.6"/>
    <circle id="p-142" class="st3" cx="57.68" cy="574.15" r="6.6"/>
  </g>
</svg>