<?xml version="1.0" encoding="UTF-8"?>
<svg id="_Слой_1" data-name="Слой_1" xmlns="http://www.w3.org/2000/svg" version="1.1" viewBox="0 0 1461.9 1149.1">
  <!-- Generator: Adobe Illustrator 29.1.0, SVG Export Plug-In . SVG Version: 2.1.0 Build 142)  -->
  <defs>
    <style>
      .st0, .st1 {
        fill: #fff;
      }

      .st0, .st1, .st2, .st3 {
        fill-rule: evenodd;
      }

      .st0, .st4 {
        stroke: #d14a4a;
        stroke-miterlimit: 10;
        stroke-width: 2.8px;
      }

      .st5 {
        fill: #7fba27;
      }

      .st6 {
        isolation: isolate;
      }

      .st7, .st2 {
        fill: #d14a4a;
      }

      .st8, .st3 {
        fill: #f3f3ef;
      }

      .st9 {
        display: none;
      }

      .st4 {
        fill: none;
      }
    </style>
  </defs>
  <g id="_Слой_11" data-name="_Слой_1">
    <g id="_Слой_1-2">
      <g id="_Слой_1-21" data-name="_Слой_1-2">
        <g id="_x33_-6_этаж">
          <polygon id="f2-elevator-right" class="st0" points="865.5 651.5 971.4 651.5 971.4 604.1 865.5 604.1 865.5 651.5"/>
          <polygon id="f2-elevator-left" class="st0" points="333 597.6 333 519.5 317.4 519.5 270.3 519.5 270.3 597.6 333 597.6"/>
          <polygon id="f2-toilet-right" class="st0" points="865.5 604.1 1020.4 604.1 1020.4 545.8 865.5 545.8 865.5 604.1"/>
          <polygon id="f2-toilet-left" class="st0" points="374.9 650.1 374.9 519.5 329.4 519.5 329.4 599.9 329.4 650.1 374.9 650.1"/>
          <g id="elevator_x5F_icon">
            <path class="st2" d="M290.8,547.5h14.5c2.2,0,3.9,1.9,3.9,4.1v14.1c0,2.3-1.8,4.1-3.9,4.1h-14.5c-2.2,0-3.9-1.9-3.9-4.1v-14.1c0-2.3,1.8-4.1,3.9-4.1Z"/>
            <path class="st3" d="M302.4,555.1c0-.6-.5-1-1-1h-7.2c-.6,0-1,.5-1,1v10.1c0,.6.5,1,1,1h7.2c.6,0,1-.5,1-1v-10.1ZM301.3,554.7c.2,0,.3.2.3.3v10.1c0,.2-.2.3-.3.3h-7.2c-.2,0-.3-.2-.3-.3v-10.1c0-.2.2-.3.3-.3h7.2Z"/>
            <path class="st3" d="M297.6,554c.2,0,.3.2.3.3v11.6c0,.2-.2.3-.3.3s-.3-.2-.3-.3v-11.6c0-.2.2-.3.3-.3Z"/>
            <path class="st3" d="M294.4,551.5c0-.2.2-.3.3-.3h5.8c.2,0,.3.2.3.3v1.4c0,.2-.2.3-.3.3h-5.8c-.2,0-.3-.2-.3-.3v-1.4h0ZM295.2,551.8v.7h5.1v-.7h-5.1Z"/>
            <path class="st3" d="M304.3,561.1h.5l1-1c.1,0,.1-.4,0-.5s-.4,0-.5,0l-.5.5v-1.7c0-.2-.2-.3-.3-.3s-.3.2-.3.3v1.7l-.5-.5h-.5c-.1,0-.1.4,0,.5l1,1h.1,0Z"/>
            <path class="st3" d="M290.6,558.4h.5l1,1c.1,0,.1.4,0,.5s-.4,0-.5,0l-.5-.5v1.7c0,.2-.2.3-.3.3s-.3-.2-.3-.3v-1.7l-.5.5h-.5c-.1,0-.1-.4,0-.5l1-1h.1,0Z"/>
          </g>
          <g id="toilet-icon">
            <path class="st2" d="M344.1,571.1h14.5c2.2,0,3.9,1.9,3.9,4.1v14.1c0,2.3-1.8,4.1-3.9,4.1h-14.5c-2.2,0-3.9-1.9-3.9-4.1v-14.1c0-2.3,1.8-4.1,3.9-4.1Z"/>
            <path class="st8" d="M347.7,577.4h-3.3c-.8,0-1.4.6-1.4,1.4v4.6c0,.3.2.6.6.6h0c.3,0,.6-.3.6-.6v-4.6h.2v10.5c0,.4.3.7.7.7s.7-.3.7-.7v-6h.3v6c0,.4.3.7.7.7s.7-.3.7-.7v-10.5h.2v4.6c0,.3.3.6.6.6h0c.3,0,.6-.3.6-.6v-4.6h0c0-.8-.6-1.4-1.4-1.4h.2,0Z"/>
            <circle class="st8" cx="346.1" cy="575.7" r="1.2"/>
            <path class="st8" d="M359.8,582.4s-1.1-3.2-1.3-3.8c-.3-.8-.7-1.2-1.4-1.2h-2.2c-.6,0-1.1.4-1.4,1.2-.2.5-1.3,3.7-1.3,3.8-.1.3,0,.7.4.8.3,0,.7,0,.8-.4,0,0,.7-2,1.1-3.1,0,.3,0-.3-.9,4.6,0,.2.1.4.3.4h.5v4.4c0,.4.3.7.7.7s.7-.3.7-.7v-4.4h.3v4.4c0,.4.3.7.7.7s.7-.3.7-.7v-4.4h.5c.2,0,.4-.2.3-.4-.9-4.9-.8-4.3-.8-4.6.4,1.1,1,3,1,3.1.1.3.5.5.8.4s.5-.4.4-.8h0Z"/>
            <circle class="st8" cx="356" cy="575.7" r="1.2"/>
            <path class="st8" d="M350.8,575.2c-.3,0-.5.2-.5.5v13c0,.3.2.5.5.5s.5-.2.5-.5v-13c0-.3-.2-.5-.5-.5Z"/>
          </g>
          <g id="stairs-icon">
            <path class="st2" d="M48.1,284.1h14.5c2.2,0,3.9,1.9,3.9,4.1v14.1c0,2.3-1.8,4.1-3.9,4.1h-14.5c-2.2,0-3.9-1.9-3.9-4.1v-14.1c0-2.3,1.8-4.1,3.9-4.1Z"/>
            <polygon class="st8" points="62 296.7 62 295.6 60.8 295.6 58.4 295.6 57.2 296.7 60.2 296.7 57.8 299.1 58.5 299.8 60.8 297.5 60.8 300.4 62 299.2 62 296.7"/>
            <polygon class="st8" points="51.4 298.7 54.2 298.7 54.2 295.9 57 295.9 57 292.9 60 292.9 60 290.1 62.8 290.1 62.8 289 58.9 289 58.9 291.8 55.9 291.8 55.9 294.8 53.1 294.8 53.1 297.6 50.3 297.6 50.3 300.4 47.8 300.4 47.8 301.4 51.4 301.4 51.4 298.7"/>
          </g>
          <g id="stairs-icon_29">
            <path class="st2" d="M47.6,840.1h14.5c2.2,0,3.9,1.9,3.9,4.1v14.1c0,2.3-1.8,4.1-3.9,4.1h-14.5c-2.2,0-3.9-1.9-3.9-4.1v-14.1c0-2.3,1.8-4.1,3.9-4.1Z"/>
            <polygon class="st8" points="61.5 852.7 61.5 851.7 60.4 851.7 57.9 851.7 56.8 852.7 59.8 852.7 57.4 855.1 58.1 855.8 60.4 853.4 60.4 856.3 61.5 855.2 61.5 852.7"/>
            <polygon class="st8" points="51 854.7 53.8 854.7 53.8 851.9 56.5 851.9 56.5 848.9 59.5 848.9 59.5 846.1 62.3 846.1 62.3 845 58.4 845 58.4 847.7 55.4 847.7 55.4 850.8 52.6 850.8 52.6 853.5 49.9 853.5 49.9 856.3 47.4 856.3 47.4 857.5 51 857.5 51 854.7"/>
          </g>
          <g id="toilet-icon_36">
            <path class="st2" d="M932.7,563.1h14.5c2.2,0,3.9,1.9,3.9,4.1v14.1c0,2.3-1.8,4.1-3.9,4.1h-14.5c-2.2,0-3.9-1.9-3.9-4.1v-14.1c0-2.3,1.8-4.1,3.9-4.1Z"/>
            <path class="st8" d="M936.4,569.4h-3.3c-.8,0-1.4.6-1.4,1.4v4.6c0,.3.2.6.6.6h0c.3,0,.6-.3.6-.6v-4.6h0v10.5c0,.4.3.7.7.7s.7-.3.7-.7v-6h.3v6c0,.4.3.7.7.7s.7-.3.7-.7v-10.5h0v4.6c0,.3.3.6.6.6h0c.3,0,.6-.3.6-.6v-4.6h0c0-.8-.6-1.4-1.4-1.4h.6Z"/>
            <circle class="st8" cx="934.7" cy="567.7" r="1.2"/>
            <path class="st8" d="M948.4,574.5s-1.1-3.2-1.3-3.8c-.3-.8-.7-1.2-1.4-1.2h-2.2c-.6,0-1.1.4-1.4,1.2-.2.5-1.3,3.7-1.3,3.8,0,.3,0,.7.4.8.3,0,.7,0,.8-.4,0,0,.7-2,1.1-3.1,0,.3,0-.3-.9,4.6,0,.2,0,.4.3.4h.5v4.4c0,.4.3.7.7.7s.7-.3.7-.7v-4.4h.3v4.4c0,.4.3.7.7.7s.7-.3.7-.7v-4.4h.5c.2,0,.4-.2.3-.4-.9-4.9-.8-4.3-.8-4.6.4,1.1,1,3,1,3.1,0,.3.5.5.8.4s.5-.4.4-.8h.1Z"/>
            <circle class="st8" cx="944.6" cy="567.7" r="1.2"/>
            <path class="st8" d="M939.5,567.2c-.3,0-.5.2-.5.5v13c0,.3.2.5.5.5s.5-.2.5-.5v-13c0-.3-.2-.5-.5-.5Z"/>
          </g>
          <g id="elevator_x5F_icon_37">
            <path class="st2" d="M911.2,616.6h14.5c2.2,0,3.9,1.9,3.9,4.1v14.1c0,2.3-1.8,4.1-3.9,4.1h-14.5c-2.2,0-3.9-1.9-3.9-4.1v-14.1c0-2.3,1.8-4.1,3.9-4.1Z"/>
            <path class="st3" d="M922.8,624.3c0-.6-.5-1-1-1h-7.2c-.6,0-1,.5-1,1v10.1c0,.6.5,1,1,1h7.2c.6,0,1-.5,1-1v-10.1ZM921.7,623.9c.2,0,.3.2.3.3v10.1c0,.2-.2.3-.3.3h-7.2c-.2,0-.3-.2-.3-.3v-10.1c0-.2.2-.3.3-.3h7.2Z"/>
            <path class="st3" d="M918.1,623.2c.2,0,.3.2.3.3v11.6c0,.2-.2.3-.3.3s-.3-.2-.3-.3v-11.6c0-.2.2-.3.3-.3Z"/>
            <path class="st3" d="M914.9,620.7c0-.2.2-.3.3-.3h5.8c.2,0,.3.2.3.3v1.4c0,.2-.2.3-.3.3h-5.8c-.2,0-.3-.2-.3-.3v-1.4h0ZM915.5,621v.7h5.1v-.7h-5.1Z"/>
            <path class="st3" d="M924.7,630.3h.5l1-1v-.5h-.5l-.5.5v-1.7c0-.2-.2-.3-.3-.3s-.3.2-.3.3v1.7l-.5-.5h-.5v.5l1,1h0Z"/>
            <path class="st3" d="M911,627.7h.5l1,1v.5h-.5l-.5-.5v1.7c0,.2-.2.3-.3.3s-.3-.2-.3-.3v-1.7l-.5.5h-.5v-.5l1-1h0Z"/>
          </g>
          <g id="stairs-icon_29-2">
            <path class="st2" d="M302,615.3h14.5c2.2,0,3.9,1.9,3.9,4.1v14.1c0,2.3-1.8,4.1-3.9,4.1h-14.5c-2.2,0-3.9-1.9-3.9-4.1v-14.1c0-2.3,1.8-4.1,3.9-4.1Z"/>
            <polygon class="st8" points="315.9 628 315.9 626.8 314.7 626.8 312.2 626.8 311.1 628 314.1 628 311.7 630.3 312.4 631.1 314.7 628.7 314.7 631.6 315.9 630.4 315.9 628"/>
            <polygon class="st8" points="305.3 629.9 308.1 629.9 308.1 627.1 310.9 627.1 310.9 624.1 313.9 624.1 313.9 621.3 316.7 621.3 316.7 620.2 312.8 620.2 312.8 623 309.8 623 309.8 626 307 626 307 628.8 304.3 628.8 304.3 631.6 301.7 631.6 301.7 632.6 305.3 632.6 305.3 629.9"/>
          </g>
          <g id="stairs-icon_31">
            <path class="st2" d="M1403.3,840.4h14.5c2.2,0,3.9,1.9,3.9,4.1v14.1c0,2.3-1.8,4.1-3.9,4.1h-14.5c-2.2,0-3.9-1.9-3.9-4.1v-14.1c0-2.3,1.8-4.1,3.9-4.1Z"/>
            <polygon class="st8" points="1417.2 853 1417.2 852 1416.1 852 1413.6 852 1412.6 853 1415.6 853 1413.1 855.4 1413.8 856.1 1416.1 853.7 1416.1 856.6 1417.2 855.5 1417.2 853"/>
            <polygon class="st8" points="1406.7 855 1409.4 855 1409.4 852.2 1412.2 852.2 1412.2 849.2 1415.2 849.2 1415.2 846.4 1418 846.4 1418 845.3 1414.2 845.3 1414.2 848.1 1411.1 848.1 1411.1 851.2 1408.4 851.2 1408.4 853.9 1405.6 853.9 1405.6 856.6 1403.1 856.6 1403.1 857.8 1406.7 857.8 1406.7 855"/>
          </g>
          <g id="stairs-icon_31-2">
            <path class="st2" d="M987.4,616.4h14.5c2.2,0,3.9,1.9,3.9,4.1v14.1c0,2.3-1.8,4.1-3.9,4.1h-14.5c-2.2,0-3.9-1.9-3.9-4.1v-14.1c0-2.3,1.8-4.1,3.9-4.1Z"/>
            <polygon class="st8" points="1001.3 629 1001.3 628 1000.1 628 997.6 628 996.6 629 999.6 629 997.1 631.4 997.8 632.1 1000.1 629.7 1000.1 632.6 1001.3 631.5 1001.3 629"/>
            <polygon class="st8" points="990.7 631 993.5 631 993.5 628.2 996.3 628.2 996.3 625.2 999.3 625.2 999.3 622.4 1002.1 622.4 1002.1 621.3 998.3 621.3 998.3 624.1 995.2 624.1 995.2 627.2 992.5 627.2 992.5 629.9 989.7 629.9 989.7 632.6 987.2 632.6 987.2 633.8 990.7 633.8 990.7 631"/>
          </g>
          <g id="stairs-icon_33">
            <path class="st2" d="M1248.3,284.7h14.5c2.2,0,3.9,1.9,3.9,4.1v14.1c0,2.3-1.8,4.1-3.9,4.1h-14.5c-2.2,0-3.9-1.9-3.9-4.1v-14.1c0-2.3,1.8-4.1,3.9-4.1Z"/>
            <polygon class="st8" points="1262.2 297.4 1262.2 296.2 1261 296.2 1258.7 296.2 1257.5 297.4 1260.5 297.4 1258.1 299.7 1258.8 300.5 1261 298.1 1261 301 1262.2 299.8 1262.2 297.4"/>
            <polygon class="st8" points="1251.7 299.3 1254.4 299.3 1254.4 296.5 1257.2 296.5 1257.2 293.5 1260.2 293.5 1260.2 290.7 1263 290.7 1263 289.6 1259.2 289.6 1259.2 292.4 1256.1 292.4 1256.1 295.4 1253.4 295.4 1253.4 298.2 1250.6 298.2 1250.6 301 1248.1 301 1248.1 302 1251.7 302 1251.7 299.3"/>
          </g>
          <path id="obj-700" class="st0" d="M108.6,805.4v-286.4h115.3v130.6h251.6v155.9H108.6Z"/>
          <polygon id="obj-701" class="st0" points="313.5 487 313.5 428.1 313.5 339.5 108.7 339.5 108.7 487 211.1 487 313.5 487"/>
          <polygon id="obj-702" class="st0" points="477.4 487 477.4 428.1 477.4 339.5 313.5 339.5 313.5 487 395.4 487 477.4 487"/>
          <polygon id="obj-703" class="st0" points="762.1 805.5 762.1 724.2 762.1 602 475.5 602 475.5 805.5 618.8 805.5 762.1 805.5"/>
          <polygon id="obj-704" class="st0" points="762.4 517.7 762.4 446.5 762.4 339.5 477.4 339.5 477.4 517.7 619.9 517.7 762.4 517.7"/>
          <path id="obj-705" class="st0" d="M761.6,805.5c.3-14.1.5-28.2.7-42.5.7-54.7.4-108.3-.7-161h84.1v90.8h189.8v112.7h-273.9Z"/>
          <polygon id="obj-706" class="st0" points="1051.6 517.7 1051.6 446.5 1051.6 339.5 762.4 339.5 762.4 517.7 907 517.7 1051.6 517.7"/>
          <path id="obj-707" class="st0" d="M1331.4,805.5v-203.9h-311v91.2h15.2v112.7h295.8Z"/>
          <polygon id="obj-708" class="st0" points="1331.4 517.7 1331.4 446.5 1331.4 339.5 1051.6 339.5 1051.6 517.7 1191.5 517.7 1331.4 517.7"/>
          <path class="st2" d="M1461,244.9H.9v678.3h1460.1V244.9h0ZM6.5,250.7h1449v666.9H6.5V250.7h0Z"/>
          <line class="st4" x1="108.7" y1="487" x2="108.7" y2="519"/>
          <line class="st4" x1="1331.4" y1="517.7" x2="1331.4" y2="601.6"/>
          <g id="_двери">
            <path id="path1330-3" class="st1" d="M176,487.4h-22.5v1.1h22.5v-1.1ZM176,487.4v3.9h2v-3.9h-2ZM153.5,487.4h-2v3.9h2v-3.9ZM153.5,487.4v-11.3h2v11.3h-2ZM176,487.4v-11.3h-2v11.3h2Z"/>
            <path id="path1330-3-2" class="st1" d="M439.6,487.4h-22.5v1.1h22.5v-1.1ZM439.6,487.4v3.9h2v-3.9h-2ZM417.2,487.4h-2v3.9h2v-3.9ZM417.2,487.4v-11.3h2v11.3h-2ZM439.6,487.4v-11.3h-2v11.3h2Z"/>
            <path id="path1330-3-3" class="st1" d="M540.9,518.2h-22.5v1.1h22.5v-1.1ZM540.9,518.2v3.9h2v-3.9h-2ZM518.4,518.2h-2v3.9h2v-3.9ZM518.4,518.2v-11.3h2v11.3h-2ZM540.9,518.2v-11.3h-2v11.3h2Z"/>
            <path id="path1330-3-4" class="st1" d="M866.3,518h-22.5v1.1h22.5v-1.1ZM866.3,518v3.9h2v-3.9h-2ZM843.9,518h-2v3.9h2v-3.9ZM843.9,518v-11.3h2v11.3h-2ZM866.3,518v-11.3h-2v11.3h2Z"/>
            <path id="path1330-3-5" class="st1" d="M1083.3,518h-22.5v1.1h22.5v-1.1ZM1083.3,518v3.9h2v-3.9h-2ZM1060.9,518h-2v3.9h2v-3.9ZM1060.9,518v-11.3h2v11.3h-2ZM1083.3,518v-11.3h-2v11.3h2Z"/>
            <path id="path1330-3-6" class="st1" d="M1060.9,601.2h22.5v-1.1h-22.5v1.1ZM1060.9,601.2v-3.9h-2v3.9h2ZM1083.3,601.2h2v-3.9h-2v3.9ZM1083.3,601.2v11.3h-2v-11.3h2ZM1060.9,601.2v11.3h2v-11.3h-2Z"/>
            <path id="path1330-3-7" class="st1" d="M928.3,545.5h22.5v-1.1h-22.5v1.1ZM928.3,545.5v-3.9h-2v3.9h2ZM950.7,545.5h2v-3.9h-2v3.9ZM950.7,545.5v11.3h-2v-11.3h2ZM928.3,545.5v11.3h2v-11.3h-2Z"/>
            <path id="path1330-3-8" class="st1" d="M855.1,692.5h22.5v-1.1h-22.5v1.1ZM855.1,692.5v-3.9h-2v3.9h2ZM877.6,692.5h2v-3.9h-2v3.9ZM877.6,692.5v11.3h-2v-11.3h2ZM855.1,692.5v11.3h2v-11.3h-2Z"/>
            <path id="path1330-3-9" class="st1" d="M517.2,601.3h22.5v-1.1h-22.5v1.1ZM517.2,601.3v-3.9h-2v3.9h2ZM539.7,601.3h2v-3.9h-2v3.9ZM539.7,601.3v11.3h-2v-11.3h2ZM517.2,601.3v11.3h2v-11.3h-2Z"/>
            <path id="path1330-3-10" class="st1" d="M166.7,518.6h22.5v-1.1h-22.5v1.1ZM166.7,518.6v-3.9h-2v3.9h2ZM189.2,518.6h2v-3.9h-2v3.9ZM189.2,518.6v11.3h-2v-11.3h2ZM166.7,518.6v11.3h2v-11.3h-2Z"/>
            <path id="path1330-3-11" class="st1" d="M375.4,571v22.5h1.1v-22.5h-1.1ZM375.4,571h3.9v-2h-3.9v2ZM375.4,593.5v2h3.9v-2h-3.9ZM375.4,593.5h-11.3v-2h11.3v2ZM375.4,571h-11.3v2h11.3v-2Z"/>
            <path id="path1330-3-12" class="st1" d="M108.4,513.7v-22.5h-1.1v22.5h1.1ZM108.4,513.7h-3.9v2h3.9v-2ZM108.4,491.3v-2h-3.9v2h3.9ZM108.4,491.3h11.3v2h-11.3v-2ZM108.4,513.7h11.3v-2h-11.3v2Z"/>
            <path id="path1330-3-13" class="st1" d="M1332,548.4v22.5h1.1v-22.5h-1.1ZM1332,548.4h3.9v-2h-3.9v2ZM1332,570.9v2h3.9v-2h-3.9ZM1332,570.9h-11.3v-2h11.3v2ZM1332,548.4h-11.3v2h11.3v-2Z"/>
          </g>
          <g id="points" class="st9">
            <circle id="point-1" class="st5" cx="247.9" cy="558.6" r="6.6"/>
            <circle id="obj-elevator-left" class="st5" cx="270.3" cy="558.3" r="6.6"/>
            <circle id="point-2" class="st5" cx="247.9" cy="503.9" r="6.6"/>
            <circle id="point-700" class="st5" cx="177.9" cy="503.9" r="6.6"/>
            <circle id="obj-700-2" class="st5" cx="177.9" cy="519" r="6.6"/>
            <circle id="point-701" class="st5" cx="164.7" cy="503.9" r="6.6"/>
            <circle id="point-702" class="st5" cx="428.4" cy="503.9" r="6.6"/>
            <circle id="obj-702-2" class="st5" cx="428.4" cy="487" r="6.6"/>
            <circle id="point-toilet" class="st5" cx="428.4" cy="582.2" r="6.6"/>
            <circle id="obj-toilet-left" class="st5" cx="374.9" cy="582.2" r="6.6"/>
            <circle id="point-3" class="st5" cx="428.4" cy="561.4" r="6.6"/>
            <circle id="point-4" class="st5" cx="529.6" cy="561.4" r="6.6"/>
            <circle id="obj-703-2" class="st5" cx="529.6" cy="602" r="6.6"/>
            <circle id="obj-704-2" class="st5" cx="529.6" cy="517.7" r="6.6"/>
            <circle id="point-5" class="st5" cx="855.8" cy="561.4" r="6.6"/>
            <circle id="point-6" class="st5" cx="855.7" cy="672.5" r="6.6"/>
            <circle id="point-705" class="st5" cx="866.3" cy="672.5" r="6.6"/>
            <circle id="point-elev-right" class="st5" cx="920.1" cy="672.5" r="6.6"/>
            <circle id="obj-elev-right" class="st5" cx="920.1" cy="651.5" r="6.6"/>
            <circle id="obj-705-2" class="st5" cx="866.3" cy="693.4" r="6.6"/>
            <circle id="point-7" class="st5" cx="855.7" cy="531.5" r="6.6"/>
            <circle id="obj-706-2" class="st5" cx="855.8" cy="517.7" r="6.6"/>
            <circle id="point-toilet-right" class="st5" cx="939" cy="531.5" r="6.6"/>
            <circle id="obj-toilet-right" class="st5" cx="939" cy="545.8" r="6.6"/>
            <circle id="point-8" class="st5" cx="1072.1" cy="531.5" r="6.6"/>
            <circle id="obj-708-2" class="st5" cx="1072.1" cy="517.7" r="6.6"/>
            <circle id="obj-707-2" class="st5" cx="1072.1" cy="602" r="6.6"/>
            <circle id="point-701-2" class="st5" cx="164.8" cy="487" r="6.6"/>
          </g>
        </g>
      </g>
    </g>
  </g>
  <g>
    <g class="st6">
      <path class="st7" d="M245.1,705.2h2.2v12h-1.8l-6.6-8.1v8.1h-2.2v-12h1.8l6.6,8.1v-8.1ZM248.8,707.9c0-1.6,1.3-2.8,3.1-2.8s3.1,1.2,3.1,2.8-1.3,2.8-3.1,2.8-3.1-1.2-3.1-2.8ZM249.1,711.9h5.6v1.4h-5.6v-1.4ZM250.2,707.9c0,.9.7,1.6,1.7,1.6s1.7-.6,1.7-1.6-.7-1.6-1.7-1.6-1.7.6-1.7,1.6Z"/>
      <path class="st7" d="M266.1,705.2v1.5l-4.7,10.5h-2.4l4.5-10.1h-4.7v2h-2.1v-3.9h9.3Z"/>
      <path class="st7" d="M267.1,711.2c0-3.9,2.2-6.2,5-6.2s5,2.2,5,6.2-2.2,6.2-5,6.2-5-2.2-5-6.2ZM274.9,711.2c0-2.9-1.1-4.2-2.8-4.2s-2.8,1.3-2.8,4.2,1.1,4.2,2.8,4.2,2.8-1.3,2.8-4.2Z"/>
      <path class="st7" d="M278.6,711.2c0-3.9,2.2-6.2,5-6.2s5,2.2,5,6.2-2.2,6.2-5,6.2-5-2.2-5-6.2ZM286.4,711.2c0-2.9-1.1-4.2-2.8-4.2s-2.8,1.3-2.8,4.2,1.1,4.2,2.8,4.2,2.8-1.3,2.8-4.2Z"/>
    </g>
    <g class="st6">
      <path class="st7" d="M597.4,705.4h2.2v12h-1.8l-6.6-8.1v8.1h-2.2v-12h1.8l6.6,8.1v-8.1ZM601,708.1c0-1.6,1.3-2.8,3.1-2.8s3.1,1.2,3.1,2.8-1.3,2.8-3.1,2.8-3.1-1.2-3.1-2.8ZM601.3,712.1h5.6v1.4h-5.6v-1.4ZM602.5,708.1c0,.9.7,1.6,1.7,1.6s1.7-.6,1.7-1.6-.7-1.6-1.7-1.6-1.7.6-1.7,1.6Z"/>
      <path class="st7" d="M618.3,705.4v1.5l-4.7,10.5h-2.4l4.5-10.1h-4.7v2h-2.1v-3.9h9.3Z"/>
      <path class="st7" d="M619.4,711.4c0-3.9,2.2-6.2,5-6.2s5,2.2,5,6.2-2.2,6.2-5,6.2-5-2.2-5-6.2ZM627.1,711.4c0-2.9-1.1-4.2-2.8-4.2s-2.8,1.3-2.8,4.2,1.1,4.2,2.8,4.2,2.8-1.3,2.8-4.2Z"/>
      <path class="st7" d="M639.2,713.8c0,2-1.5,3.8-4.7,3.8s-3.4-.5-4.5-1.4l1-1.7c.9.7,2.2,1.2,3.5,1.2s2.5-.7,2.5-1.8-.8-1.8-2.6-1.8h-1.1v-1.5l2.7-3.2h-5.4v-1.9h8.2v1.5l-2.9,3.5c2.3.3,3.4,1.6,3.4,3.4Z"/>
    </g>
    <g class="st6">
      <path class="st7" d="M874.4,741.5h2v12h-1.6l-5.8-8.1v8.1h-2v-12h1.6l5.8,8.1v-8.1ZM877.6,744.2c0-1.6,1.2-2.8,2.8-2.8s2.8,1.2,2.8,2.8-1.1,2.8-2.8,2.8-2.8-1.2-2.8-2.8ZM877.9,748.2h4.9v1.4h-4.9v-1.4ZM878.9,744.2c0,.9.6,1.6,1.5,1.6s1.5-.6,1.5-1.6-.6-1.6-1.5-1.6-1.5.6-1.5,1.6Z"/>
      <path class="st7" d="M892.9,741.5v1.5l-4.1,10.5h-2.1l4-10.1h-4.2v2h-1.8v-3.9h8.2Z"/>
      <path class="st7" d="M893.8,747.5c0-3.9,1.9-6.2,4.4-6.2s4.4,2.2,4.4,6.2-1.9,6.2-4.4,6.2-4.4-2.2-4.4-6.2ZM900.7,747.5c0-2.9-1-4.2-2.4-4.2s-2.4,1.3-2.4,4.2,1,4.2,2.4,4.2,2.4-1.3,2.4-4.2Z"/>
      <path class="st7" d="M911.7,749.8c0,2.1-1.3,3.8-4.2,3.8s-3-.5-4-1.4l.8-1.7c.8.7,1.9,1.2,3.1,1.2s2.2-.7,2.2-1.8-.6-1.9-2.8-1.9h-2.6l.5-6.5h6.2v1.9h-4.6l-.2,2.8h1c3.1,0,4.4,1.5,4.4,3.7Z"/>
    </g>
    <g class="st6">
      <path class="st7" d="M1175,706.4h2v12h-1.6l-5.8-8.1v8.1h-2v-12h1.6l5.8,8.1v-8.1ZM1178.1,709c0-1.6,1.2-2.8,2.8-2.8s2.8,1.2,2.8,2.8-1.1,2.8-2.8,2.8-2.8-1.2-2.8-2.8ZM1178.4,713.1h4.9v1.4h-4.9v-1.4ZM1179.4,709c0,.9.6,1.6,1.5,1.6s1.5-.6,1.5-1.6-.6-1.6-1.5-1.6-1.5.6-1.5,1.6Z"/>
      <path class="st7" d="M1193.5,706.4v1.5l-4.1,10.5h-2.1l4-10.1h-4.2v2h-1.8v-3.9h8.2Z"/>
      <path class="st7" d="M1194.4,712.3c0-3.9,1.9-6.2,4.4-6.2s4.4,2.2,4.4,6.2-1.9,6.2-4.4,6.2-4.4-2.2-4.4-6.2ZM1201.2,712.3c0-2.9-1-4.2-2.4-4.2s-2.4,1.3-2.4,4.2,1,4.2,2.4,4.2,2.4-1.3,2.4-4.2Z"/>
      <path class="st7" d="M1212.5,706.4v1.5l-4.1,10.5h-2.1l4-10.1h-4.2v2h-1.8v-3.9h8.2Z"/>
    </g>
    <g class="st6">
      <path class="st7" d="M1176.4,424.9h2v12h-1.6l-5.8-8.1v8.1h-2v-12h1.6l5.8,8.1v-8.1ZM1179.6,427.6c0-1.6,1.2-2.8,2.8-2.8s2.8,1.2,2.8,2.8-1.1,2.8-2.8,2.8-2.8-1.2-2.8-2.8ZM1179.9,431.6h4.9v1.4h-4.9v-1.4ZM1180.9,427.6c0,.9.6,1.6,1.5,1.6s1.5-.6,1.5-1.6-.6-1.6-1.5-1.6-1.5.6-1.5,1.6Z"/>
      <path class="st7" d="M1194.9,424.9v1.5l-4.1,10.5h-2.1l4-10.1h-4.2v2h-1.8v-3.9h8.2Z"/>
      <path class="st7" d="M1195.8,430.9c0-3.9,1.9-6.2,4.4-6.2s4.4,2.2,4.4,6.2-1.9,6.2-4.4,6.2-4.4-2.2-4.4-6.2ZM1202.7,430.9c0-2.9-1-4.2-2.4-4.2s-2.4,1.3-2.4,4.2,1,4.2,2.4,4.2,2.4-1.3,2.4-4.2Z"/>
      <path class="st7" d="M1214.6,433.5c0,2.2-1.7,3.6-4.3,3.6s-4.3-1.4-4.3-3.6.6-2.3,1.7-2.9c-.8-.5-1.3-1.4-1.3-2.5,0-2.1,1.6-3.3,3.9-3.3s4,1.3,4,3.3-.5,2-1.3,2.5c1.1.6,1.7,1.5,1.7,2.9ZM1212.6,433.4c0-1.2-.9-1.9-2.4-1.9s-2.3.7-2.3,1.9.9,1.9,2.3,1.9,2.4-.7,2.4-1.9ZM1208.2,428.2c0,1,.8,1.7,2,1.7s2-.7,2-1.7-.8-1.7-2-1.7-2,.6-2,1.7Z"/>
    </g>
    <g class="st6">
      <path class="st7" d="M888.5,424.9h2v12h-1.6l-5.8-8.1v8.1h-2v-12h1.6l5.8,8.1v-8.1ZM891.7,427.6c0-1.6,1.2-2.8,2.8-2.8s2.8,1.2,2.8,2.8-1.1,2.8-2.8,2.8-2.8-1.2-2.8-2.8ZM892,431.6h4.9v1.4h-4.9v-1.4ZM893,427.6c0,.9.6,1.6,1.5,1.6s1.5-.6,1.5-1.6-.6-1.6-1.5-1.6-1.5.6-1.5,1.6Z"/>
      <path class="st7" d="M907,424.9v1.5l-4.1,10.5h-2.1l4-10.1h-4.2v2h-1.8v-3.9h8.2Z"/>
      <path class="st7" d="M907.9,430.9c0-3.9,1.9-6.2,4.4-6.2s4.4,2.2,4.4,6.2-1.9,6.2-4.4,6.2-4.4-2.2-4.4-6.2ZM914.8,430.9c0-2.9-1-4.2-2.4-4.2s-2.4,1.3-2.4,4.2,1,4.2,2.4,4.2,2.4-1.3,2.4-4.2Z"/>
      <path class="st7" d="M926.5,433.2c0,2.4-1.7,3.9-3.9,3.9s-4.6-2.1-4.6-6,2.1-6.4,5.2-6.4,2.1.3,2.8.8l-.7,1.7c-.6-.4-1.3-.6-2-.6-2,0-3.3,1.4-3.3,4.1h0c.6-.8,1.6-1.2,2.8-1.2,2.1,0,3.6,1.4,3.6,3.7ZM924.6,433.3c0-1.2-.8-2-2.1-2s-2.1.9-2.1,2.1.8,2,2.2,2,2.1-.8,2.1-2Z"/>
    </g>
    <g class="st6">
      <path class="st7" d="M597.8,424.9h2v12h-1.6l-5.8-8.1v8.1h-2v-12h1.6l5.8,8.1v-8.1ZM601,427.6c0-1.6,1.2-2.8,2.8-2.8s2.8,1.2,2.8,2.8-1.1,2.8-2.8,2.8-2.8-1.2-2.8-2.8ZM601.3,431.6h4.9v1.4h-4.9v-1.4ZM602.3,427.6c0,.9.6,1.6,1.5,1.6s1.5-.6,1.5-1.6-.6-1.6-1.5-1.6-1.5.6-1.5,1.6Z"/>
      <path class="st7" d="M616.3,424.9v1.5l-4.1,10.5h-2.1l4-10.1h-4.2v2h-1.8v-3.9h8.2Z"/>
      <path class="st7" d="M617.2,430.9c0-3.9,1.9-6.2,4.4-6.2s4.4,2.2,4.4,6.2-1.9,6.2-4.4,6.2-4.4-2.2-4.4-6.2ZM624.1,430.9c0-2.9-1-4.2-2.4-4.2s-2.4,1.3-2.4,4.2,1,4.2,2.4,4.2,2.4-1.3,2.4-4.2Z"/>
      <path class="st7" d="M636.9,434.2h-1.9v2.7h-1.9v-2.7h-5.8v-1.5l5.2-7.7h2.1l-4.9,7.4h3.5v-2.4h1.8v2.4h1.9v1.9Z"/>
    </g>
    <g class="st6">
      <path class="st7" d="M378.6,412.8h2v12h-1.6l-5.8-8.1v8.1h-2v-12h1.6l5.8,8.1v-8.1ZM381.8,415.5c0-1.6,1.2-2.8,2.8-2.8s2.8,1.2,2.8,2.8-1.1,2.8-2.8,2.8-2.8-1.2-2.8-2.8ZM382.1,419.5h4.9v1.4h-4.9v-1.4ZM383.1,415.5c0,.9.6,1.6,1.5,1.6s1.5-.6,1.5-1.6-.6-1.6-1.5-1.6-1.5.6-1.5,1.6Z"/>
      <path class="st7" d="M397.1,412.8v1.5l-4.1,10.5h-2.1l4-10.1h-4.2v2h-1.8v-3.9h8.2Z"/>
      <path class="st7" d="M398,418.8c0-3.9,1.9-6.2,4.4-6.2s4.4,2.2,4.4,6.2-1.9,6.2-4.4,6.2-4.4-2.2-4.4-6.2ZM404.9,418.8c0-2.9-1-4.2-2.4-4.2s-2.4,1.3-2.4,4.2,1,4.2,2.4,4.2,2.4-1.3,2.4-4.2Z"/>
      <path class="st7" d="M415.8,422.9v1.9h-7.8v-1.5l4.2-4.5c1-1.1,1.2-1.8,1.2-2.5,0-1.1-.7-1.7-2-1.7s-1.9.4-2.5,1.2l-1.4-1.2c.8-1.2,2.3-2,4-2s3.8,1.3,3.8,3.4-.3,2.2-1.8,3.8l-2.8,3h5Z"/>
    </g>
    <g class="st6">
      <path class="st7" d="M191.6,412.8h2v12h-1.6l-5.8-8.1v8.1h-2v-12h1.6l5.8,8.1v-8.1ZM194.8,415.5c0-1.6,1.2-2.8,2.8-2.8s2.8,1.2,2.8,2.8-1.1,2.8-2.8,2.8-2.8-1.2-2.8-2.8ZM195.1,419.5h4.9v1.4h-4.9v-1.4ZM196.1,415.5c0,.9.6,1.6,1.5,1.6s1.5-.6,1.5-1.6-.6-1.6-1.5-1.6-1.5.6-1.5,1.6Z"/>
      <path class="st7" d="M210.1,412.8v1.5l-4.1,10.5h-2.1l4-10.1h-4.2v2h-1.8v-3.9h8.2Z"/>
      <path class="st7" d="M211,418.8c0-3.9,1.9-6.2,4.4-6.2s4.4,2.2,4.4,6.2-1.9,6.2-4.4,6.2-4.4-2.2-4.4-6.2ZM217.9,418.8c0-2.9-1-4.2-2.4-4.2s-2.4,1.3-2.4,4.2,1,4.2,2.4,4.2,2.4-1.3,2.4-4.2Z"/>
      <path class="st7" d="M224.8,412.8v12h-2v-10.1h-2.2v-1.9h4.2Z"/>
    </g>
  </g>
</svg>